# Blender v2.77 (sub 0) OBJ File: 'room1.blend'
# www.blender.org
v -0.636627 0.181067 -2.925054
v -0.444910 -0.176833 -2.928312
v -0.362635 -0.512428 -2.898867
v -0.395166 -0.718268 -2.822368
v -0.526965 -0.810496 -2.685611
v -0.591747 0.229407 -2.797778
v -0.327974 -0.091270 -2.720748
v -0.208430 -0.405926 -2.637498
v -0.260988 -0.627770 -2.584507
v -0.409882 -0.768830 -2.502385
v -0.657280 0.271142 -2.688438
v -0.511798 -0.044980 -2.479614
v -0.403624 -0.197436 -2.331625
v -0.336200 -0.547602 -2.255217
v -0.418883 -0.810300 -2.287277
v -0.827109 0.137358 -2.979911
v -0.791936 -0.240535 -3.012062
v -0.760432 -0.592597 -3.008584
v -0.741995 -0.786535 -2.920689
v -0.733730 -0.852652 -2.733591
v -0.843077 0.318934 -2.846321
v -0.992129 0.188676 -2.927140
v -1.142037 -0.237647 -2.919789
v -1.163273 -0.583974 -2.888785
v -1.092865 -0.780615 -2.813582
v -0.943430 -0.847712 -2.680366
v -1.054968 0.243055 -2.846703
v -1.266306 -0.172567 -2.710088
v -1.327337 -0.505912 -2.623408
v -1.234977 -0.714806 -2.572241
v -1.061430 -0.827053 -2.494180
v -0.727609 -0.881285 -2.450706
v -1.000447 0.269579 -2.738856
v -1.082264 -0.106440 -2.476761
v -1.164036 -0.265857 -2.322189
v -1.166965 -0.621840 -2.244756
v -1.039849 -0.865790 -2.279458
v -0.834020 0.259176 -2.640764
v -0.797809 -0.072857 -2.381320
v -0.785427 -0.192770 -2.157214
v -0.757044 -0.500213 -2.084020
v -0.726981 -0.849079 -2.172280
v 0.062427 -0.091164 -2.747910
v -1.138745 0.268263 -2.716102
v -1.526236 -0.077563 -2.392741
v -1.475721 0.214949 -1.998089
v -1.348570 0.261533 -1.954676
v -0.540708 0.214504 -2.913457
v -0.241314 0.013447 -2.070926
v -1.082720 0.275959 -2.807563
v -1.474118 -0.263162 -2.287859
v -1.314281 0.006679 -1.861681
v -1.243621 0.129752 -1.866596
v -0.194153 -0.079548 -2.123957
v -0.071306 -0.267723 -2.711698
v -0.985548 0.243014 -2.779097
v -1.271199 -0.281465 -2.200768
v -1.074432 -0.046065 -1.922992
v -1.092888 0.094695 -1.903244
v -1.162451 0.231555 -1.949706
v -0.578727 0.134627 -2.912668
v -0.943020 0.154435 -2.646827
v -1.130315 -0.118260 -2.214866
v -0.982719 0.067942 -2.111735
v -1.035953 0.167406 -2.021484
v -0.376227 0.032694 -2.120040
v -0.417760 -0.058164 -2.200602
v -0.992697 0.136279 -2.532424
v -1.166144 0.063262 -2.337339
v -1.099164 0.213219 -2.238420
v -1.114545 0.267701 -2.103841
v -0.287589 -0.248899 -2.675544
v -1.008108 0.301843 -2.675241
v -1.094910 0.194887 -2.580814
v -1.347176 0.105736 -2.450876
v -1.305647 0.278538 -2.193483
v -1.259293 0.302469 -2.065911
v -0.572929 0.088856 -2.825811
v -1.227404 0.023800 -2.575351
v -1.060149 -0.050181 -2.477271
v -1.088714 -0.200296 -2.659362
v -1.162614 -0.149770 -2.808607
v -1.318429 -0.080185 -2.808523
v -1.399204 -0.054441 -2.660202
v -0.041141 0.082659 -2.160788
v -0.142522 0.114936 -2.095512
v -0.277607 0.139789 -2.099834
v -0.474520 0.254567 -2.828455
v -0.010961 0.116315 -2.750448
v -0.089673 0.269869 -2.279063
v -0.163901 0.229526 -2.168917
v -0.450994 0.208079 -2.731993
v -0.224141 0.153748 -2.725242
v -0.299523 0.300380 -2.358296
v -0.289239 0.246105 -2.218899
v -0.584262 0.261559 -2.811616
v -0.507311 0.121707 -2.729909
v -0.380488 -0.053168 -2.684302
v -0.465260 0.129732 -2.316926
v -0.394634 0.148534 -2.194640
v -0.410218 -0.015714 -2.744208
v -0.289771 0.151198 -2.770771
v -0.236357 0.191781 -2.879946
v -0.265146 0.067928 -2.994554
v -0.365236 -0.067768 -2.969783
v -0.451899 -0.102560 -2.828055
v -0.461384 0.049034 -2.737859
v -0.377047 0.176680 -2.748588
v -0.357499 0.215379 -2.857007
v -0.391265 0.127958 -2.985909
v -0.469158 0.005763 -2.975535
v -0.513296 -0.026779 -2.834006
v -0.083764 0.158220 -2.847779
v -0.052540 -0.033679 -2.916291
v -0.190904 -0.216351 -2.878826
v -0.366711 -0.215388 -2.771198
v -0.252491 0.152534 -2.752245
v -0.394078 -0.037687 -2.717029
v 0.042443 -0.038804 -2.584365
v -0.094741 -0.219919 -2.547219
v -0.329144 -0.198649 -2.571932
v -0.049519 0.169595 -2.647568
v -0.276715 0.196862 -2.675160
v -0.427076 0.002936 -2.637364
v -1.507381 0.072455 -2.113331
v -1.357228 -0.175254 -1.995048
v -1.144604 -0.223230 -2.072442
v -1.040212 -0.090921 -2.214698
v -1.142070 0.113701 -2.278201
v -1.339783 0.195961 -2.321351
v -1.464033 -0.067614 -2.523844
v -1.397990 -0.177267 -2.546936
v -1.218812 -0.224101 -2.503731
v -1.108834 -0.164794 -2.437342
v -1.150192 -0.063738 -2.379425
v -1.347720 -0.002805 -2.493706
vn 0.152100 0.741900 0.653100
vn 0.405100 0.247000 0.880300
vn 0.826300 0.172000 -0.536400
vn 0.738500 -0.596700 0.314000
vn 0.795100 0.543600 0.269000
vn 0.870100 -0.299600 -0.391300
vn 0.600700 0.733900 0.317000
vn 0.884500 0.255500 0.390300
vn 0.319800 -0.365700 -0.874100
vn 0.211600 0.122200 -0.969700
vn 0.261800 -0.906300 -0.331800
vn 0.263200 0.014000 -0.964600
vn 0.093200 0.595300 -0.798000
vn 0.221600 -0.969700 -0.102900
vn 0.695800 0.435100 -0.571400
vn 0.487100 -0.865800 -0.114400
vn 0.822400 0.153600 -0.547800
vn 0.375500 0.814700 -0.441800
vn 0.333800 -0.942600 0.001100
vn 0.877500 -0.282700 -0.387400
vn 0.954300 -0.298200 -0.017600
vn 0.870600 0.404800 0.279700
vn 0.356100 0.924000 -0.139300
vn 0.304500 -0.937600 -0.168000
vn 0.952300 -0.164100 0.257500
vn 0.665500 0.639800 0.384500
vn 0.364600 -0.198700 0.909700
vn 0.216700 0.865700 0.451200
vn 0.010200 0.960300 0.278700
vn 0.165500 -0.979700 0.113000
vn 0.388800 0.267300 0.881700
vn 0.201400 0.616600 0.761000
vn 0.252800 0.105400 -0.961800
vn 0.239100 -0.026500 -0.970600
vn 0.789600 0.427000 -0.440600
vn 0.315900 -0.374000 -0.872000
vn 0.273900 -0.898800 -0.342200
vn 0.659200 -0.746800 -0.087700
vn 0.171100 0.596700 0.784000
vn 0.346200 -0.220300 0.911900
vn -0.291200 0.738700 0.607900
vn -0.421300 0.173000 0.890200
vn -0.856900 0.023000 -0.514900
vn -0.612900 -0.717500 0.331000
vn -0.849500 0.413300 0.327800
vn -0.812700 -0.450000 -0.370100
vn -0.665300 0.666800 0.335800
vn -0.905400 0.097300 0.413300
vn -0.271600 -0.418600 -0.866600
vn -0.253600 0.072600 -0.964600
vn -0.105200 -0.939100 -0.327200
vn -0.285600 -0.035000 -0.957700
vn -0.075400 0.586600 -0.806300
vn -0.048700 -0.993800 -0.099500
vn -0.804600 0.229000 -0.547900
vn -0.328600 -0.938700 -0.104100
vn -0.849900 0.004900 -0.526900
vn -0.249600 0.700500 -0.668600
vn -0.161300 -0.986900 0.007300
vn -0.822900 -0.434600 -0.366000
vn -0.886500 -0.462700 0.005600
vn -0.920700 0.247100 0.302200
vn -0.336400 0.939700 -0.061000
vn -0.137600 -0.977100 -0.162400
vn -0.901300 -0.329700 0.280800
vn -0.737000 0.517600 0.434600
vn -0.300700 -0.258200 0.918100
vn -0.356200 0.815600 0.456100
vn -0.106500 0.953500 0.281900
vn 0.013700 -0.993300 0.114900
vn -0.408100 0.197300 0.891400
vn -0.322100 0.560800 0.762700
vn -0.288700 0.054400 -0.955900
vn -0.254800 -0.070700 -0.964400
vn -0.685800 0.229200 -0.690700
vn -0.266300 -0.426000 -0.864700
vn -0.118700 -0.933900 -0.337200
vn -0.518300 -0.852100 -0.072900
vn -0.385300 0.582600 0.715600
vn -0.278800 -0.276100 0.919800
vn -0.730200 0.484500 -0.481700
vn 0.074400 0.594400 0.800700
vn -0.848000 -0.308200 0.431100
vn -0.230900 0.971100 -0.059800
vn -0.398000 0.269200 0.877000
vn 0.216600 -0.085500 0.972500
vn 0.000500 0.002400 -1.000000
vn 0.307700 0.442400 0.842400
vn -0.039800 -0.894500 0.445200
vn 0.395600 0.833300 -0.386100
vn 0.885700 0.055900 0.460900
vn 0.800200 -0.322700 -0.505500
vn 0.605500 0.514000 0.607600
vn 0.241500 -0.792600 -0.559900
vn 0.916400 0.399400 -0.027200
vn 0.828500 0.545600 -0.126200
vn 0.909400 -0.379500 0.170200
vn 0.574400 0.739100 0.351900
vn 0.811500 0.238300 -0.533600
vn 0.799600 0.433200 0.415900
vn 0.166800 0.956300 -0.240000
vn -0.372000 0.316000 0.872800
vn 0.297200 0.904900 0.304600
vn 0.402600 0.609100 -0.683400
vn 0.016900 0.654000 0.756300
vn -0.430100 0.902700 -0.013000
vn -0.557600 0.556700 0.615700
vn 0.132000 0.891200 0.433900
vn -0.763200 0.589400 -0.264900
vn -0.363100 0.764700 0.532400
vn -0.456200 0.880100 -0.131900
vn 0.059600 0.919900 0.387500
vn 0.739000 -0.080900 0.668800
vn 0.380800 -0.907100 0.179600
vn -0.146100 -0.912100 -0.382900
vn -0.812200 -0.399800 -0.424800
vn -0.790000 -0.495900 -0.360400
vn -0.324200 0.121500 0.938200
vn -0.124100 -0.911400 0.392300
vn -0.997200 -0.068000 0.030800
vn -0.349000 -0.591500 0.726900
vn 0.466100 -0.248000 0.849300
vn -0.359200 0.150800 -0.921000
vn 0.010400 0.225900 0.974100
vn 0.793200 -0.545100 0.271400
vn -0.781800 0.367100 -0.504000
vn 0.573900 0.515000 0.636700
vn 0.176100 0.792700 -0.583700
vn 0.074100 0.547700 0.833400
vn 0.895900 0.429700 0.113200
vn -0.007000 0.906600 -0.421900
vn -0.022100 0.931100 0.364100
vn 0.375000 0.849600 0.370900
vn -0.169300 0.726900 0.665600
vn 0.164600 0.826300 -0.538600
vn 0.120100 0.905500 0.407100
vn -0.599900 0.729600 0.328300
vn 0.148000 -0.014700 0.988900
vn -0.452700 0.642700 0.618100
vn -0.523700 0.247200 -0.815300
vn -0.404800 0.284900 0.868900
vn -0.923700 0.092600 0.371700
vn -0.652400 -0.382800 0.654100
vn -0.564400 0.381700 0.731900
vn -0.837100 -0.487300 -0.248400
vn -0.804600 -0.100900 0.585100
vn -0.767600 -0.292100 0.570500
vn -0.410000 0.451800 0.792300
vn 0.142200 0.941000 0.307200
vn 0.469900 0.363600 -0.804400
vn 0.194300 -0.336200 -0.921500
vn -0.347600 -0.751300 -0.561000
vn -0.573900 -0.409300 0.709300
vn 0.240900 -0.019400 0.970300
vn 0.251500 0.860600 0.442900
vn 0.247500 0.626400 -0.739100
vn -0.113800 -0.096600 -0.988800
vn -0.489500 -0.729200 -0.478300
vn -0.119900 -0.969800 -0.212300
vn 0.581600 -0.561300 -0.588800
vn 0.833700 0.289100 -0.470500
vn 0.196700 0.945400 0.259900
vn -0.584600 0.558200 0.588700
vn -0.778900 -0.346300 0.522900
vn -0.967200 -0.253700 -0.014900
vn -0.716000 0.615700 -0.329000
vn 0.242600 0.927200 -0.285400
vn 0.962500 0.269500 0.031600
vn 0.717100 -0.593500 0.365300
vn -0.194100 -0.931900 0.306300
vn -0.880200 -0.441600 -0.173900
vn -0.037900 -0.961000 0.273900
vn -0.318200 -0.543300 0.776900
vn 0.467300 -0.248200 0.848500
vn -0.347100 0.156100 -0.924800
vn 0.598200 0.533100 0.598400
vn 0.155500 0.841400 -0.517600
vn 0.942700 0.333500 0.008400
vn 0.005300 0.937800 0.347100
vn 0.429400 0.850100 0.305000
vn 0.107500 0.898700 -0.425100
vn -0.656800 0.703600 0.271100
vn 0.180000 -0.093700 0.979200
vn -0.548000 0.256600 -0.796100
vn -0.868400 0.083100 0.488800
vn -0.643500 -0.472500 0.602200
vn -0.890700 -0.429400 -0.149000
vn -0.874800 -0.045900 0.482400
vn -0.519700 0.486800 0.702200
vn -0.168200 0.948000 0.270100
vn 0.289800 0.612900 -0.735100
vn 0.193200 -0.312300 -0.930100
vn -0.550600 -0.668000 -0.500600
vn -0.540400 -0.493900 0.681200
vn 0.124500 0.001100 0.992200
vn 0.345800 0.862200 0.370100
vn 0.051900 0.820100 -0.569800
vn -0.003200 -0.082500 -0.996600
vn -0.710700 -0.604100 -0.360500
vn -0.140900 -0.964900 -0.221500
vn 0.820900 0.305800 -0.482400
vn -0.037100 0.999300 -0.006000
vn -0.630300 0.567300 0.530100
vn -0.932600 -0.228700 0.279100
vn -0.893000 -0.448000 -0.043600
vn -0.789100 0.564800 -0.241300
vn 0.144800 0.958600 -0.245100
vn 0.906600 0.417900 0.059000
vn 0.787700 -0.533400 0.308400
vn -0.116600 -0.950500 0.287900
vn -0.618900 0.724800 -0.302800
vn -0.073400 0.397300 -0.914700
vn 0.717700 -0.031300 -0.695600
vn 0.886100 -0.431000 0.170200
vn 0.071500 -0.600600 0.796300
vn -0.797500 -0.262300 0.543400
vn -0.808700 -0.444700 -0.385100
vn -0.008200 -0.982300 -0.187400
vn 0.749700 -0.629500 0.204100
vn 0.986600 0.147200 -0.070400
vn 0.556400 0.302600 -0.773900
vn -0.562500 0.305900 -0.768100
vn -0.743000 0.528500 -0.410600
vn -0.970000 -0.180600 0.162400
vn -0.400000 0.264700 0.877500
vn 0.224200 -0.106500 0.968700
vn 0.265900 -0.047500 -0.962800
vn -0.237900 -0.900000 0.365200
vn 0.885700 0.051400 0.461400
vn 0.818700 -0.319400 -0.477100
vn 0.680300 -0.620900 -0.389400
vn 0.824000 0.552900 -0.123300
vn 0.906800 -0.222000 0.358500
vn 0.162300 -0.529700 -0.832500
vn 0.213900 0.913700 -0.345500
vn -0.228500 0.351200 0.908000
vn 0.489100 0.702300 -0.517200
vn -0.345400 0.938400 0.004700
vn -0.672500 0.537100 0.509200
vn -0.720800 0.587400 -0.368000
vn -0.330200 0.925600 -0.185000
vn 0.215800 0.920300 0.326100
vn 0.928000 -0.345600 0.139400
vn -0.133400 -0.956900 -0.257900
vn -0.390900 -0.875100 -0.285400
vn -0.841000 -0.371200 -0.393600
vn -0.801800 0.473300 -0.365000
vn 0.418700 0.707900 -0.568900
vn 0.734700 0.161200 -0.659000
vn 0.855800 -0.486800 0.175200
vn 0.117300 -0.667100 0.735700
vn -0.800900 -0.219400 0.557200
vn -0.814700 -0.402800 -0.417100
vn -0.156400 -0.922900 -0.351900
vn 0.507900 -0.858200 -0.074700
vn 0.927700 0.373100 0.011500
vn 0.546700 0.324500 -0.771900
vn -0.451900 0.879700 -0.147700
s off
f 13//1 12//1 39//1
f 13//2 40//2 41//2
f 2//3 7//3 8//3
f 10//4 9//4 14//4
f 6//5 11//5 12//5
f 3//6 8//6 9//6
f 7//7 12//7 13//7
f 8//8 13//8 14//8
f 18//9 4//9 19//9
f 17//10 1//10 2//10
f 19//11 5//11 20//11
f 17//12 3//12 18//12
f 16//13 21//13 1//13
f 32//14 20//14 5//14
f 2//15 6//15 7//15
f 4//16 10//16 5//16
f 2//17 8//17 3//17
f 1//18 21//18 6//18
f 32//19 5//19 10//19
f 3//20 9//20 4//20
f 10//21 14//21 15//21
f 7//22 13//22 8//22
f 6//23 21//23 11//23
f 32//24 10//24 15//24
f 8//25 14//25 9//25
f 6//26 12//26 7//26
f 15//27 41//27 42//27
f 13//28 39//28 40//28
f 11//29 21//29 38//29
f 32//30 15//30 42//30
f 13//31 41//31 14//31
f 12//32 38//32 39//32
f 17//33 16//33 1//33
f 17//34 2//34 3//34
f 2//35 1//35 6//35
f 18//36 3//36 4//36
f 19//37 4//37 5//37
f 4//38 9//38 10//38
f 12//39 11//39 38//39
f 15//40 14//40 41//40
f 35//41 39//41 34//41
f 35//42 41//42 40//42
f 23//43 29//43 28//43
f 31//44 36//44 30//44
f 27//45 34//45 33//45
f 24//46 30//46 29//46
f 28//47 35//47 34//47
f 29//48 36//48 35//48
f 18//49 19//49 25//49
f 17//50 23//50 22//50
f 19//51 20//51 26//51
f 17//52 18//52 24//52
f 16//53 22//53 21//53
f 32//54 26//54 20//54
f 23//55 28//55 27//55
f 25//56 26//56 31//56
f 23//57 24//57 29//57
f 22//58 27//58 21//58
f 32//59 31//59 26//59
f 24//60 25//60 30//60
f 31//61 37//61 36//61
f 28//62 29//62 35//62
f 27//63 33//63 21//63
f 32//64 37//64 31//64
f 29//65 30//65 36//65
f 27//66 28//66 34//66
f 37//67 42//67 41//67
f 35//68 40//68 39//68
f 33//69 38//69 21//69
f 32//70 42//70 37//70
f 35//71 36//71 41//71
f 34//72 39//72 38//72
f 17//73 22//73 16//73
f 17//74 24//74 23//74
f 23//75 27//75 22//75
f 18//76 25//76 24//76
f 19//77 26//77 25//77
f 25//78 31//78 30//78
f 34//79 38//79 33//79
f 37//80 41//80 36//80
f 84//81 50//81 83//81
f 60//82 47//82 53//82
f 125//83 51//83 126//83
f 44//84 73//84 50//84
f 46//85 53//85 47//85
f 52//86 59//86 53//86
f 50//87 82//87 83//87
f 60//88 53//88 59//88
f 126//89 57//89 127//89
f 50//90 73//90 56//90
f 59//91 64//91 65//91
f 56//92 81//92 82//92
f 60//93 59//93 65//93
f 127//94 63//94 128//94
f 56//95 73//95 62//95
f 65//96 70//96 71//96
f 62//97 80//97 81//97
f 60//98 65//98 71//98
f 128//99 69//99 129//99
f 62//100 73//100 68//100
f 71//101 76//101 77//101
f 80//102 74//102 79//102
f 60//103 71//103 77//103
f 69//104 130//104 129//104
f 68//105 73//105 74//105
f 76//106 47//106 77//106
f 79//107 44//107 84//107
f 60//108 77//108 47//108
f 130//109 45//109 125//109
f 74//110 73//110 44//110
f 136//111 84//111 131//111
f 135//112 79//112 136//112
f 134//113 80//113 135//113
f 133//114 81//114 134//114
f 83//115 133//115 132//115
f 84//116 132//116 131//116
f 112//117 61//117 111//117
f 87//118 66//118 49//118
f 72//119 120//119 121//119
f 78//120 96//120 61//120
f 66//121 54//121 49//121
f 54//122 86//122 49//122
f 111//123 48//123 110//123
f 87//124 49//124 86//124
f 120//125 43//125 119//125
f 61//126 96//126 48//126
f 85//127 91//127 86//127
f 48//128 109//128 110//128
f 87//129 86//129 91//129
f 119//130 89//130 122//130
f 48//131 96//131 88//131
f 91//132 94//132 95//132
f 88//133 108//133 109//133
f 87//134 91//134 95//134
f 122//135 93//135 123//135
f 88//136 96//136 92//136
f 94//137 100//137 95//137
f 108//138 97//138 107//138
f 87//139 95//139 100//139
f 123//140 98//140 124//140
f 92//141 96//141 97//141
f 100//142 67//142 66//142
f 107//143 78//143 112//143
f 87//144 100//144 66//144
f 98//145 121//145 124//145
f 97//146 96//146 78//146
f 118//147 106//147 116//147
f 102//148 118//148 117//148
f 103//149 117//149 113//149
f 104//150 113//150 114//150
f 105//151 114//151 115//151
f 116//152 105//152 115//152
f 101//153 112//153 106//153
f 108//154 101//154 102//154
f 109//155 102//155 103//155
f 110//156 103//156 104//156
f 105//157 110//157 104//157
f 106//158 111//158 105//158
f 72//159 115//159 55//159
f 55//160 114//160 43//160
f 114//161 89//161 43//161
f 113//162 93//162 89//162
f 117//163 98//163 93//163
f 98//164 116//164 72//164
f 124//165 67//165 99//165
f 94//166 124//166 99//166
f 90//167 123//167 94//167
f 85//168 122//168 90//168
f 120//169 85//169 54//169
f 121//170 54//170 67//170
f 112//171 78//171 61//171
f 72//172 55//172 120//172
f 66//173 67//173 54//173
f 54//174 85//174 86//174
f 111//175 61//175 48//175
f 120//125 55//125 43//125
f 85//176 90//176 91//176
f 48//177 88//177 109//177
f 119//178 43//178 89//178
f 91//179 90//179 94//179
f 88//180 92//180 108//180
f 122//181 89//181 93//181
f 94//182 99//182 100//182
f 108//183 92//183 97//183
f 123//184 93//184 98//184
f 100//185 99//185 67//185
f 107//186 97//186 78//186
f 98//187 72//187 121//187
f 118//188 101//188 106//188
f 102//189 101//189 118//189
f 103//190 102//190 117//190
f 104//191 103//191 113//191
f 105//192 104//192 114//192
f 116//193 106//193 105//193
f 101//194 107//194 112//194
f 108//195 107//195 101//195
f 109//196 108//196 102//196
f 110//197 109//197 103//197
f 105//198 111//198 110//198
f 106//199 112//199 111//199
f 72//200 116//200 115//200
f 55//160 115//160 114//160
f 114//201 113//201 89//201
f 113//202 117//202 93//202
f 117//203 118//203 98//203
f 98//204 118//204 116//204
f 124//205 121//205 67//205
f 94//206 123//206 124//206
f 90//207 122//207 123//207
f 85//208 119//208 122//208
f 120//209 119//209 85//209
f 121//210 120//210 54//210
f 130//211 46//211 76//211
f 129//212 76//212 70//212
f 64//213 129//213 70//213
f 58//214 128//214 64//214
f 126//215 58//215 52//215
f 125//216 52//216 46//216
f 45//217 132//217 51//217
f 51//218 133//218 57//218
f 57//219 134//219 63//219
f 63//220 135//220 69//220
f 69//221 136//221 75//221
f 136//222 45//222 75//222
f 84//223 44//223 50//223
f 125//224 45//224 51//224
f 46//225 52//225 53//225
f 52//226 58//226 59//226
f 50//227 56//227 82//227
f 126//228 51//228 57//228
f 59//229 58//229 64//229
f 56//230 62//230 81//230
f 127//231 57//231 63//231
f 65//232 64//232 70//232
f 62//233 68//233 80//233
f 128//234 63//234 69//234
f 71//235 70//235 76//235
f 80//236 68//236 74//236
f 69//237 75//237 130//237
f 76//238 46//238 47//238
f 79//239 74//239 44//239
f 130//240 75//240 45//240
f 136//241 79//241 84//241
f 135//242 80//242 79//242
f 134//243 81//243 80//243
f 133//244 82//244 81//244
f 83//245 82//245 133//245
f 84//246 83//246 132//246
f 130//247 125//247 46//247
f 129//248 130//248 76//248
f 64//249 128//249 129//249
f 58//250 127//250 128//250
f 126//251 127//251 58//251
f 125//252 126//252 52//252
f 45//253 131//253 132//253
f 51//254 132//254 133//254
f 57//255 133//255 134//255
f 63//256 134//256 135//256
f 69//257 135//257 136//257
f 136//258 131//258 45//258
