# Blender v2.77 (sub 0) OBJ File: 'room1.blend'
# www.blender.org
v 0.778265 -0.054619 -0.723141
v -0.786292 -0.063583 -0.711974
v -0.784260 -0.057385 -0.472573
v -0.787127 -0.001359 -0.714665
v -0.781663 -0.002800 -0.420633
v 0.782057 -0.007685 0.723828
v -0.781082 -0.054192 -0.420040
v 0.780856 -0.053125 -0.420363
v 0.768049 -0.065289 0.433451
v 0.778142 -0.058077 0.425061
v -0.792872 -0.052421 0.182143
v 0.779331 -0.055516 0.182948
v 0.789152 -0.059941 0.725739
v -0.783144 -0.056323 0.477737
v 0.079751 -0.001680 0.722342
v -0.302066 -0.001296 0.477609
v 0.370694 -0.053975 0.475009
v 0.607080 -0.006487 0.436083
v -0.479464 0.004298 0.188481
v 0.771897 -0.007061 0.175169
v 0.535066 -0.056724 0.172933
v 0.341210 -0.013192 -0.121998
v 0.013903 -0.001441 -0.124178
v -0.224061 -0.057412 0.136805
v -0.467440 -0.054969 0.132778
v -0.371588 -0.054027 -0.130645
v 0.463088 -0.054351 -0.125381
v 0.040637 -0.052865 -0.164643
v -0.157818 -0.056036 -0.168371
v -0.597200 -0.057899 -0.163596
v 0.463092 -0.054285 -0.424399
v 0.613946 -0.051746 -0.731274
v 0.780252 -0.007506 -0.719716
v -0.782852 -0.002694 -0.118810
v -0.781861 -0.004734 0.426526
v -0.787254 -0.004462 0.185564
v -0.785105 -0.004464 -0.172543
v -0.785148 -0.004485 0.484558
v -0.784427 -0.054746 0.428444
v 0.779015 -0.054101 -0.170949
v 0.778022 -0.006316 -0.170320
v -0.786476 -0.054142 -0.173456
v 0.781103 -0.006230 -0.421024
v 0.784061 -0.001387 0.190258
v -0.790929 -0.061271 -0.722851
v -0.773978 -0.049303 0.134413
v -0.784505 -0.053888 0.128691
v -0.785264 -0.004469 0.124065
v -0.781184 -0.055467 -0.119105
v 0.773370 -0.048994 -0.479512
v -0.780690 -0.053050 0.726035
v -0.787498 -0.006379 0.724260
v 0.780194 -0.047596 0.125022
v 0.767022 -0.048289 0.127772
v 0.774534 -0.051435 -0.115266
v 0.778134 -0.004055 -0.120044
v 0.782265 -0.055259 0.476303
v 0.787278 -0.055197 -0.592529
v -0.793403 -0.056427 -0.599980
v 0.617481 -0.061781 -0.427027
v -0.792698 -0.051008 0.607699
v 0.787936 -0.050151 0.597988
v 0.486201 -0.008197 0.734751
v 0.006711 -0.008910 0.479721
v -0.462760 -0.055494 0.730887
v -0.430820 -0.002838 0.731132
v -0.017145 -0.052420 0.729062
v 0.467221 0.005022 0.187134
v -0.460748 -0.010087 0.171667
v 0.622784 -0.053479 0.438529
v -0.309221 -0.052819 0.431125
v -0.617356 -0.063457 0.162208
v -0.013638 -0.005713 0.428147
v 0.013377 0.006006 0.317000
v 0.150419 -0.055110 0.172325
v -0.033104 -0.050714 0.177217
v -0.466000 -0.055012 0.174225
v 0.465972 -0.054714 0.432181
v -0.253965 0.000317 0.132178
v 0.090760 -0.006646 0.133074
v 0.613681 -0.056488 0.132645
v -0.002851 -0.050362 0.139876
v 0.018646 -0.050646 -0.127643
v -0.156347 -0.056887 -0.125219
v 0.241133 0.014664 0.008501
v 0.433347 0.000575 0.120595
v -0.449357 -0.003125 -0.169300
v 0.413630 -0.006954 -0.419652
v -0.084732 -0.006990 -0.421148
v 0.314832 -0.060186 -0.163937
v -0.318799 -0.050134 -0.169243
v -0.570588 -0.056620 -0.424815
v 0.176993 -0.008639 -0.166289
v 0.273775 -0.056257 -0.420125
v -0.073694 -0.056689 -0.422649
v 0.462378 -0.055015 -0.166832
v 0.552773 0.010838 -0.284528
v -0.781461 -0.003911 -0.471304
v 0.307343 -0.012934 -0.462789
v -0.254975 -0.003232 -0.469060
v 0.487921 -0.005204 -0.723370
v 0.304192 -0.000316 -0.724818
v -0.576454 -0.003197 -0.724503
v -0.555268 -0.055243 -0.727971
v 0.001521 -0.059749 -0.724121
v 0.152875 -0.054974 -0.725570
v -0.104691 0.004029 -0.711858
v 0.311247 0.005966 -0.477497
v 0.163294 -0.054591 -0.467013
v -0.011720 -0.050852 -0.465814
v -0.458919 -0.054870 -0.464195
v -0.618755 -0.061656 -0.462137
v -0.212500 -0.056759 -0.727783
v 0.302471 -0.060594 -0.734404
v -0.197190 0.001620 -0.180443
v -0.487517 0.011231 -0.299660
v -0.313371 -0.050438 -0.422210
v 0.175617 -0.056754 0.134435
v -0.625719 -0.059906 0.132671
v -0.544108 -0.005323 0.126982
v 0.307616 -0.064604 -0.124122
v 0.613766 -0.057307 -0.132093
v 0.274227 -0.051839 0.442947
v -0.084516 -0.053725 0.434973
v -0.617912 -0.058719 0.439831
v -0.308803 -0.063746 0.171117
v -0.413352 -0.004274 0.428883
v 0.309648 -0.058846 0.728228
v -0.628496 -0.047845 0.739398
v -0.132273 0.005247 0.618309
v -0.229171 -0.055492 0.474323
v 0.779028 -0.003879 0.480655
v 0.778732 -0.007950 0.128635
v 0.779400 -0.007001 0.426744
v -0.345061 0.000684 -0.122431
v 0.782781 -0.057871 -0.301875
v -0.592198 -0.054691 0.472578
v -0.624126 -0.060356 -0.127283
v -0.795627 -0.050565 0.002419
v 0.780280 -0.005509 -0.474741
v 0.793022 -0.057426 0.010220
v 0.787925 0.004378 0.599294
v 0.623665 -0.056379 -0.460916
v 0.784301 0.005696 -0.005471
v -0.789487 -0.058342 0.307567
v 0.790085 -0.061888 0.309393
v 0.492291 -0.058473 0.734953
v 0.620803 -0.059421 -0.156310
vn -0.002400 0.991800 -0.128100
vn 0.054100 0.103700 0.993100
vn 0.993300 -0.074900 -0.088300
vn -0.079200 0.394600 -0.915500
vn 0.984700 -0.089900 -0.149400
vn 0.994400 0.069400 -0.079400
vn -0.023100 0.057100 -0.998100
vn -0.998400 0.051700 0.023800
vn 0.022400 0.929700 -0.367700
vn 0.999800 -0.005500 -0.016500
vn -0.015100 0.751400 -0.659700
vn 0.775200 0.017600 -0.631500
vn 0.989800 0.142400 -0.001300
vn 0.049700 -0.034800 0.998200
vn -0.001500 0.759000 -0.651100
vn 0.026100 0.101900 0.994500
vn -0.017100 0.009500 0.999800
vn -0.022800 0.173600 0.984500
vn -0.016300 0.068700 -0.997500
vn -0.007600 0.999800 0.018000
vn 0.134600 0.985100 -0.107000
vn -0.004100 0.109700 0.994000
vn -0.003900 0.095700 -0.995400
vn -0.010100 0.130500 0.991400
vn -0.004900 -0.012400 0.999900
vn -0.018400 0.998800 -0.044300
vn 0.010600 0.052000 0.998600
vn -0.010900 0.012300 0.999900
vn -0.015900 0.999700 0.020000
vn -0.001400 0.999600 0.029000
vn -0.000500 0.057400 -0.998300
vn 0.050500 0.070300 -0.996200
vn 0.013800 0.203700 -0.978900
vn 0.001800 0.613900 0.789400
vn 0.040100 0.999100 -0.017000
vn -0.013700 0.993500 0.113400
vn -0.050100 0.998700 0.006000
vn -0.020300 0.099500 0.994800
vn -0.052400 -0.016900 0.998500
vn 0.003000 0.001100 -1.000000
vn -0.023300 0.075600 -0.996900
vn 0.006500 0.038200 0.999200
vn 0.000500 0.152700 0.988300
vn -0.019200 0.070000 0.997400
vn -0.011600 0.120800 0.992600
vn 0.036500 0.982700 -0.181800
vn 0.020200 0.999700 0.014200
vn 0.005900 1.000000 -0.000700
vn 0.003500 1.000000 0.007300
vn -0.011300 0.048600 -0.998800
vn 0.009200 0.071100 -0.997400
vn 0.006600 -0.100800 -0.994900
vn -0.012100 0.236100 0.971700
vn 0.002300 0.137400 0.990500
vn -0.006400 0.038700 0.999200
vn -0.034900 -0.486800 -0.872800
vn -0.013700 0.999100 0.039400
vn -0.028500 0.999600 0.001800
vn -0.004400 -0.078300 0.996900
vn 0.004100 -0.007200 1.000000
vn -0.021200 0.270000 0.962600
vn -0.001100 0.997600 0.068600
vn 0.025100 0.996700 -0.076600
vn -0.030700 0.999500 -0.009500
vn 0.008600 0.072000 -0.997400
vn 0.000500 0.108000 -0.994200
vn 0.004000 0.933700 0.357900
vn 0.999700 0.020600 0.012300
vn 0.004300 0.999700 0.023800
vn -0.017100 0.156500 -0.987500
vn -0.008300 0.005300 -1.000000
vn -0.990400 0.137900 -0.008600
vn -0.045000 0.138000 -0.989400
vn -0.971000 0.239100 -0.007900
vn 0.988800 0.136400 0.059800
vn 0.024600 0.999400 -0.026100
vn 0.026800 0.999200 -0.030300
vn 0.987000 0.150400 0.056300
vn 0.001800 0.995300 0.096500
vn 0.026900 -0.113300 0.993200
vn 0.022200 0.994500 0.102100
vn -0.030700 0.998500 -0.045000
vn 0.082600 -0.066300 -0.994400
vn -0.041100 0.075900 -0.996300
vn -0.019000 0.257000 -0.966200
vn -0.000800 -0.011500 -0.999900
vn -0.993000 0.114000 0.032200
vn -0.995500 0.091900 0.022400
vn -0.999700 -0.011500 -0.021900
vn 0.994200 -0.027900 0.103600
vn 0.036800 0.041500 0.998500
vn -0.040700 0.038400 0.998400
vn 0.006600 0.028900 0.999600
vn 0.075300 0.997200 0.001300
vn 0.092500 -0.011200 0.995600
vn 0.040200 0.065300 0.997100
vn 0.008000 0.999900 -0.008200
vn 0.998900 0.001300 -0.046600
vn -0.996100 -0.007100 0.087600
vn -0.985300 -0.140000 0.097600
vn -0.963600 0.257800 0.071100
vn 0.655900 -0.041000 0.753800
vn -0.500600 0.073100 0.862600
vn 0.996900 -0.037000 -0.069000
vn 0.004900 0.067100 -0.997700
vn -0.006600 1.000000 0.002700
vn -0.006300 0.994100 -0.107900
vn 0.005400 0.793700 0.608300
vn -0.045500 -0.052600 -0.997600
vn 0.033400 0.083600 0.995900
vn 0.005300 0.871100 0.491100
vn -0.010200 0.137100 -0.990500
vn 0.010900 -0.033000 -0.999400
vn -0.005600 -0.004500 1.000000
vn 0.016400 0.089300 0.995900
vn 0.005900 0.991600 -0.129300
vn 0.000300 0.991400 -0.130900
vn -0.003100 0.914100 -0.405400
vn 0.015700 -0.091900 -0.995600
vn 0.000800 0.066800 -0.997800
vn 0.009800 0.999600 -0.025700
vn 0.002900 0.082600 0.996600
vn 0.004300 -0.115700 0.993300
vn -0.063400 -0.020400 0.997800
vn -0.004400 0.144700 0.989500
vn -0.015100 0.999800 -0.009400
vn 0.009200 0.999900 0.010300
vn -0.010900 0.044000 -0.999000
vn 0.004800 0.180000 -0.983700
vn 0.012000 0.156700 -0.987600
vn -0.052300 0.158300 -0.986000
vn 0.018400 0.975500 0.219300
vn -0.005000 0.993800 0.110900
vn -0.001500 0.041700 0.999100
vn 0.018800 0.053300 0.998400
vn -0.001000 0.030000 -0.999600
vn 0.007200 0.031800 -0.999500
vn 0.041500 -0.014300 -0.999000
vn 0.004000 0.068700 0.997600
vn -0.016100 0.071600 0.997300
vn -0.015500 0.092200 0.995600
vn 0.028000 0.231500 0.972400
vn -0.015400 0.988500 0.150600
vn -0.099500 0.993800 0.049800
vn -0.019600 0.999800 0.008400
vn 0.026800 0.135700 -0.990400
vn -0.004700 0.033100 -0.999400
vn 0.013700 0.032300 -0.999400
vn 0.063800 0.580100 -0.812100
vn 0.051200 -0.228400 0.972200
vn -0.053700 0.386900 0.920500
vn 0.019000 0.064200 -0.997800
vn -0.022700 -0.054200 -0.998300
vn 0.002800 0.023200 -0.999700
vn 0.001700 0.036700 -0.999300
vn 0.041200 -0.152200 -0.987500
vn 0.013300 0.999200 0.038700
vn -0.000100 0.994500 0.104800
vn -0.000800 0.999900 -0.010300
vn 0.003800 0.994400 0.105800
vn -0.001500 0.999300 0.036000
vn 0.000300 0.707100 -0.707100
vn 0.000000 -0.127800 0.991800
vn -0.036800 -0.000400 0.999300
vn -0.088300 0.025000 0.995800
vn 0.014900 0.999200 0.036100
vn -0.010100 0.999900 0.007800
vn 0.000900 0.110800 -0.993800
vn 0.003400 0.084600 -0.996400
vn 0.977000 -0.169500 0.129500
vn 0.207800 -0.081200 0.974800
vn -0.919500 0.004700 0.393000
vn 0.010300 0.612800 0.790200
vn 0.995400 0.092300 0.026000
vn 0.019900 0.999200 0.035000
vn -0.015300 0.176000 -0.984300
vn -0.027900 0.129300 -0.991200
vn -0.997900 -0.016100 -0.062300
vn -0.041800 0.267600 -0.962600
vn -0.997000 -0.029000 -0.072100
vn -0.992700 -0.030700 -0.116700
vn 1.000000 0.000400 -0.009500
vn 0.993700 0.026700 0.108800
vn 0.990600 0.121000 -0.063600
vn 0.003000 0.995100 0.099000
vn -0.000500 0.997600 -0.069400
vn -0.013400 -0.054800 0.998400
vn 0.073500 0.570300 0.818100
vn -0.020500 0.996300 -0.083700
vn -0.997800 0.052800 0.040200
vn -0.999500 0.027800 -0.013700
vn 0.989400 0.143600 0.022900
vn 0.031100 0.007800 0.999500
vn 0.033400 -0.031100 0.999000
vn -0.050200 0.391000 0.919000
vn -0.002800 0.988100 0.153900
s off
f 97//1 43//1 88//1
f 18//2 9//2 134//2
f 146//3 12//3 44//3
f 72//4 11//4 69//4
f 141//5 55//5 56//5
f 142//6 57//6 132//6
f 104//7 45//7 103//7
f 4//8 3//8 98//8
f 44//9 20//9 68//9
f 136//10 8//10 43//10
f 69//11 36//11 19//11
f 44//12 12//12 20//12
f 58//13 33//13 140//13
f 129//14 65//14 66//14
f 69//15 19//15 68//15
f 125//16 71//16 127//16
f 71//17 124//17 127//17
f 124//18 123//18 73//18
f 83//19 84//19 23//19
f 120//20 135//20 34//20
f 86//21 22//21 85//21
f 119//22 25//22 120//22
f 43//23 31//23 88//23
f 30//24 87//24 37//24
f 91//25 93//25 87//25
f 97//26 89//26 115//26
f 112//27 111//27 100//27
f 110//28 99//28 100//28
f 100//29 108//29 107//29
f 100//30 107//30 98//30
f 102//31 113//31 103//31
f 1//32 32//32 33//32
f 33//33 32//33 101//33
f 99//34 108//34 100//34
f 115//35 89//35 116//35
f 115//36 116//36 87//36
f 116//37 5//37 37//37
f 29//38 28//38 93//38
f 42//39 30//39 37//39
f 94//40 89//40 88//40
f 31//41 94//41 88//41
f 118//42 133//42 80//42
f 79//43 82//43 80//43
f 120//44 24//44 79//44
f 48//45 119//45 120//45
f 85//46 22//46 23//46
f 80//47 23//47 79//47
f 79//48 23//48 135//48
f 120//49 34//49 48//49
f 27//50 121//50 22//50
f 22//51 83//51 23//51
f 55//52 22//52 56//52
f 73//53 123//53 18//53
f 127//54 124//54 73//54
f 39//55 127//55 35//55
f 75//56 76//56 69//56
f 127//57 74//57 19//57
f 35//58 19//58 36//58
f 66//59 67//59 63//59
f 66//60 65//60 67//60
f 52//61 129//61 66//61
f 15//62 130//62 66//62
f 130//63 64//63 16//63
f 130//64 16//64 66//64
f 64//65 131//65 16//65
f 17//66 64//66 132//66
f 66//67 63//67 15//67
f 40//68 43//68 41//68
f 134//69 44//69 18//69
f 26//70 138//70 135//70
f 135//71 49//71 34//71
f 38//72 61//72 52//72
f 103//73 45//73 4//73
f 34//74 139//74 48//74
f 13//75 142//75 6//75
f 108//76 140//76 102//76
f 140//77 101//77 102//77
f 133//78 141//78 144//78
f 6//79 142//79 63//79
f 99//80 50//80 140//80
f 133//81 144//81 86//81
f 144//82 22//82 86//82
f 77//83 72//83 69//83
f 69//84 11//84 36//84
f 92//85 7//85 89//85
f 89//86 7//86 5//86
f 11//87 145//87 36//87
f 145//88 35//88 36//88
f 7//89 42//89 5//89
f 10//90 146//90 134//90
f 63//91 13//91 6//91
f 78//92 70//92 18//92
f 96//93 41//93 93//93
f 97//94 41//94 43//94
f 148//95 40//95 41//95
f 18//96 70//96 9//96
f 140//97 33//97 101//97
f 142//98 62//98 57//98
f 139//99 47//99 48//99
f 61//100 51//100 52//100
f 4//101 59//101 3//101
f 134//102 9//102 10//102
f 46//103 48//103 47//103
f 58//104 1//104 33//104
f 131//105 137//105 16//105
f 66//106 16//106 38//106
f 130//107 132//107 64//107
f 80//108 133//108 86//108
f 122//109 27//109 22//109
f 82//110 118//110 80//110
f 115//111 87//111 93//111
f 43//112 60//112 31//112
f 117//113 92//113 89//113
f 91//114 29//114 93//114
f 93//115 90//115 96//115
f 116//116 89//116 5//116
f 97//117 88//117 89//117
f 102//118 103//118 107//118
f 102//119 105//119 113//119
f 113//120 104//120 103//120
f 108//121 102//121 107//121
f 111//122 110//122 100//122
f 110//123 109//123 99//123
f 98//124 3//124 112//124
f 98//125 112//125 100//125
f 98//126 107//126 103//126
f 98//127 103//127 4//127
f 106//128 105//128 102//128
f 101//129 32//129 114//129
f 101//130 114//130 102//130
f 114//131 106//131 102//131
f 115//132 93//132 97//132
f 87//133 116//133 37//133
f 93//134 28//134 90//134
f 87//135 30//135 91//135
f 89//136 95//136 117//136
f 94//137 95//137 89//137
f 43//138 8//138 60//138
f 118//139 81//139 133//139
f 79//140 24//140 82//140
f 120//141 25//141 24//141
f 48//142 46//142 119//142
f 80//143 86//143 85//143
f 80//144 85//144 23//144
f 120//145 79//145 135//145
f 135//146 84//146 26//146
f 23//147 84//147 135//147
f 22//148 121//148 83//148
f 55//149 122//149 22//149
f 123//150 78//150 18//150
f 39//151 125//151 127//151
f 69//152 76//152 126//152
f 69//153 126//153 77//153
f 20//154 75//154 69//154
f 20//155 21//155 75//155
f 20//156 12//156 21//156
f 18//157 68//157 74//157
f 73//158 18//158 74//158
f 74//159 68//159 19//159
f 127//160 73//160 74//160
f 35//161 127//161 19//161
f 20//162 69//162 68//162
f 67//163 128//163 63//163
f 128//164 147//164 63//164
f 52//165 51//165 129//165
f 15//166 63//166 130//166
f 52//167 66//167 38//167
f 64//168 17//168 131//168
f 57//169 17//169 132//169
f 50//170 58//170 140//170
f 133//171 54//171 53//171
f 45//172 2//172 4//172
f 99//173 140//173 108//173
f 40//174 136//174 43//174
f 18//175 44//175 68//175
f 16//176 137//176 38//176
f 38//177 137//177 14//177
f 4//178 2//178 59//178
f 135//179 138//179 49//179
f 38//180 14//180 61//180
f 34//181 49//181 139//181
f 13//182 62//182 142//182
f 133//183 53//183 141//183
f 144//184 141//184 56//184
f 63//185 142//185 130//185
f 130//186 142//186 132//186
f 109//187 143//187 99//187
f 99//188 143//188 50//188
f 144//189 56//189 22//189
f 145//190 39//190 35//190
f 5//191 42//191 37//191
f 134//192 146//192 44//192
f 63//193 147//193 13//193
f 133//194 81//194 54//194
f 96//195 148//195 41//195
f 93//196 41//196 97//196
