# Blender v2.77 (sub 0) OBJ File: 'room1.blend'
# www.blender.org
v -2.851200 0.000000 0.712800
v 1.777332 0.000000 0.712800
v -2.851200 0.000000 -4.168207
v 1.777332 0.000000 -4.168207
v -1.786668 0.000000 0.712800
v -0.361068 0.000000 0.712800
v -1.014859 0.000000 -4.168207
v -2.725580 0.000000 -4.168207
v -0.642303 0.000000 -6.276993
v -2.820620 0.000000 -6.276993
v -0.642303 0.000000 -4.310767
v -2.820620 0.000000 -4.310767
v -1.501548 0.000000 0.712800
v -2.297899 0.000000 -6.276993
v -2.486079 0.000000 -4.310767
v -0.646188 0.000000 0.712800
v -1.442539 0.000000 -6.276993
v -1.254360 0.000000 -4.310767
v 1.777332 2.851200 0.712800
v 1.777332 2.851200 -4.168207
v -1.786668 2.851200 0.712800
v -0.361068 2.851200 0.712800
v -1.014859 2.851200 -4.168207
v -2.725580 2.851200 -4.168207
v -0.642303 2.851200 -6.276993
v -2.820620 2.851200 -6.276993
v -0.642303 2.851200 -4.310767
v -2.820620 2.851200 -4.310767
v -1.501548 2.851200 0.712800
v -2.486079 2.851200 -4.168207
v -2.297899 2.851200 -6.276993
v -2.486079 2.851200 -4.310767
v -0.646188 2.851200 0.712800
v -1.254360 2.851200 -4.168207
v -1.442539 2.851200 -6.276993
v -1.254360 2.851200 -4.310767
v -2.851200 2.851200 -1.710720
v -2.851200 0.855360 0.712800
v -2.851200 1.995840 0.712800
v -2.851200 1.995840 -4.168207
v -2.851200 2.851200 -2.566081
v -2.851200 0.000000 -1.710720
v -2.851200 0.000000 -1.140480
v -2.851200 0.000000 -0.285120
v -2.851200 2.851200 0.712800
v -2.851200 0.000000 -2.566081
v -2.851200 2.851200 -4.168207
v -2.851200 2.851200 -0.285120
v -2.851200 2.851200 -1.140480
v -2.851200 2.122719 -1.767744
v -2.851200 0.855360 -4.168207
v -2.851200 0.754142 -1.767744
v -2.851200 0.754142 -1.083456
v -2.851200 2.122719 -1.083456
v -2.851200 0.754142 -0.057024
v -2.851200 2.122719 -0.057024
v -2.851200 0.727056 0.712800
v -2.851200 0.600178 -2.794177
v -2.851200 0.600178 -1.083456
v -2.851200 0.600178 -1.767744
v -2.851200 0.600178 -0.057024
v -2.851200 0.727056 -4.168207
v -2.588722 0.071280 -4.168207
v -1.572828 0.071280 0.712800
v -1.572828 2.280960 0.712800
v -2.588722 2.235562 -4.168207
v -1.572828 2.851200 0.712800
v -2.588722 2.851200 -4.168207
v -1.442539 2.235562 -6.276993
v -0.642303 2.235562 -6.276993
v 1.777332 2.280960 0.712800
v -0.361068 2.280960 0.712800
v -2.297899 2.235562 -6.276993
v -0.642303 2.235562 -4.310767
v -1.254360 2.235562 -4.310767
v 1.777332 2.235562 -4.168207
v -2.820620 2.235562 -6.276993
v -2.725580 2.235562 -4.168207
v -2.486079 2.235562 -4.310767
v -1.786668 2.280960 0.712800
v -2.820620 2.235562 -4.310767
v -0.646188 2.280960 0.712800
v -1.014859 2.235562 -4.168207
v -1.501548 2.280960 0.712800
v -1.254360 0.071280 -4.310767
v -2.486079 0.071280 -4.310767
v -2.851200 0.071280 -4.168207
v -1.572828 0.000000 0.712800
v -2.851200 0.071280 -2.566080
v -2.851200 0.071280 -1.140480
v -2.851200 0.071280 -1.710720
v -2.851200 0.071280 -0.285120
v -1.442539 0.071280 -6.276993
v -2.297899 0.071280 -6.276993
v -0.642303 0.071280 -4.310767
v -2.820620 0.071280 -6.276993
v -2.820620 0.071280 -4.310767
v -0.642303 0.071280 -6.276993
v 1.777332 0.071280 0.712800
v 1.777332 0.071280 -4.168207
v -1.786668 0.071280 0.712800
v -1.014859 0.071280 -4.168207
v -0.361068 0.071280 0.712800
v -0.646188 0.071280 0.712800
v -1.501548 0.071280 0.712800
v -1.425600 0.000000 0.712800
v -2.588722 0.000000 -4.168207
v -2.851200 0.071280 0.712800
v -2.725580 0.071280 -4.168207
v -0.574908 0.000000 0.712800
v -1.151717 0.000000 -4.168207
v -0.574908 2.851200 0.712800
v -1.151717 2.851200 -4.168207
v -1.151717 2.235562 -4.168207
v -0.574908 2.280960 0.712800
v -0.574908 0.071280 0.712800
v -1.151717 0.071280 -4.168207
v -0.361068 2.423520 0.712800
v -1.254360 2.389471 -4.168207
v -2.725580 2.389471 -4.168207
v -0.646188 2.423520 0.712800
v -1.501548 2.423520 0.712800
v -1.572828 2.423520 0.712800
v -2.588722 2.389471 -4.168207
v 1.777332 2.423520 0.712800
v 1.777332 2.389471 -4.168207
v -2.486079 2.389471 -4.168207
v -1.786668 2.423520 0.712800
v -1.014859 2.389471 -4.168207
v -1.151717 2.389471 -4.168207
v -0.574908 2.423520 0.712800
v -2.851200 0.791208 0.712800
v -2.851200 0.791208 -4.168207
v -2.851200 0.677160 -1.767744
v -2.851200 0.677160 -0.057024
v -2.851200 0.677160 -1.083456
v -2.851200 0.677160 -2.794177
v -3.084575 0.795757 -0.098639
v -3.084575 0.795757 -1.041841
v -3.084575 2.081104 -1.041841
v -3.084575 2.081104 -0.098639
v -3.084575 0.795757 -1.809359
v -3.084575 0.795757 -2.752562
v -3.084575 2.081104 -2.752562
v -3.084575 2.081104 -1.809359
v 1.777485 0.000000 -1.433908
v 1.777485 0.000000 -3.144628
v 1.777485 2.851200 -1.433908
v 1.777485 2.851200 -3.144628
v 1.777485 2.851200 -2.905127
v 1.777485 2.851200 -1.673409
v 1.777485 0.071280 -3.007770
v 1.777485 2.235562 -3.007771
v 1.777485 2.851200 -3.007771
v 1.777485 2.235562 -3.144628
v 1.777485 2.235562 -1.433908
v 1.777485 0.071280 -1.433908
v 1.777485 0.000000 -3.007771
v 1.777485 0.071280 -3.144628
v 1.777485 0.000000 -1.570765
v 1.777485 2.851200 -1.570765
v 1.777485 2.235562 -1.570765
v 1.777485 0.071280 -1.570765
v 1.777485 2.389471 -1.673409
v 1.777485 2.389471 -3.144628
v 1.777485 2.389471 -3.007771
v 1.777485 2.389471 -2.905127
v 1.777485 2.389471 -1.433908
v 1.777485 2.389471 -1.570765
v -2.851200 2.122719 -2.794176
v -2.851200 0.754142 -2.794176
v -0.642303 0.000000 -6.276993
v -0.642303 0.000000 -4.310767
v -0.642303 2.851200 -6.276993
v -0.642303 2.851200 -4.310767
v -0.642303 2.235562 -6.276993
v -0.642303 2.235562 -4.310767
v -0.642303 0.071280 -4.310767
v -0.642303 0.071280 -6.276993
v -3.084575 -0.101067 0.989377
v -3.084575 -0.101067 -1.041841
v -3.084575 -0.101067 -1.809359
v -3.084575 -0.101067 -6.482091
v -3.084575 2.981104 -1.041841
v -3.084575 2.981104 0.989377
v -3.084575 2.981104 -6.482091
v -3.084575 2.981104 -1.809359
v 2.023832 2.981104 -1.041841
v 2.023832 2.981104 0.989377
v 2.023832 2.981104 -6.482091
v 2.023832 2.981104 -1.809359
v 2.023832 -0.074012 -1.041841
v 2.023832 -0.074012 0.989377
v 2.023832 -0.074012 -6.482091
v 2.023832 -0.074012 -1.809359
vn 0.000000 0.000000 1.000000
vn 0.000000 0.000000 -1.000000
vn 1.000000 0.000000 0.000000
vn -1.000000 0.000000 0.000000
vn -1.000000 0.000000 -0.000100
vn -1.000000 0.000000 0.000100
vn 0.000000 1.000000 0.000000
s off
f 69//1 70//1 25//1 35//1
f 125//2 118//2 22//2 19//2
f 73//1 69//1 35//1 31//1
f 74//2 75//2 36//2 27//2
f 77//1 73//1 31//1 26//1
f 32//2 36//2 75//2 79//2
f 3//1 8//1 109//1 87//1
f 5//2 106//2 108//2 101//2
f 81//3 77//3 26//3 28//3
f 131//2 121//2 33//2 112//2
f 79//2 81//2 28//2 32//2
f 129//1 126//1 20//1 23//1
f 121//2 122//2 29//2 33//2
f 123//2 128//2 21//2 67//2
f 124//1 127//1 30//1 68//1
f 130//1 129//1 23//1 113//1
f 170//3 40//3 47//3 41//3
f 56//3 54//3 49//3 48//3
f 137//3 133//3 51//3 171//3
f 171//3 51//3 40//3 170//3
f 50//3 170//3 41//3 37//3
f 53//3 52//3 50//3 54//3
f 136//3 134//3 52//3 53//3
f 54//3 50//3 37//3 49//3
f 38//3 55//3 56//3 39//3
f 132//3 135//3 55//3 38//3
f 39//3 56//3 48//3 45//3
f 108//3 92//3 61//3 57//3
f 90//3 91//3 60//3 59//3
f 91//3 89//3 58//3 60//3
f 89//3 87//3 62//3 58//3
f 92//3 90//3 59//3 61//3
f 122//2 123//2 67//2 29//2
f 120//1 124//1 68//1 24//1
f 109//1 63//1 66//1 78//1
f 105//2 64//2 65//2 84//2
f 13//2 88//2 64//2 105//2
f 8//1 107//1 63//1 109//1
f 117//1 102//1 83//1 114//1
f 64//2 101//2 80//2 65//2
f 104//2 105//2 84//2 82//2
f 102//1 100//1 76//1 83//1
f 86//2 97//2 81//2 79//2
f 116//2 104//2 82//2 115//2
f 97//3 96//3 77//3 81//3
f 96//1 94//1 73//1 77//1
f 95//2 85//2 75//2 74//2
f 94//1 93//1 69//1 73//1
f 99//2 103//2 72//2 71//2
f 93//1 98//1 70//1 69//1
f 119//1 34//1 30//1 127//1
f 87//1 109//1 78//1 120//1 24//1 47//1 40//1 51//1 133//1 62//1
f 44//3 43//3 90//3 92//3
f 46//3 3//3 87//3 89//3
f 42//3 46//3 89//3 91//3
f 43//3 42//3 91//3 90//3
f 1//3 44//3 92//3 108//3
f 17//1 9//1 98//1 93//1
f 14//1 17//1 93//1 94//1
f 11//2 18//2 85//2 95//2
f 10//1 14//1 94//1 96//1
f 12//3 10//3 96//3 97//3
f 15//2 12//2 97//2 86//2
f 2//2 6//2 103//2 99//2
f 110//2 16//2 104//2 116//2
f 7//1 4//1 100//1 102//1
f 16//2 13//2 105//2 104//2
f 88//2 5//2 101//2 64//2
f 111//1 7//1 102//1 117//1
f 101//2 108//2 45//2 21//2 128//2 80//2
f 45//1 108//1 57//1 132//1 38//1 39//1
f 108//2 106//2 1//2
f 6//2 110//2 116//2 103//2
f 103//2 116//2 115//2 72//2
f 119//1 130//1 113//1 34//1
f 118//2 131//2 112//2 22//2
f 72//2 115//2 131//2 118//2
f 78//1 66//1 124//1 120//1
f 84//2 65//2 123//2 122//2
f 114//1 83//1 129//1 130//1
f 65//2 80//2 128//2 123//2
f 82//2 84//2 122//2 121//2
f 83//1 76//1 126//1 129//1
f 115//2 82//2 121//2 131//2
f 71//2 72//2 118//2 125//2
f 57//3 61//3 135//3 132//3
f 59//3 60//3 134//3 136//3
f 58//3 62//3 133//3 137//3
f 166//4 167//4 150//4 154//4
f 169//4 168//4 148//4 161//4
f 165//4 166//4 154//4 149//4
f 159//4 152//4 153//4 155//4
f 147//4 158//4 152//4 159//4
f 163//4 157//4 156//4 162//4
f 164//4 151//4 150//4 167//4
f 160//4 146//4 157//4 163//4
f 164//4 169//4 161//4 151//4
f 155//4 153//4 166//4 165//4
f 162//4 156//4 168//4 169//4
f 2//5 99//5 157//5 146//5
f 99//5 71//5 156//5 157//5
f 71//5 125//5 168//5 156//5
f 125//5 19//5 148//5 168//5
f 147//6 159//6 100//6 4//6
f 76//6 100//6 159//6 155//6
f 126//6 76//6 155//6 165//6
f 20//6 126//6 165//6 149//6
f 176//4 177//4 175//4 174//4
f 179//4 178//4 177//4 176//4
f 172//4 173//4 178//4 179//4
f 142//4 139//4 140//4 145//4
f 139//4 142//4 182//4 181//4
f 138//4 139//4 181//4 180//4
f 142//4 143//4 183//4 182//4
f 145//4 140//4 184//4 187//4
f 144//4 145//4 187//4 186//4
f 140//4 141//4 185//4 184//4
f 187//7 184//7 188//7 191//7
f 186//7 187//7 191//7 190//7
f 184//7 185//7 189//7 188//7
f 191//3 188//3 192//3 195//3
f 190//3 191//3 195//3 194//3
f 188//3 189//3 193//3 192//3
f 189//1 185//1 180//1 193//1
f 141//4 138//4 180//4 185//4
f 190//2 194//2 183//2 186//2
f 144//4 186//4 183//4 143//4
