# Blender v2.77 (sub 0) OBJ File: 'room1.blend'
# www.blender.org
v -2.486079 0.000000 -4.168207
v -2.486079 0.000000 -4.310767
v -1.254360 0.000000 -4.168207
v -1.254360 0.000000 -4.310767
v -2.588722 0.071280 -4.168207
v -2.588722 2.235562 -4.168207
v -1.254360 2.235562 -4.310767
v -1.254360 2.235562 -4.168207
v -2.486079 2.235562 -4.168207
v -2.486079 2.235562 -4.310767
v -1.254360 0.071280 -4.168207
v -2.486079 0.071280 -4.168207
v -1.254360 0.071280 -4.310767
v -2.486079 0.071280 -4.310767
v -2.588722 0.000000 -4.168207
v -1.151717 0.000000 -4.168207
v -1.151717 2.235562 -4.168207
v -1.151717 0.071280 -4.168207
v -1.254360 2.389471 -4.168207
v -2.588722 2.389471 -4.168207
v -2.486079 2.389471 -4.168207
v -1.151717 2.389471 -4.168207
v -1.151717 0.000000 -4.140541
v -1.254360 0.000000 -4.140541
v -2.588722 0.071280 -4.140541
v -2.588722 2.235562 -4.140541
v -2.588722 0.000000 -4.140541
v -2.486079 0.071280 -4.140541
v -2.486079 2.389471 -4.140541
v -2.486079 2.235562 -4.140541
v -1.151717 2.235562 -4.140541
v -1.254360 2.235562 -4.140541
v -1.254360 0.071280 -4.140541
v -2.486079 0.000000 -4.140541
v -1.151717 0.071280 -4.140541
v -1.254360 2.389471 -4.140541
v -2.588722 2.389471 -4.140541
v -1.151717 2.389471 -4.140541
v 1.777485 0.000000 -1.673409
v 1.777485 0.000000 -2.905127
v 1.777485 0.071280 -3.007770
v 1.777485 2.235562 -3.007771
v 1.873295 2.235562 -1.673409
v 1.777485 2.235562 -1.673409
v 1.777485 2.235562 -2.905127
v 1.873295 2.235562 -2.905127
v 1.777485 0.071280 -1.673409
v 1.777485 0.071280 -2.905127
v 1.873295 0.071280 -1.673409
v 1.873295 0.071280 -2.905127
v 1.777485 0.000000 -3.007771
v 1.777485 0.000000 -1.570765
v 1.777485 2.235562 -1.570765
v 1.777485 0.071280 -1.570765
v 1.777485 2.389471 -1.673409
v 1.777485 2.389471 -3.007771
v 1.777485 2.389471 -2.905127
v 1.777485 2.389471 -1.570765
v 1.749819 0.000000 -1.570765
v 1.749819 0.000000 -1.673409
v 1.749819 0.071280 -3.007770
v 1.749819 2.235562 -3.007771
v 1.749819 0.000000 -3.007771
v 1.749819 0.071280 -2.905127
v 1.749819 2.389471 -2.905127
v 1.749819 2.235562 -2.905127
v 1.749819 2.235562 -1.570765
v 1.749819 2.235562 -1.673409
v 1.749819 0.071280 -1.673409
v 1.749819 0.000000 -2.905127
v 1.749819 0.071280 -1.570765
v 1.749819 2.389471 -1.673409
v 1.749819 2.389471 -3.007771
v 1.749819 2.389471 -1.570765
vn 0.000000 0.000000 -1.000000
vn 0.000000 -1.000000 0.000000
vn 1.000000 0.000000 0.000000
vn 0.000000 1.000000 0.000000
vn 0.000000 0.000000 1.000000
vn -1.000000 0.000000 0.000000
s off
f 4//1 2//1 14//1 13//1
f 7//2 8//2 9//2 10//2
f 17//3 22//3 38//3 31//3
f 12//4 11//4 13//4 14//4
f 1//5 3//5 11//5 12//5
f 9//2 8//2 32//2 30//2
f 8//6 11//6 33//6 32//6
f 6//6 5//6 25//6 26//6
f 18//3 17//3 31//3 35//3
f 19//4 21//4 29//4 36//4
f 16//3 18//3 35//3 23//3
f 43//2 44//2 45//2 46//2
f 25//5 28//5 30//5 26//5
f 27//5 34//5 28//5 25//5
f 24//5 23//5 35//5 33//5
f 33//5 35//5 31//5 32//5
f 32//5 31//5 38//5 36//5
f 32//5 36//5 29//5 30//5
f 26//5 30//5 29//5 37//5
f 11//6 3//6 24//6 33//6
f 12//3 9//3 30//3 28//3
f 21//4 20//4 37//4 29//4
f 1//3 12//3 28//3 34//3
f 20//6 6//6 26//6 37//6
f 22//4 19//4 36//4 38//4
f 5//6 15//6 27//6 25//6
f 10//3 9//3 12//3 14//3
f 7//6 13//6 11//6 8//6
f 53//5 58//5 74//5 67//5
f 48//4 47//4 49//4 50//4
f 40//6 39//6 47//6 48//6
f 45//2 44//2 68//2 66//2
f 44//1 47//1 69//1 68//1
f 42//1 41//1 61//1 62//1
f 54//5 53//5 67//5 71//5
f 55//4 57//4 65//4 72//4
f 52//5 54//5 71//5 59//5
f 61//6 64//6 66//6 62//6
f 63//6 70//6 64//6 61//6
f 60//6 59//6 71//6 69//6
f 69//6 71//6 67//6 68//6
f 68//6 67//6 74//6 72//6
f 68//6 72//6 65//6 66//6
f 62//6 66//6 65//6 73//6
f 47//1 39//1 60//1 69//1
f 48//5 45//5 66//5 64//5
f 57//4 56//4 73//4 65//4
f 40//5 48//5 64//5 70//5
f 56//1 42//1 62//1 73//1
f 58//4 55//4 72//4 74//4
f 41//1 51//1 63//1 61//1
f 46//5 45//5 48//5 50//5
f 43//1 49//1 47//1 44//1
