# Blender v2.77 (sub 0) OBJ File: 'room1.blend'
# www.blender.org
v -0.254218 0.020272 0.109899
v -0.237742 0.123462 0.109899
v -0.254218 0.020272 -0.109899
v -0.237742 0.123462 -0.109899
v 0.254218 0.020272 0.109899
v 0.237742 0.123462 0.109899
v 0.254218 0.020272 -0.109899
v 0.237742 0.123462 -0.109899
v -0.136606 0.123462 -0.109899
v 0.136606 0.123462 -0.109899
v 0.084739 0.020272 -0.109899
v -0.084739 0.020272 -0.109899
v 0.136606 0.123462 0.109899
v -0.136606 0.123462 0.109899
v -0.084739 0.020272 0.109899
v 0.084739 0.020272 0.109899
v -0.098446 0.227280 -0.079319
v 0.098446 0.227280 -0.079319
v 0.098446 0.227280 0.079319
v -0.098446 0.227280 0.079319
vn -0.987500 0.157700 0.000000
vn 0.000000 0.000000 -1.000000
vn 0.987500 0.157700 0.000000
vn 0.000000 0.000000 1.000000
vn 0.000000 -1.000000 0.000000
vn 0.000000 1.000000 0.000000
vn 0.938600 0.345000 0.000000
vn -0.938600 0.345000 0.000000
vn 0.000000 0.282600 0.959300
vn 0.000000 0.282600 -0.959300
s off
f 2//1 4//1 3//1 1//1
f 10//2 8//2 7//2 11//2
f 8//3 6//3 5//3 7//3
f 14//4 2//4 1//4 15//4
f 16//5 11//5 7//5 5//5
f 14//6 9//6 4//6 2//6
f 6//6 8//6 10//6 13//6
f 13//7 10//7 18//7 19//7
f 1//5 3//5 12//5 15//5
f 15//5 12//5 11//5 16//5
f 6//4 13//4 16//4 5//4
f 13//4 14//4 15//4 16//4
f 4//2 9//2 12//2 3//2
f 9//2 10//2 11//2 12//2
f 19//6 18//6 17//6 20//6
f 9//8 14//8 20//8 17//8
f 14//9 13//9 19//9 20//9
f 10//10 9//10 17//10 18//10
