# Blender v2.77 (sub 0) OBJ File: 'room1.blend'
# www.blender.org
v -1.740991 0.941290 0.013067
v -1.740991 0.954807 0.072287
v -1.740991 0.916934 0.119779
v -1.740991 0.856190 0.119779
v -1.740991 0.818317 0.072287
v -1.740991 0.831834 0.013067
v -1.740991 0.886562 -0.013289
v -1.750991 0.831834 0.013067
v -1.750991 0.886562 -0.013289
v -1.750991 0.856190 0.119779
v -1.750991 0.818317 0.072287
v -1.750991 0.954807 0.072287
v -1.750991 0.916934 0.119779
v -1.750991 0.941290 0.013067
vn 1.000000 -0.000000 0.000000
vn 0.000000 -0.433900 -0.901000
vn 0.000000 -0.781800 0.623500
vn 0.000000 0.781800 0.623500
vn 0.000000 0.433900 -0.901000
vn 0.000000 -0.974900 -0.222500
vn 0.000000 -0.000000 1.000000
vn 0.000000 0.974900 -0.222500
s 1
f 1//1 2//1 3//1 4//1 5//1 6//1 7//1
f 8//2 9//2 7//2 6//2
f 10//3 11//3 5//3 4//3
f 12//4 13//4 3//4 2//4
f 9//5 14//5 1//5 7//5
f 11//6 8//6 6//6 5//6
f 13//7 10//7 4//7 3//7
f 14//8 12//8 2//8 1//8
