# Blender v2.77 (sub 0) OBJ File: 'room1.blend'
# www.blender.org
v -1.738293 0.902140 0.019912
v -1.738126 0.924901 0.098037
v -1.738240 0.866372 0.075618
v -1.737622 0.839400 0.049254
v -1.745173 0.878008 0.052171
v -1.745119 0.883884 0.059425
v -1.738095 0.891112 0.045899
v -1.735332 0.892035 0.070340
v -1.735515 0.871845 0.063452
v -1.735859 0.872013 0.042707
v -1.735699 0.892187 0.035976
v -1.749624 0.892098 0.070371
v -1.738127 0.840585 0.063678
v -1.738531 0.883428 0.045454
v -1.744975 0.887320 0.016403
v -1.744939 0.882988 0.060989
v -1.744990 0.879989 0.054963
v -1.735486 0.904810 0.052973
v -1.749918 0.904755 0.053297
v -1.749692 0.871889 0.063533
v -1.749868 0.892255 0.035955
v -1.750082 0.872016 0.042524
v -1.745029 0.881361 0.048970
v -1.745384 0.905074 0.060423
v -1.745062 0.840535 0.063337
v -1.738539 0.883519 0.058740
v -1.738442 0.878044 0.052245
v -1.737629 0.879236 0.082501
v -1.737711 0.887838 0.016602
v -1.737860 0.934669 0.086728
v -1.738276 0.877447 0.030838
v -1.738104 0.895032 0.052836
v -1.737792 0.907455 0.082559
v -1.738204 0.883083 0.060898
v -1.745045 0.883005 0.061043
v -1.738304 0.866812 0.040325
v -1.745114 0.890953 0.045955
v -1.745186 0.866617 0.040479
v -1.745072 0.839156 0.049052
v -1.744854 0.902169 0.019747
v -1.745009 0.895224 0.052536
v -1.744518 0.895297 0.071385
v -1.744748 0.878803 0.082464
v -1.745171 0.934505 0.087095
v -1.744655 0.862796 0.061659
v -1.738395 0.890678 0.058762
v -1.738250 0.881121 0.048521
v -1.738247 0.892989 0.051083
v -1.744967 0.866911 0.076183
v -1.745513 0.870750 0.068302
v -1.745147 0.890387 0.058735
v -1.745186 0.924317 0.098338
v -1.738357 0.879497 0.054925
v -1.745184 0.877448 0.030998
v -1.745276 0.883295 0.045328
v -1.745089 0.892823 0.050985
vn 0.999800 -0.006200 -0.016600
vn -0.000200 -1.000000 -0.006100
vn 0.004400 -0.320500 0.947200
vn 0.012100 -0.316600 -0.948500
vn 0.999900 -0.004800 -0.012400
vn 0.999900 -0.009700 -0.005300
vn 0.019500 -0.645500 0.763500
vn 1.000000 0.000600 -0.008400
vn 0.030400 -0.996100 0.082900
vn 0.084000 0.114600 0.989900
vn 0.108800 0.107100 0.988300
vn -0.032600 0.740700 0.671100
vn 0.075100 -0.976100 -0.204100
vn 0.036700 -0.467300 0.883300
vn 0.000600 -0.713000 -0.701100
vn -0.016100 0.458400 -0.888600
vn 0.007300 0.468400 -0.883500
vn -0.000700 0.978300 0.207200
vn 0.020300 -0.084000 -0.996300
vn 1.000000 0.000400 0.003300
vn -0.052300 -0.754000 0.654800
vn 0.055200 -0.248800 0.967000
vn -0.056800 0.896800 0.438800
vn -0.057900 -0.899100 -0.433900
vn -0.049500 0.076000 0.995900
vn -0.052200 0.670800 -0.739800
vn 0.999300 0.013500 0.033900
vn 0.010300 0.803400 0.595400
vn 0.004800 0.805600 0.592500
vn -0.003100 -1.000000 -0.008000
vn 0.004700 0.802800 -0.596200
vn -0.016200 0.811100 -0.584700
vn 0.000600 -0.322900 0.946400
vn -0.000100 -0.308700 -0.951200
vn -0.007500 0.613700 0.789500
vn 0.029900 -0.085400 -0.995900
vn 0.017900 0.977300 0.210900
vn -0.042200 -0.663400 0.747100
vn 0.024200 -0.472500 0.881000
vn 0.015800 0.756500 0.653800
vn 0.010500 0.225900 -0.974100
vn 0.999800 0.020700 0.000500
vn 0.999900 -0.006800 -0.011300
vn 0.999900 -0.008200 -0.007500
vn 0.002500 -0.995400 0.096100
vn 0.103900 0.645800 -0.756400
vn -0.003400 0.610200 -0.792200
vn -0.046800 -0.982600 -0.179900
vn -0.108600 -0.889700 -0.443400
vn -0.040400 0.899600 0.434900
vn 0.086500 -0.660200 0.746100
vn 0.012300 -0.680300 0.732800
vn -0.019700 0.999800 -0.006800
vn 0.999800 -0.018700 0.004900
vn -0.022100 0.740600 -0.671600
vn -0.015500 0.742200 -0.670000
vn -0.017300 -0.665600 -0.746100
vn 0.001800 -0.658700 -0.752400
vn 0.051600 0.634300 0.771300
vn 0.036000 -0.734500 0.677600
vn 0.051000 0.997800 -0.042300
vn -0.049600 -0.295400 0.954100
vn 0.027200 -0.703500 -0.710200
vn 0.009400 -0.912000 -0.410100
vn 0.025500 0.219400 -0.975300
vn 0.998800 -0.024000 -0.043800
vn 0.999100 0.035000 0.024300
vn 0.999800 0.005100 -0.016800
vn 0.999700 -0.001000 0.022600
s off
f 9//1 10//1 18//1
f 10//2 20//2 22//2
f 9//3 12//3 20//3
f 10//4 22//4 11//4
f 18//5 8//5 9//5
f 10//6 11//6 18//6
f 34//7 42//7 16//7
f 27//8 46//8 3//8
f 13//9 39//9 4//9
f 13//10 26//10 45//10
f 6//11 45//11 26//11
f 44//12 52//12 2//12
f 47//13 15//13 29//13
f 43//14 49//14 3//14
f 34//15 16//15 56//15
f 27//16 51//16 46//16
f 27//17 5//17 51//17
f 1//18 40//18 41//18
f 14//19 39//19 55//19
f 53//20 36//20 31//20
f 36//21 53//21 17//21
f 47//22 41//22 23//22
f 28//23 51//23 43//23
f 49//24 50//24 27//24
f 13//25 45//25 25//25
f 30//26 24//26 44//26
f 4//27 26//27 13//27
f 19//28 12//28 18//28
f 18//29 12//29 8//29
f 9//30 20//30 10//30
f 11//31 21//31 18//31
f 21//32 19//32 18//32
f 8//33 12//33 9//33
f 22//34 21//34 11//34
f 7//35 37//35 53//35
f 39//36 14//36 4//36
f 1//37 41//37 32//37
f 33//38 42//38 34//38
f 28//39 43//39 3//39
f 30//40 44//40 2//40
f 29//41 15//41 1//41
f 14//42 26//42 4//42
f 34//43 48//43 33//43
f 32//44 47//44 1//44
f 25//45 39//45 13//45
f 24//46 30//46 48//46
f 48//47 56//47 24//47
f 23//48 15//48 47//48
f 49//49 27//49 3//49
f 46//50 51//50 28//50
f 2//51 52//51 33//51
f 52//52 42//52 33//52
f 55//53 26//53 14//53
f 7//54 53//54 31//54
f 37//55 7//55 31//55
f 31//56 54//56 37//56
f 54//57 31//57 36//57
f 36//58 38//58 54//58
f 37//59 17//59 53//59
f 17//60 38//60 36//60
f 55//61 6//61 26//61
f 32//62 41//62 47//62
f 34//63 56//63 48//63
f 50//64 5//64 27//64
f 15//65 40//65 1//65
f 46//66 28//66 3//66
f 1//67 47//67 29//67
f 33//68 48//68 30//68
f 33//69 30//69 2//69
