# Blender v2.77 (sub 0) OBJ File: 'room1.blend'
# www.blender.org
v 1.846785 2.244546 -1.664490
v 1.846785 2.244546 -2.914096
v 1.846785 0.062565 -1.664490
v 1.846785 0.062565 -2.914096
v 1.846838 2.244669 -2.290146
v 1.846862 0.062478 -2.290710
v 1.829027 2.044438 -2.359919
v 1.828632 2.221219 -2.265731
v 1.829140 0.270778 -2.757628
v 1.847027 1.200373 -2.914116
v 1.847099 1.202808 -1.664525
v 1.842838 2.015817 -2.726843
v 1.843003 0.304227 -2.391496
v 1.842737 2.015863 -1.864613
v 1.842905 0.304176 -2.189089
v 1.842905 0.304175 -1.864675
v 1.842737 1.327613 -1.864613
v 1.842838 1.327660 -2.726842
v 1.843004 1.043844 -2.391496
v 1.843004 1.043844 -2.726777
v 1.842838 1.327660 -2.391430
v 1.842837 2.015814 -2.391430
v 1.842736 2.015862 -2.189152
v 1.842736 1.327612 -2.189150
v 1.842906 1.043896 -1.864676
v 1.842905 1.043894 -2.189087
v 1.843004 0.304227 -2.726777
v 1.828958 1.155563 -1.695549
v 1.825964 0.091806 -2.882519
v 1.825944 2.217753 -2.882628
v 1.828957 1.149349 -2.886910
v 1.830233 1.671737 -2.352090
v 1.830700 1.671739 -2.226265
v 1.827240 2.053600 -2.224082
v 1.825767 0.089182 -1.701055
v 1.825768 2.220273 -1.700882
v 1.837477 0.564556 -2.917329
v 1.831021 1.669602 -1.828262
v 1.841734 0.061002 -1.942261
v 1.831005 1.669690 -2.764420
v 1.828155 1.292285 -2.359104
v 1.828823 1.294077 -2.218523
v 1.841526 0.060769 -2.636347
v 1.830342 0.674037 -2.352081
v 1.830808 0.674035 -2.226290
v 1.828570 0.683178 -1.822748
v 1.831119 0.676057 -2.764457
v 1.827771 1.295430 -2.765561
v 1.829146 1.078991 -1.836102
v 1.828476 1.076484 -2.221017
v 1.852661 2.014668 -2.559136
v 1.852665 0.305683 -2.026882
v 1.829148 0.270820 -1.834956
v 1.829163 1.078987 -2.756361
v 1.829388 2.047834 -1.836814
v 1.828505 0.271708 -2.220948
v 1.829173 2.046832 -2.757481
v 1.827821 1.295505 -1.827600
v 1.828941 1.075066 -2.359666
v 1.829009 0.273287 -2.359840
v 1.856803 1.671739 -2.728218
v 1.856802 1.671736 -2.390054
v 1.849637 1.327481 -2.559137
v 1.849510 1.327415 -2.026881
v 1.856749 1.671737 -1.863094
v 1.856748 1.671739 -2.190670
v 1.849510 2.016061 -2.026882
v 1.857124 0.674036 -2.190558
v 1.849602 1.043933 -2.026881
v 1.857124 0.674035 -1.863205
v 1.857169 0.674034 -2.390174
v 1.849724 1.043858 -2.559136
v 1.857169 0.674035 -2.728100
v 1.837932 1.777035 -2.917352
v 1.820741 1.761332 -2.887336
v 1.820853 0.583235 -2.887335
v 1.820924 0.579048 -1.694195
v 1.827559 0.089505 -2.402645
v 1.825351 0.178295 -2.369938
v 1.841309 2.246466 -2.636284
v 1.841534 2.246204 -1.942299
v 1.845274 0.300784 -2.559137
v 1.839740 0.294793 -2.026882
v 1.839712 2.024700 -2.559134
v 1.866925 1.671738 -2.559136
v 1.866941 1.671738 -2.026882
v 1.866960 0.674035 -2.026882
v 1.866935 0.674035 -2.559136
v 1.838510 1.776921 -1.661607
v 1.838077 0.564826 -1.661611
v 1.820589 1.761665 -1.695388
v 1.823730 2.220152 -2.615587
vn -0.999600 -0.028700 -0.003300
vn -1.000000 0.005800 0.003700
vn -0.999700 -0.025100 0.005200
vn -0.996900 0.006200 0.078600
vn -0.863900 -0.016500 -0.503400
vn -0.996000 0.008300 0.089400
vn -1.000000 0.005000 0.003700
vn -0.997600 0.038400 -0.057700
vn -0.997500 0.038600 -0.059900
vn -0.997200 0.040900 -0.062100
vn -0.997400 0.040700 -0.059700
vn -0.644000 0.764400 -0.031600
vn -0.612200 -0.790100 0.030400
vn -0.814800 0.035400 0.578600
vn -0.818800 -0.035500 -0.573000
vn -0.934800 0.353000 -0.038300
vn -0.755300 0.654500 -0.032300
vn -0.802800 -0.035300 -0.595200
vn -0.806500 0.035400 0.590200
vn -0.746800 -0.664300 0.032000
vn -0.804700 0.033300 0.592700
vn -0.777000 -0.628700 0.032200
vn -0.820100 -0.033800 -0.571200
vn -0.817100 -0.033400 -0.575500
vn -0.940200 -0.338500 0.037700
vn -0.811600 0.033200 0.583300
vn -0.878200 -0.013800 -0.478100
vn -0.997700 -0.008900 -0.066600
vn -0.825500 0.564200 0.016100
vn -0.999300 0.038500 -0.000600
vn -0.999700 -0.026000 0.003200
vn -0.999200 0.038800 -0.003200
vn -0.800400 0.599200 -0.019900
vn -1.000000 -0.001200 0.007400
vn -0.994700 -0.002000 -0.103200
vn -0.769300 0.638600 0.018400
vn -0.868900 0.495000 -0.003600
vn -0.999500 0.031000 0.001700
vn -0.846000 0.015400 -0.533000
vn -0.911400 -0.012700 0.411300
vn -0.913500 -0.406800 -0.004500
vn -0.918400 0.010700 -0.395500
vn -0.930000 0.366900 0.020100
vn -0.871200 0.490800 -0.003400
vn -0.912000 0.010900 -0.410000
vn -0.916000 0.401100 0.005300
vn -0.915200 -0.010600 0.402800
vn -0.918200 -0.010600 0.395900
vn -0.929700 0.007300 -0.368300
vn -0.907800 0.419400 0.004100
vn -0.915500 0.012400 -0.402200
vn -0.917600 -0.011800 0.397400
vn -0.903200 -0.429200 -0.005900
vn -0.997400 -0.041500 -0.058100
vn -0.997400 -0.041500 0.058100
vn -0.997400 0.040700 0.059700
vn -0.997900 -0.050500 -0.041700
vn -0.997900 -0.050500 0.041700
vn -0.997200 0.040900 0.062100
vn -0.998100 -0.046800 -0.041200
vn -0.998100 -0.046800 0.041200
vn -0.997500 0.038600 0.059900
vn -0.998100 -0.046500 -0.040000
vn -0.998100 -0.046500 0.040000
vn -0.997600 0.038400 0.057700
vn -0.999900 -0.003500 -0.012900
vn -0.871100 0.018400 0.490800
vn -0.880400 -0.015600 0.474100
vn -0.999100 0.011000 0.040800
vn -0.841200 0.019700 -0.540400
vn -0.999700 -0.005400 0.025100
vn -0.999500 0.014300 -0.027000
vn -0.785000 -0.619400 -0.014200
vn -1.000000 0.007000 -0.005100
vn -0.872700 0.014600 0.488100
vn -0.887500 -0.015200 0.460600
vn -1.000000 -0.003600 -0.003300
vn -0.999100 0.010800 -0.040300
vn -0.996400 0.008400 -0.084000
vn -0.999700 -0.024800 -0.008100
vn -0.896600 -0.442800 0.000900
vn -0.985200 -0.171500 -0.001400
vn -0.999900 -0.013800 -0.006000
vn -0.872400 -0.017900 0.488400
vn -0.796500 -0.604400 0.017900
vn -0.999200 -0.010000 0.039700
vn -0.822900 -0.011400 -0.568100
vn -1.000000 -0.003600 -0.000600
vn -0.998200 0.057900 -0.014700
vn -0.997500 0.038700 -0.059700
vn -0.997900 0.050500 -0.041700
vn -0.997900 0.050100 -0.040500
vn -0.916600 -0.399800 0.004100
vn -0.933900 0.007000 0.357600
vn -0.919600 -0.011200 -0.392800
vn -0.908600 0.417600 -0.003900
vn -0.907300 -0.013400 -0.420200
vn -0.909300 0.013000 0.415800
vn -0.924900 -0.380300 -0.000500
vn -0.915200 0.010600 0.402900
vn -0.925600 0.378400 -0.003800
vn -0.915900 -0.401400 0.004200
vn -0.907000 -0.012900 -0.420900
vn -0.918700 0.394500 -0.020500
vn -0.918500 -0.010700 -0.395300
vn -0.916600 0.011200 0.399700
vn -0.785200 0.619100 0.009100
vn -0.999800 0.021100 -0.004700
vn -0.835700 0.549000 -0.011900
vn -0.998700 0.013800 -0.048200
vn -0.999700 -0.000600 -0.026100
vn -0.797200 0.603500 -0.014800
vn -0.999800 0.021100 0.003400
vn -0.999700 -0.023900 -0.002600
vn -0.871200 0.012800 -0.490800
vn -0.842700 -0.019100 -0.538000
vn -0.813300 -0.033200 0.580900
vn -0.776400 -0.629500 -0.031200
vn -0.817100 0.033400 -0.575500
vn -0.813000 0.033600 -0.581400
vn -0.940700 -0.337100 -0.038900
vn -0.907200 0.420700 0.002500
vn -0.804700 -0.033300 0.592700
vn -0.933800 -0.355600 -0.039400
vn -0.806500 -0.035400 0.590200
vn -0.804900 0.035400 -0.592400
vn -0.934700 0.353200 0.039400
vn -0.763100 0.645500 0.031600
vn -0.818800 0.035500 -0.573000
vn -0.812900 -0.035300 0.581300
vn -0.892000 -0.452100 -0.003000
vn -0.612200 -0.790100 -0.030500
vn -0.644000 0.764400 0.031700
vn -0.997400 -0.040700 -0.059700
vn -0.997400 -0.040700 0.059700
vn -0.997900 0.050100 0.040500
vn -0.997200 -0.040900 -0.062100
vn -0.997200 -0.040900 0.062100
vn -0.997900 0.050500 0.041700
vn -0.997500 -0.038600 -0.059900
vn -0.997500 -0.038600 0.059900
vn -0.997500 0.038700 0.059700
vn -0.997600 -0.038400 -0.057700
vn -0.997600 -0.038400 0.057700
vn -0.998200 0.057900 0.014700
vn -1.000000 -0.006400 0.000900
vn -1.000000 -0.006000 -0.002500
vn -1.000000 0.006800 0.004700
vn -1.000000 -0.000400 0.001700
vn -1.000000 -0.009100 0.003700
vn -1.000000 0.005400 0.004700
vn -0.886200 0.015600 0.463100
vn -0.855200 -0.011900 0.518200
vn -0.996900 -0.006300 0.078600
vn -0.999900 -0.013400 0.006400
vn -0.871000 0.015000 -0.491000
vn -0.996200 -0.005200 0.087200
vn -0.878900 -0.476900 -0.002500
vn -0.882400 0.013400 0.470300
vn -1.000000 -0.005800 0.003700
vn -1.000000 0.003400 -0.003600
vn -0.997200 -0.006000 -0.074100
vn -0.999800 0.011800 0.014000
vn -0.843200 -0.537300 0.015700
vn -0.824200 -0.566000 -0.019300
s off
f 57//1 34//1 92//1
f 56//2 45//2 44//2
f 34//3 55//3 36//3
f 76//4 9//4 47//4
f 10//5 75//5 74//5
f 48//6 40//6 75//6
f 42//7 33//7 32//7
f 88//8 13//8 71//8
f 87//9 16//9 70//9
f 86//10 17//10 65//10
f 85//11 21//11 62//11
f 83//12 16//12 52//12
f 84//13 12//13 51//13
f 40//14 18//14 61//14
f 32//15 22//15 62//15
f 41//16 21//16 63//16
f 42//17 17//17 64//17
f 38//18 14//18 65//18
f 33//19 24//19 66//19
f 55//20 23//20 67//20
f 45//21 15//21 68//21
f 49//22 26//22 69//22
f 46//23 25//23 70//23
f 44//24 19//24 71//24
f 54//25 20//25 72//25
f 47//26 27//26 73//26
f 37//27 29//27 76//27
f 35//28 77//28 46//28
f 92//29 5//29 80//29
f 9//30 79//30 60//30
f 29//31 78//31 79//31
f 60//32 79//32 56//32
f 30//33 80//33 2//33
f 46//34 28//34 58//34
f 46//35 58//35 49//35
f 81//36 36//36 1//36
f 8//37 36//37 81//37
f 79//38 53//38 56//38
f 10//39 37//39 31//39
f 47//40 20//40 54//40
f 54//41 19//41 59//41
f 44//42 13//42 60//42
f 82//43 27//43 9//43
f 9//44 60//44 82//44
f 46//45 16//45 53//45
f 83//46 15//46 56//46
f 45//47 26//47 50//47
f 33//48 23//48 34//48
f 38//49 17//49 58//49
f 41//50 18//50 48//50
f 32//51 21//51 41//51
f 40//52 12//52 57//52
f 84//53 22//53 7//53
f 85//54 22//54 51//54
f 12//55 85//55 51//55
f 18//56 85//56 61//56
f 86//57 14//57 67//57
f 23//58 86//58 67//58
f 24//59 86//59 66//59
f 87//60 25//60 69//60
f 26//61 87//61 69//61
f 15//62 87//62 68//62
f 88//63 19//63 72//63
f 20//64 88//64 72//64
f 27//65 88//65 73//65
f 32//66 34//66 7//66
f 36//67 89//67 1//67
f 91//68 11//68 89//68
f 75//69 57//69 30//69
f 74//70 30//70 2//70
f 48//71 47//71 54//71
f 31//72 76//72 48//72
f 6//73 39//73 78//73
f 8//74 34//74 36//74
f 90//75 11//75 28//75
f 35//76 90//76 77//76
f 44//77 50//77 59//77
f 55//78 91//78 36//78
f 38//79 58//79 91//79
f 57//80 92//80 30//80
f 29//81 43//81 78//81
f 57//82 7//82 34//82
f 91//83 58//83 28//83
f 35//84 3//84 90//84
f 39//85 3//85 35//85
f 76//86 29//86 9//86
f 10//87 31//87 75//87
f 54//88 59//88 41//88
f 88//89 82//89 13//89
f 87//90 52//90 16//90
f 86//91 64//91 17//91
f 85//92 63//92 21//92
f 84//93 57//93 12//93
f 40//94 48//94 18//94
f 32//95 7//95 22//95
f 42//96 58//96 17//96
f 38//97 55//97 14//97
f 33//98 42//98 24//98
f 55//99 34//99 23//99
f 45//100 56//100 15//100
f 83//101 53//101 16//101
f 49//102 50//102 26//102
f 46//103 49//103 25//103
f 82//104 60//104 13//104
f 44//105 59//105 19//105
f 47//106 9//106 27//106
f 92//107 8//107 5//107
f 9//108 29//108 79//108
f 30//109 92//109 80//109
f 46//110 77//110 28//110
f 53//111 35//111 46//111
f 5//112 8//112 81//112
f 79//113 35//113 53//113
f 78//114 35//114 79//114
f 31//115 37//115 76//115
f 37//116 4//116 29//116
f 47//117 73//117 20//117
f 54//118 72//118 19//118
f 44//119 71//119 13//119
f 46//120 70//120 16//120
f 49//121 69//121 25//121
f 53//122 83//122 56//122
f 45//123 68//123 26//123
f 55//124 67//124 14//124
f 33//125 66//125 23//125
f 38//126 65//126 17//126
f 42//127 64//127 24//127
f 41//128 63//128 18//128
f 32//129 62//129 21//129
f 40//130 61//130 12//130
f 57//131 84//131 7//131
f 84//132 51//132 22//132
f 83//133 52//133 15//133
f 85//134 62//134 22//134
f 12//135 61//135 85//135
f 18//136 63//136 85//136
f 86//137 65//137 14//137
f 23//138 66//138 86//138
f 24//139 64//139 86//139
f 87//140 70//140 25//140
f 26//141 68//141 87//141
f 15//142 52//142 87//142
f 88//143 71//143 19//143
f 20//144 73//144 88//144
f 27//145 82//145 88//145
f 59//77 50//77 41//77
f 48//146 54//146 41//146
f 42//147 49//147 58//147
f 41//148 49//148 42//148
f 41//149 50//149 49//149
f 34//150 32//150 33//150
f 32//151 41//151 42//151
f 36//152 91//152 89//152
f 91//153 28//153 11//153
f 75//154 40//154 57//154
f 31//155 48//155 75//155
f 74//156 75//156 30//156
f 48//157 76//157 47//157
f 78//158 39//158 35//158
f 77//159 90//159 28//159
f 50//160 44//160 45//160
f 44//161 60//161 56//161
f 55//162 38//162 91//162
f 92//163 34//163 8//163
f 78//164 43//164 6//164
f 29//165 4//165 43//165
