# Blender v2.77 (sub 0) OBJ File: 'room1.blend'
# www.blender.org
v 0.216041 2.409365 -2.330873
v 0.267039 2.407462 -2.138561
v -0.126897 2.409365 -2.339149
v 0.389664 1.811176 -2.104883
v 0.289176 1.840844 -2.376777
v -0.227628 1.815732 -2.401131
v 0.196579 1.818009 -1.881587
v -0.100786 1.811176 -1.869514
v -0.300456 1.815732 -2.101308
v 0.047685 1.818009 -2.528224
v 0.046546 2.442838 -2.453519
v 0.143624 2.413171 -1.991326
v -0.050246 2.407462 -1.986405
v -0.223881 2.434477 -2.129872
v -0.183215 2.409365 -2.145933
v -0.068128 2.426116 -1.945094
v 0.161472 2.442838 -1.954336
v 0.318480 1.815732 -2.388290
v 0.045969 2.413171 -2.415608
v -0.162290 2.434477 -2.360291
v 0.310367 2.426116 -2.126647
v 0.252017 2.434477 -2.350422
v 0.047233 1.849205 -2.498483
v -0.271023 1.840844 -2.117165
v -0.087620 1.832483 -1.900105
v 0.182554 1.849205 -1.910661
v -0.198687 1.840844 -2.388421
v 0.357543 1.832483 -2.113662
vn -0.020900 -0.143000 -0.989500
vn -0.276800 0.758800 0.589600
vn -0.029600 -0.146500 -0.988800
vn -0.038800 0.788600 -0.613700
vn -0.613700 -0.777900 0.134700
vn -0.956900 -0.143500 0.252400
vn -0.959400 -0.140400 0.244800
vn -0.572600 -0.809300 0.130800
vn -0.512500 0.846500 0.144300
vn 0.350900 0.901000 -0.255000
vn -0.248300 0.791000 0.559100
vn -0.966000 0.108700 -0.234600
vn 0.753000 -0.145300 -0.641800
vn 0.752800 0.120000 0.647300
vn -0.337600 -0.688300 0.642100
vn 0.457300 0.103200 -0.883300
vn 0.428300 -0.817500 -0.385000
vn 0.031400 0.117300 0.992600
vn 0.329000 -0.649100 0.685800
vn 0.690600 -0.703500 0.167800
vn 0.511400 0.846300 0.149100
vn -0.082800 0.894300 -0.439700
vn -0.424500 0.893900 0.144100
vn -0.004400 -0.819700 -0.572800
vn -0.959300 0.118200 -0.256400
vn 0.401100 0.856800 -0.324100
vn 0.449400 0.106900 -0.886900
vn 0.408700 -0.129900 0.903400
vn -0.444400 -0.131200 0.886100
vn 0.037500 0.119900 0.992100
vn 0.403400 -0.132100 0.905400
vn -0.761200 -0.143000 -0.632500
vn 0.605400 -0.779400 0.161400
vn 0.561700 0.813600 0.150100
vn 0.957400 -0.135000 0.255300
vn 0.758700 -0.149300 -0.634100
vn -0.756000 0.123200 0.642800
vn -0.455800 0.788700 -0.412600
vn 0.222200 0.792000 0.568700
vn -0.583100 -0.678500 -0.446700
vn -0.291800 0.894400 -0.339000
vn -0.751000 0.119700 0.649300
vn -0.360600 -0.646300 0.672500
vn -0.417600 0.103700 -0.902700
vn 0.248300 0.761000 0.599300
vn 0.961900 0.118400 -0.246400
vn -0.408900 0.107600 -0.906200
vn 0.963800 0.115800 -0.240200
vn -0.449200 -0.129200 0.884100
vn 0.452300 -0.790700 -0.412600
vn 0.757000 0.117400 0.642800
vn -0.445400 -0.819800 -0.360000
vn 0.950000 -0.144000 0.276900
vn 0.308800 -0.688200 0.656600
vn 0.013300 -0.678500 -0.734400
vn -0.755200 -0.146500 -0.638900
s off
f 26//1 13//1 12//1
f 1//2 11//2 19//2
f 26//3 25//3 13//3
f 13//4 17//4 12//4
f 28//5 5//5 18//5
f 5//6 2//6 1//6
f 5//7 28//7 2//7
f 28//8 18//8 4//8
f 2//9 22//9 1//9
f 13//10 14//10 16//10
f 1//11 22//11 11//11
f 14//12 6//12 9//12
f 13//13 25//13 24//13
f 21//14 7//14 4//14
f 5//15 10//15 18//15
f 22//16 18//16 10//16
f 25//17 8//17 9//17
f 16//18 7//18 17//18
f 27//19 10//19 23//19
f 24//20 9//20 6//20
f 15//21 3//21 20//21
f 13//22 16//22 17//22
f 2//23 21//23 22//23
f 25//24 7//24 8//24
f 14//25 20//25 6//25
f 13//26 15//26 14//26
f 22//27 10//27 11//27
f 3//28 27//28 23//28
f 1//29 19//29 23//29
f 16//30 8//30 7//30
f 3//31 23//31 19//31
f 2//32 26//32 12//32
f 24//33 6//33 27//33
f 15//34 20//34 14//34
f 15//35 24//35 27//35
f 13//36 24//36 15//36
f 16//37 14//37 9//37
f 2//38 12//38 17//38
f 3//39 11//39 20//39
f 28//40 7//40 26//40
f 2//41 17//41 21//41
f 16//42 9//42 8//42
f 5//43 23//43 10//43
f 20//44 10//44 6//44
f 3//45 19//45 11//45
f 21//46 18//46 22//46
f 20//47 11//47 10//47
f 21//48 4//48 18//48
f 1//49 23//49 5//49
f 25//50 9//50 24//50
f 21//51 17//51 7//51
f 28//52 4//52 7//52
f 15//53 27//53 3//53
f 27//54 6//54 10//54
f 25//55 26//55 7//55
f 2//56 28//56 26//56
