# Blender v2.77 (sub 0) OBJ File: 'room1.blend'
# www.blender.org
v -0.131591 1.800113 0.285219
v -0.003119 1.796721 -0.315639
v 0.264839 1.786691 -0.209128
v 0.196668 2.423293 -0.148306
v 0.331719 1.787043 0.079322
v 0.249371 2.427675 0.058025
v 0.151129 1.788858 0.300915
v -0.188937 2.422779 -0.157758
v 0.000000 2.143684 -0.253558
v 0.245600 1.800095 -0.187817
v 0.229717 2.415628 0.053071
v 0.116172 2.045654 0.243253
v -0.113033 2.104046 0.234606
v -0.302501 1.800113 0.076181
v -0.252782 2.104168 0.058602
v -0.202439 2.103077 -0.160730
v -0.244483 1.800297 -0.191621
v 0.112355 2.421502 0.218805
v -0.100218 2.423085 0.225949
v -0.147357 1.786720 0.312311
v -0.245601 2.426126 0.056568
v -0.331720 1.787043 0.079322
v -0.264840 1.786691 -0.209129
v 0.303177 1.799542 0.075262
v 0.005498 2.422970 -0.245959
v -0.003773 2.101252 -0.314570
v -0.250652 2.100437 -0.192104
v -0.308721 2.100029 0.077320
v -0.134364 2.115257 0.288066
v 0.138816 2.117558 0.285998
v 0.310885 2.100407 0.073113
v 0.249957 2.083569 -0.198203
v 0.252782 2.104168 0.058602
v 0.202439 2.103081 -0.160728
vn -0.815200 -0.070600 -0.574800
vn -0.033800 -0.025800 -0.999100
vn 0.758500 -0.021000 -0.651400
vn -0.010700 -0.893900 -0.448200
vn 0.483100 -0.868200 0.113100
vn 0.414700 -0.905600 0.089200
vn -0.429900 0.838800 -0.334100
vn 0.364700 -0.884900 -0.289800
vn 0.321400 -0.909800 -0.262700
vn -0.377000 0.002400 -0.926200
vn -0.437800 0.177700 -0.881300
vn -0.972600 0.056200 -0.225600
vn -0.962800 0.173200 -0.207300
vn -0.782700 0.061500 0.619400
vn -0.760900 0.208400 0.614500
vn 0.037800 0.046700 0.998200
vn 0.005600 0.216300 0.976300
vn 0.773800 0.063900 0.630100
vn 0.772700 0.173400 0.610600
vn 0.972600 0.057100 -0.225600
vn 0.956700 0.183300 -0.226200
vn 0.369500 0.004100 -0.929200
vn 0.420400 0.177600 -0.889800
vn 0.421000 -0.026200 0.906700
vn 0.436900 -0.151100 0.886700
vn 0.974400 -0.020300 0.223800
vn 0.966900 -0.146000 0.209400
vn 0.962500 -0.156300 0.221700
vn 0.782200 -0.048300 -0.621100
vn 0.765300 -0.150900 -0.625700
vn 0.772800 -0.161800 -0.613700
vn 0.021200 -0.064700 -0.997700
vn 0.045700 -0.212900 -0.976000
vn -0.004600 -0.164000 -0.986500
vn -0.423500 -0.042700 0.904900
vn -0.972300 -0.068000 0.223500
vn -0.795800 -0.047400 -0.603700
vn 0.445600 0.198100 -0.873000
vn 0.954300 0.168000 -0.247300
vn -0.944900 0.207900 -0.253100
vn -0.404800 0.201900 -0.891900
vn -0.481000 -0.869400 0.112600
vn -0.540700 0.832600 0.120400
vn -0.351600 -0.893600 -0.279200
vn -0.190200 -0.899300 0.393900
vn 0.210700 -0.875300 0.435300
vn -0.410000 -0.907800 0.087800
vn -0.443500 0.068600 -0.893600
vn -0.975200 0.070300 -0.210100
vn -0.770900 0.077100 0.632200
vn -0.744100 0.184900 0.642000
vn 0.006900 0.073300 0.997300
vn 0.034400 0.194000 0.980400
vn 0.778700 0.057500 0.624800
vn 0.740900 0.205800 0.639300
vn 0.973100 0.060300 -0.222300
vn 0.419400 0.054400 -0.906200
vn 0.412900 -0.032900 0.910200
vn 0.449200 -0.161300 0.878800
vn 0.965700 -0.043200 0.256000
vn -0.768300 -0.161000 -0.619500
vn -0.801400 -0.232800 -0.551000
vn -0.986700 -0.024000 0.161000
vn -0.962400 -0.156900 0.221700
vn -0.966100 -0.148300 0.211100
vn -0.454800 -0.015300 0.890400
vn -0.437300 -0.154600 0.885900
vn -0.450900 -0.143000 0.881100
s off
f 33//1 18//1 11//1
f 13//2 19//2 18//2
f 15//3 21//3 19//3
f 7//4 20//4 1//4
f 17//5 22//5 23//5
f 14//6 22//6 17//6
f 18//7 6//7 11//7
f 14//8 20//8 22//8
f 1//9 20//9 14//9
f 23//10 26//10 2//10
f 8//11 26//11 27//11
f 27//12 23//12 22//12
f 21//13 27//13 28//13
f 28//14 22//14 20//14
f 19//15 28//15 29//15
f 30//16 20//16 7//16
f 18//17 29//17 30//17
f 5//18 31//18 7//18
f 6//19 30//19 31//19
f 3//20 32//20 5//20
f 4//21 31//21 32//21
f 26//22 3//22 2//22
f 25//23 32//23 26//23
f 9//24 8//24 16//24
f 17//25 9//25 16//25
f 16//26 21//26 15//26
f 17//27 15//27 14//27
f 17//28 16//28 15//28
f 15//29 19//29 13//29
f 14//30 13//30 1//30
f 14//31 15//31 13//31
f 13//32 18//32 12//32
f 1//33 12//33 7//33
f 1//34 13//34 12//34
f 9//35 34//35 4//35
f 34//36 33//36 11//36
f 33//37 12//37 18//37
f 32//38 25//38 4//38
f 31//39 4//39 6//39
f 27//40 21//40 8//40
f 26//41 8//41 25//41
f 10//42 3//42 5//42
f 11//43 6//43 4//43
f 24//44 5//44 7//44
f 10//45 2//45 3//45
f 2//46 17//46 23//46
f 24//47 10//47 5//47
f 27//48 26//48 23//48
f 28//49 27//49 22//49
f 29//50 28//50 20//50
f 19//51 21//51 28//51
f 20//52 30//52 29//52
f 18//53 19//53 29//53
f 7//54 31//54 30//54
f 30//55 6//55 18//55
f 5//56 32//56 31//56
f 26//57 32//57 3//57
f 9//58 25//58 8//58
f 17//59 2//59 9//59
f 16//60 8//60 21//60
f 24//61 12//61 33//61
f 24//62 7//62 12//62
f 34//63 11//63 4//63
f 10//64 33//64 34//64
f 10//65 24//65 33//65
f 9//66 4//66 25//66
f 2//67 34//67 9//67
f 2//68 10//68 34//68
