# Blender v2.77 (sub 0) OBJ File: 'room1.blend'
# www.blender.org
v -0.410224 -0.912926 0.168906
v -0.410224 -0.912926 -0.219145
v 0.410260 -0.913216 -0.025120
v -0.396151 -0.912976 0.182954
v -0.008051 -0.914354 0.182798
v -0.396151 -0.912976 -0.233193
v 0.007159 -0.099636 -0.259351
v 0.022287 -0.098411 -0.268896
v -0.008051 -0.914354 -0.233037
v 0.401913 -0.913273 -0.005014
v 0.022288 -0.098374 0.218663
v 0.007159 -0.099599 0.209118
v 0.005936 -0.914222 0.196797
v 0.005939 -0.913437 0.366215
v 0.478512 -0.100232 -0.040463
v 0.478358 -0.100699 -0.009782
v 0.023425 -0.913350 0.373478
v 0.005936 -0.914222 -0.247036
v 0.401913 -0.913273 -0.045225
v 0.023425 -0.913350 -0.423717
v 0.005939 -0.913437 -0.416454
v 0.023558 -0.100634 -0.491142
v 0.028153 -0.117207 -0.504350
v 0.014790 -0.101312 -0.487296
v 0.007130 -0.117302 -0.495611
v 0.014443 -0.101329 0.436908
v 0.007130 -0.117302 0.445372
v 0.024648 -0.100773 0.441310
v 0.028153 -0.117207 0.454111
v 0.014785 -0.101831 -0.280373
v 0.007125 -0.118222 -0.291883
v -0.009689 -0.118305 -0.275054
v 0.000277 -0.101986 -0.265840
v -0.000177 -0.102104 0.216035
v -0.009689 -0.118305 0.224815
v 0.007125 -0.118222 0.241644
v 0.014437 -0.101954 0.230674
v 0.477123 -0.101148 -0.011293
v 0.483204 -0.117227 -0.000947
v 0.483204 -0.117227 -0.049292
v 0.476543 -0.100947 -0.038051
v 0.493248 -0.117139 -0.025120
v 0.482345 -0.101138 -0.023890
v -0.470905 -0.100981 -0.266007
v -0.476320 -0.116927 -0.275296
v -0.482836 -0.100769 -0.254181
v -0.493248 -0.116848 -0.258409
v -0.482836 -0.100769 0.203942
v -0.493248 -0.116848 0.208169
v -0.470444 -0.100999 0.216220
v -0.476320 -0.116927 0.225056
v -0.332167 -1.901087 0.131992
v -0.332167 -1.901087 -0.182231
v 0.332267 -1.901191 -0.025120
v -0.320785 -1.901072 -0.193613
v 0.325521 -1.901174 -0.008836
v -0.006515 -1.901495 -0.193611
v 0.004820 -1.901582 -0.342073
v 0.018981 -1.901491 0.297701
v 0.004820 -1.901399 -0.204947
v 0.018981 -1.901491 -0.347940
v 0.325521 -1.901175 -0.041403
v 0.004820 -1.901582 0.291834
v 0.004820 -1.901399 0.154708
v -0.006515 -1.901496 0.143371
v -0.320785 -1.901072 0.143374
vn -0.381800 -0.090900 0.919800
vn -0.180600 0.969300 -0.166700
vn -0.381800 -0.090900 -0.919800
vn -0.000400 1.000000 0.000800
vn 0.003700 0.999900 0.012500
vn -0.002300 1.000000 0.000100
vn 0.542700 0.839900 -0.004100
vn -0.706700 -0.038700 -0.706400
vn -0.702500 -0.108000 0.703500
vn -0.994600 -0.103700 0.000000
vn -0.180500 0.969300 0.166800
vn -0.335000 0.544100 0.769200
vn -0.339200 0.540700 -0.769800
vn -0.547200 0.638100 -0.541700
vn -0.555800 0.622900 0.550500
vn -0.904300 0.426900 0.001500
vn -0.911000 0.412300 -0.001500
vn 0.792200 0.513200 0.330200
vn 0.775300 0.545100 -0.319000
vn 0.560800 0.609300 -0.560500
vn 0.576200 0.579900 0.575900
vn -0.589000 0.543700 0.597900
vn -0.589300 0.543500 -0.597800
vn 0.001600 0.496900 -0.867800
vn -0.839400 0.543500 0.000000
vn 0.001700 0.480200 0.877200
vn 0.003500 0.999900 -0.013100
vn -1.000000 0.001500 -0.000000
vn -0.702500 -0.108000 -0.703500
vn 0.919400 -0.095800 -0.381500
vn 0.919400 -0.095800 0.381500
vn -0.704400 -0.082000 0.705000
vn 0.000300 -0.052700 -0.998600
vn 0.000300 -0.052700 0.998600
vn -0.706700 -0.038700 0.706400
vn -0.706900 -0.029300 -0.706700
vn 0.705100 -0.075600 -0.705100
vn 0.705100 -0.075600 0.705100
vn -0.382000 -0.068900 -0.921600
vn -0.382000 -0.068900 0.921600
vn 0.706000 -0.057300 0.705900
vn -1.000000 0.001100 0.000000
vn 0.706000 -0.057300 -0.705900
vn -0.706900 -0.029300 0.706700
vn 0.000100 -0.040000 0.999200
vn 0.000100 -0.040000 -0.999200
vn 0.921300 -0.072700 0.382000
vn 0.921300 -0.072700 -0.382000
vn -0.704400 -0.082000 -0.705000
vn -0.996900 -0.078700 0.000000
s off
f 17//1 29//1 27//1 14//1
f 30//2 33//2 7//2 8//2
f 21//3 25//3 23//3 20//3
f 8//4 7//4 12//4 11//4 16//4 15//4
f 38//5 16//5 11//5 37//5 26//5 28//5
f 44//6 46//6 48//6 50//6 34//6 12//6 7//6 33//6
f 38//7 43//7 41//7 15//7 16//7
f 9//8 32//8 31//8 18//8
f 4//9 51//9 49//9 1//9
f 47//10 2//10 1//10 49//10
f 34//11 37//11 11//11 12//11
f 28//12 26//12 27//12 29//12
f 24//13 22//13 23//13 25//13
f 31//14 32//14 33//14 30//14
f 35//15 36//15 37//15 34//15
f 25//16 31//16 30//16 24//16
f 26//17 37//17 36//17 27//17
f 39//18 42//18 43//18 38//18
f 42//19 40//19 41//19 43//19
f 22//20 41//20 40//20 23//20
f 38//21 28//21 29//21 39//21
f 50//22 48//22 49//22 51//22
f 46//23 44//23 45//23 47//23
f 32//24 45//24 44//24 33//24
f 47//25 49//25 48//25 46//25
f 51//26 35//26 34//26 50//26
f 30//27 8//27 15//27 41//27 22//27 24//27
f 25//28 21//28 18//28 31//28
f 45//29 6//29 2//29 47//29
f 42//30 3//30 19//30 40//30
f 39//31 10//31 3//31 42//31
f 66//32 4//32 1//32 52//32
f 32//33 9//33 6//33 45//33
f 51//34 4//34 5//34 35//34
f 35//35 5//35 13//35 36//35
f 57//36 9//36 18//36 60//36
f 40//37 19//37 20//37 23//37
f 36//28 13//28 14//28 27//28
f 29//38 17//38 10//38 39//38
f 58//39 21//39 20//39 61//39
f 59//40 17//40 14//40 63//40
f 17//41 59//41 56//41 10//41
f 13//42 64//42 63//42 14//42
f 19//43 62//43 61//43 20//43
f 5//44 65//44 64//44 13//44
f 4//45 66//45 65//45 5//45
f 9//46 57//46 55//46 6//46
f 10//47 56//47 54//47 3//47
f 3//48 54//48 62//48 19//48
f 6//49 55//49 53//49 2//49
f 21//42 58//42 60//42 18//42
f 2//50 53//50 52//50 1//50
