# Blender v2.77 (sub 0) OBJ File: 'room1.blend'
# www.blender.org
v -2.851200 2.122719 -1.767744
v -2.851200 0.754142 -1.767744
v -2.851200 0.754142 -1.083456
v -2.851200 2.122719 -1.083456
v -2.851200 0.754142 -0.057024
v -2.851200 2.122719 -0.057024
v -2.851200 0.600178 -2.794177
v -2.851200 0.600178 -1.083456
v -2.851200 0.600178 -1.767744
v -2.851200 0.600178 -0.057024
v -2.808432 0.737035 -2.794177
v -2.808432 0.737035 -1.767744
v -2.794176 0.604972 -2.794177
v -2.794176 0.604972 -1.083456
v -2.808432 0.737035 -1.083456
v -2.794176 0.604972 -1.767744
v -2.808432 0.737035 -0.057024
v -2.794176 0.604972 -0.057024
v -2.836944 0.754142 -1.083456
v -2.800841 0.600178 -1.083456
v -2.836944 0.754142 -0.057024
v -2.794176 0.702821 -2.794176
v -2.794176 0.702821 -1.083456
v -2.794176 0.702821 -1.767744
v -2.794176 0.702821 -0.057024
v -2.800841 0.600178 -0.057024
v -2.800841 0.600178 -1.767744
v -2.836944 0.754142 -1.767744
v -2.836944 0.754142 -2.794177
v -2.800841 0.600178 -2.794177
v -2.799068 0.721560 -2.794176
v -2.799068 0.721560 -1.083456
v -2.799068 0.721560 -1.767744
v -2.799068 0.721560 -0.057024
v -2.829816 0.677160 -0.057024
v -2.829816 0.677160 -2.794177
v -2.851200 0.677160 -1.767744
v -2.851200 0.677160 -0.057024
v -2.851200 0.677160 -1.083456
v -2.851200 0.677160 -2.794177
v -2.829816 0.677160 -1.083456
v -2.829816 0.677160 -1.767744
v -2.820929 0.747793 -1.083456
v -2.820929 0.747793 -0.057024
v -2.798013 0.689009 -0.057024
v -2.798013 0.689009 -1.083456
v -2.815560 0.698544 -0.057024
v -2.815560 0.698544 -1.083456
v -2.820929 0.747793 -2.794177
v -2.798013 0.689009 -2.794176
v -2.820929 0.747793 -1.767744
v -2.798013 0.689009 -1.767744
v -2.815560 0.698544 -1.767744
v -2.815560 0.698544 -2.794177
v -3.084575 0.795757 -0.098639
v -3.084575 0.795757 -1.041841
v -3.084575 2.081104 -1.041841
v -3.084575 2.081104 -0.098639
v -2.907547 0.795757 -0.098639
v -2.899121 0.792682 -0.095564
v -2.899122 0.792682 -1.044916
v -2.907549 0.795757 -1.041841
v -2.907547 2.081104 -1.041841
v -2.899121 2.084179 -1.044916
v -2.899122 2.084179 -0.095564
v -2.907549 2.081104 -0.098639
v -3.084575 0.795757 -1.809359
v -3.084575 0.795757 -2.752562
v -3.084575 2.081104 -2.752562
v -3.084575 2.081104 -1.809359
v -2.907547 0.795757 -1.809359
v -2.907549 0.795757 -2.752562
v -2.907547 2.081104 -2.752562
v -2.899121 2.084179 -2.755636
v -2.899122 2.084179 -1.806284
v -2.907549 2.081104 -1.809359
v -2.851200 2.122719 -2.794176
v -2.851200 0.754142 -2.794176
v -2.813568 0.764465 -1.073134
v -2.816184 0.754142 -1.083456
v -2.816184 2.122719 -1.083456
v -2.813568 2.112396 -1.073133
v -2.816184 0.754142 -0.057024
v -2.813568 0.764465 -0.067347
v -2.813568 2.112396 -0.067347
v -2.816184 2.122719 -0.057024
v -2.854574 0.792682 -0.095564
v -2.843736 0.788727 -0.091608
v -2.843736 0.788727 -1.048872
v -2.854575 0.792682 -1.044916
v -2.854574 2.084179 -1.044916
v -2.843736 2.088134 -1.048872
v -2.843736 2.088134 -0.091608
v -2.854575 2.084179 -0.095564
v -2.899121 0.792682 -1.806284
v -2.899122 0.792682 -2.755636
v -2.813568 0.764465 -2.783854
v -2.816184 0.754142 -2.794176
v -2.816184 2.122719 -2.794176
v -2.813568 2.112396 -2.783854
v -2.816184 0.754142 -1.767744
v -2.813568 0.764465 -1.778067
v -2.813568 2.112396 -1.778067
v -2.816184 2.122719 -1.767744
v -2.854574 0.792682 -1.806284
v -2.843736 0.788727 -1.802329
v -2.843736 0.788727 -2.759592
v -2.854575 0.792682 -2.755636
v -2.854574 2.084179 -2.755636
v -2.843736 2.088134 -2.759592
v -2.843736 2.088134 -1.802329
v -2.854575 2.084179 -1.806284
vn 0.000000 0.000000 1.000000
vn 0.000000 -1.000000 -0.000000
vn -0.000000 0.000000 -1.000000
vn 0.626700 -0.779300 0.000000
vn 0.855600 0.517700 0.000000
vn 0.584000 -0.811700 0.000000
vn 0.652400 0.757900 0.000000
vn 0.000000 1.000000 0.000000
vn 1.000000 -0.000000 0.000000
vn 0.967600 0.252600 0.000000
vn 0.368600 0.929600 0.000000
vn 0.626700 0.000000 -0.779300
vn 0.342800 0.939400 -0.000000
vn 0.342800 -0.939400 0.000000
vn 0.342800 -0.000000 0.939400
vn 0.342800 0.000000 -0.939400
vn 0.626700 0.779300 -0.000000
vn 0.626700 0.000000 0.779300
vn 0.969400 -0.000000 -0.245700
vn 0.969400 0.000000 0.245700
vn 0.969400 -0.245700 0.000000
vn 0.969300 0.245700 0.000000
s off
f 27//1 16//1 24//1 52//1
f 73//2 76//2 70//2 69//2
f 48//3 43//3 15//3 32//3
f 100//4 103//4 111//4 110//4
f 76//3 71//3 67//3 70//3
f 34//5 32//5 15//5 17//5
f 33//5 31//5 11//5 12//5
f 26//6 20//6 14//6 18//6
f 26//1 18//1 25//1 45//1
f 27//6 30//6 13//6 16//6
f 43//7 44//7 17//7 15//7
f 54//3 49//3 11//3 31//3
f 49//7 51//7 12//7 11//7
f 3//8 5//8 21//8 19//8
f 10//2 8//2 20//2 26//2
f 39//3 3//3 19//3 41//3
f 38//1 10//1 26//1 35//1
f 30//3 50//3 22//3 13//3
f 47//1 45//1 25//1 34//1
f 16//9 13//9 22//9 24//9
f 18//9 14//9 23//9 25//9
f 20//3 46//3 23//3 14//3
f 53//1 52//1 24//1 33//1
f 37//1 9//1 27//1 42//1
f 78//8 2//8 28//8 29//8
f 40//3 78//3 29//3 36//3
f 9//2 7//2 30//2 27//2
f 7//3 40//3 36//3 30//3
f 2//1 37//1 42//1 28//1
f 51//1 53//1 33//1 12//1
f 44//1 47//1 34//1 17//1
f 5//1 38//1 35//1 21//1
f 8//3 39//3 41//3 20//3
f 50//3 54//3 31//3 22//3
f 24//10 22//10 31//10 33//10
f 25//10 23//10 32//10 34//10
f 46//3 48//3 32//3 23//3
f 20//3 41//3 48//3 46//3
f 21//1 35//1 47//1 44//1
f 35//1 26//1 45//1 47//1
f 19//11 21//11 44//11 43//11
f 41//3 19//3 43//3 48//3
f 30//3 36//3 54//3 50//3
f 28//1 42//1 53//1 51//1
f 42//1 27//1 52//1 53//1
f 29//11 28//11 51//11 49//11
f 36//3 29//3 49//3 54//3
f 66//3 59//3 55//3 58//3
f 85//12 84//12 88//12 93//12
f 63//2 66//2 58//2 57//2
f 62//1 63//1 57//1 56//1
f 6//1 5//1 83//1 86//1
f 60//3 65//3 94//3 87//3
f 59//8 62//8 56//8 55//8
f 62//13 59//13 60//13 61//13
f 66//14 63//14 64//14 65//14
f 63//15 62//15 61//15 64//15
f 59//16 66//16 65//16 60//16
f 82//4 85//4 93//4 92//4
f 72//1 73//1 69//1 68//1
f 95//3 75//3 112//3 105//3
f 1//1 2//1 101//1 104//1
f 71//8 72//8 68//8 67//8
f 72//13 71//13 95//13 96//13
f 76//14 73//14 74//14 75//14
f 73//15 72//15 96//15 74//15
f 71//16 76//16 75//16 95//16
f 103//12 102//12 106//12 111//12
f 4//8 6//8 86//8 81//8
f 5//2 3//2 80//2 83//2
f 3//3 4//3 81//3 80//3
f 77//8 1//8 104//8 99//8
f 64//1 61//1 90//1 91//1
f 84//17 79//17 89//17 88//17
f 79//18 82//18 92//18 89//18
f 80//19 81//19 82//19 79//19
f 84//20 85//20 86//20 83//20
f 79//21 84//21 83//21 80//21
f 81//22 86//22 85//22 82//22
f 65//2 64//2 91//2 94//2
f 88//13 89//13 90//13 87//13
f 92//14 93//14 94//14 91//14
f 89//15 92//15 91//15 90//15
f 93//16 88//16 87//16 94//16
f 61//8 60//8 87//8 90//8
f 2//2 78//2 98//2 101//2
f 78//3 77//3 99//3 98//3
f 74//1 96//1 108//1 109//1
f 102//17 97//17 107//17 106//17
f 97//18 100//18 110//18 107//18
f 98//19 99//19 100//19 97//19
f 102//20 103//20 104//20 101//20
f 97//21 102//21 101//21 98//21
f 99//22 104//22 103//22 100//22
f 75//2 74//2 109//2 112//2
f 106//13 107//13 108//13 105//13
f 110//14 111//14 112//14 109//14
f 107//15 110//15 109//15 108//15
f 111//16 106//16 105//16 112//16
f 96//8 95//8 105//8 108//8
