# Blender v2.77 (sub 0) OBJ File: 'room1.blend'
# www.blender.org
v -0.000803 -0.029506 12.994587
v -0.054470 -0.068593 13.001178
v -0.033594 -0.130312 13.011536
v 0.031989 -0.130311 13.011536
v 0.052865 -0.068593 13.001178
v -0.000803 -1.703236 0.002590
v -0.054149 -1.741773 0.002590
v -0.033996 -1.804792 0.002590
v 0.032391 -1.804792 0.002590
v 0.052544 -1.741773 0.002590
v 0.032487 -0.709359 10.685886
v 0.032616 -1.231907 8.157024
v 0.032391 -1.531211 5.652638
v 0.032472 -1.740682 3.114749
v 0.052496 -1.677510 3.117218
v 0.052559 -1.467975 5.657412
v 0.052442 -1.167853 8.164457
v 0.052541 -0.645932 10.696014
v -0.054147 -0.645932 10.696014
v -0.054048 -1.167853 8.164457
v -0.054164 -1.467975 5.657412
v -0.054101 -1.677510 3.117217
v -0.034077 -1.740682 3.114750
v -0.033996 -1.531211 5.652638
v -0.034221 -1.231907 8.157024
v -0.034092 -0.709359 10.685886
v -0.000803 -1.639095 3.118846
v -0.000803 -1.429222 5.660453
v -0.000803 -1.129081 8.169449
v -0.000803 -0.606196 10.701876
vn 0.952800 -0.303500 0.006300
vn -0.952800 -0.303500 0.006300
vn 0.584900 0.810900 -0.016700
vn 0.000000 -0.999800 0.020600
vn -0.584900 0.810900 -0.016700
vn -0.582200 0.788600 -0.198000
vn -0.573900 0.802000 -0.165500
vn -0.580600 0.808400 -0.096700
vn -0.582900 0.809800 -0.066800
vn 0.000000 -0.970400 0.241600
vn -0.000000 -0.979300 0.202400
vn 0.000000 -0.992900 0.118700
vn 0.000000 -0.996600 0.082300
vn 0.582200 0.788600 -0.198000
vn 0.573900 0.802000 -0.165500
vn 0.580600 0.808400 -0.096700
vn 0.582900 0.809800 -0.066800
vn -0.947600 -0.309800 0.077400
vn -0.950000 -0.305900 0.063100
vn -0.952400 -0.302700 0.036200
vn -0.952300 -0.304200 0.025100
vn 0.947600 -0.309800 0.077400
vn 0.950000 -0.305900 0.063100
vn 0.952400 -0.302700 0.036200
vn 0.952300 -0.304200 0.025100
s off
f 15//1 14//1 9//1 10//1
f 23//2 22//2 7//2 8//2
f 27//3 15//3 10//3 6//3
f 14//4 23//4 8//4 9//4
f 22//5 27//5 6//5 7//5
f 2//6 1//6 30//6 19//6
f 19//7 30//7 29//7 20//7
f 20//8 29//8 28//8 21//8
f 21//9 28//9 27//9 22//9
f 4//10 3//10 26//10 11//10
f 11//11 26//11 25//11 12//11
f 12//12 25//12 24//12 13//12
f 13//13 24//13 23//13 14//13
f 1//14 5//14 18//14 30//14
f 30//15 18//15 17//15 29//15
f 29//16 17//16 16//16 28//16
f 28//17 16//17 15//17 27//17
f 3//18 2//18 19//18 26//18
f 26//19 19//19 20//19 25//19
f 25//20 20//20 21//20 24//20
f 24//21 21//21 22//21 23//21
f 5//22 4//22 11//22 18//22
f 18//23 11//23 12//23 17//23
f 17//24 12//24 13//24 16//24
f 16//25 13//25 14//25 15//25
