# Blender v2.77 (sub 0) OBJ File: 'room1.blend'
# www.blender.org
v -1.260246 0.756408 -5.000000
v -1.027794 0.576843 -4.845692
v -1.155208 0.759082 -4.609343
v -1.182143 0.617254 -5.000000
v -1.059197 0.637190 -4.894577
v -1.134190 0.777121 -4.633295
v -0.879425 0.775450 -5.462192
v -1.014145 0.561817 -5.011425
v -0.839674 0.679968 -5.151988
v -1.155208 0.759082 -5.390657
v -0.880533 0.759293 -5.490845
v -0.681701 0.760671 -5.225241
v -0.675692 0.758110 -4.789369
v -0.877127 0.760180 -4.508555
v -1.102800 0.614776 -4.721105
v -0.898309 0.616059 -4.652251
v -0.761034 0.614782 -4.850573
v -0.763814 0.614558 -5.157419
v -0.908220 0.613610 -5.345464
v -1.106161 0.616246 -5.276687
v -1.034867 0.640666 -5.176291
v -0.920600 0.640754 -5.223392
v -0.920600 0.640755 -4.776609
v -1.134190 0.777121 -5.366705
v -0.888901 0.767367 -5.429042
v -0.888753 0.767793 -4.570302
v -1.243501 0.775012 -5.000000
v -0.693018 0.776258 -4.796984
v -0.879425 0.775451 -4.537807
v -1.109731 0.676088 -4.726234
v -1.109731 0.676088 -5.273766
v -0.897018 0.677535 -4.657429
v -0.897018 0.677535 -5.342571
v -1.190651 0.681496 -5.000000
v -0.966806 0.570093 -5.158115
v -0.838305 0.680564 -4.855454
v -0.828727 0.769044 -4.787695
v -0.826686 0.768662 -5.202124
v -0.953987 0.620728 -5.000000
v -0.875319 0.636564 -4.966280
v -0.856366 0.570607 -5.050690
v -0.922915 0.576616 -4.807455
v -1.232295 0.662531 -4.987146
v -1.128089 0.662094 -4.642722
v -0.879568 0.662614 -4.563923
v -0.706615 0.660387 -4.817754
v -0.713863 0.660887 -5.207042
v -0.894302 0.662695 -5.441195
v -1.141398 0.664351 -5.345091
vn -0.313000 -0.386100 0.867700
vn -0.936100 -0.244000 0.253400
vn 0.311700 0.948500 0.055800
vn 0.094000 0.945900 -0.310500
vn -0.989100 0.147300 0.004300
vn -0.914900 0.303200 -0.266600
vn -0.321300 -0.944100 0.074100
vn -0.915700 0.306800 0.259500
vn 0.842100 0.475900 0.253800
vn 0.000600 0.999800 -0.018900
vn 0.225800 0.664900 0.712000
vn 0.204100 0.689100 0.695400
vn 0.865000 0.436700 -0.247100
vn -0.034000 -0.995600 0.087500
vn 0.045200 -0.998100 -0.041700
vn 0.066200 -0.996900 0.042700
vn -0.993800 0.111400 -0.005000
vn 0.560300 0.712000 -0.423200
vn 0.570900 0.714600 0.404200
vn -0.173700 0.860700 -0.478600
vn -0.178400 0.854800 -0.487300
vn -0.535800 0.830000 -0.154900
vn -0.729500 0.656600 -0.191700
vn 0.102200 0.961300 -0.255900
vn -0.518000 0.846700 0.122100
vn -0.391900 0.914200 -0.103000
vn -0.055600 0.997800 -0.036900
vn -0.219500 0.974100 0.054500
vn 0.057600 0.993600 -0.097700
vn -0.187000 -0.855700 -0.482400
vn -0.541300 0.827700 -0.147800
vn 0.132600 0.973700 -0.185200
vn -0.656300 -0.733300 -0.177600
vn 0.446800 -0.825300 -0.345400
vn 0.660100 -0.751100 -0.009800
vn 0.475400 -0.814500 0.332500
vn -0.153100 -0.863600 0.480300
vn -0.083800 -0.964200 0.251600
vn -0.635000 -0.752700 0.173900
vn -0.680600 -0.703400 0.205000
vn -0.215200 -0.968600 -0.124100
vn -0.317400 -0.944600 -0.083700
vn -0.101400 -0.961600 -0.255100
vn 0.171500 -0.970100 -0.171700
vn 0.274100 -0.941500 0.195800
vn -0.928000 -0.281200 -0.244600
vn -0.898600 -0.344700 0.271400
vn -0.265800 -0.470800 0.841300
vn 0.765300 -0.332100 0.551400
vn 0.950700 -0.309700 -0.018100
vn 0.726900 -0.393100 -0.563200
vn -0.314100 -0.398200 -0.861900
vn 0.108400 0.958200 0.264900
vn -0.542600 0.826900 -0.147800
vn -0.171100 0.983300 -0.062600
vn -0.169200 0.868200 0.466500
vn 0.724600 0.689200 -0.005900
vn -0.535800 0.830000 0.154900
vn 0.507200 0.779700 0.367200
vn 0.865000 0.436700 0.247100
vn 0.225500 0.665900 -0.711200
vn 0.204600 0.689100 -0.695200
vn -0.912100 0.324800 -0.250000
vn 0.842100 0.475900 -0.253800
vn -0.729500 0.656600 0.191600
vn -0.179700 0.855100 0.486400
vn 0.105200 0.958800 0.263900
vn 0.057300 0.998300 0.014400
vn -0.404700 0.908300 0.105800
vn 0.038300 0.994700 0.094900
vn 0.181700 0.983000 0.027800
vn 0.094000 0.945900 0.310500
vn 0.386200 0.917400 -0.096000
vn -0.768000 0.640400 0.002300
vn -0.684100 -0.707500 -0.177300
vn 0.242900 -0.952900 -0.181700
vn 0.425900 -0.904700 -0.003200
vn 0.251800 -0.963300 0.092700
vn 0.758900 -0.391300 0.520500
vn 0.954500 -0.297700 -0.014900
vn 0.752300 -0.344900 -0.561400
vn -0.326700 -0.447900 -0.832200
s off
f 44//1 14//1 3//1
f 43//2 3//2 1//2
f 21//3 31//3 34//3 5//3
f 30//4 32//4 23//4
f 36//5 38//5 9//5
f 37//6 36//6 32//6
f 8//7 2//7 15//7 4//7
f 9//8 38//8 25//8 33//8
f 27//9 34//9 24//9
f 37//10 28//10 12//10 38//10
f 25//11 31//11 33//11
f 24//12 31//12 25//12
f 34//13 6//13 30//13
f 42//14 2//14 8//14
f 35//15 41//15 8//15
f 41//16 42//16 8//16
f 38//17 36//17 37//17
f 12//18 11//18 7//18
f 13//19 28//19 14//19
f 11//20 24//20 7//20
f 10//21 24//21 11//21
f 10//22 27//22 24//22
f 1//23 27//23 10//23
f 6//24 29//24 26//24
f 40//25 9//25 33//25 22//25
f 29//26 37//26 26//26
f 29//27 28//27 37//27
f 40//28 22//28 39//28
f 5//29 23//29 39//29
f 20//30 49//30 48//30 19//30
f 36//31 40//31 32//31
f 30//32 23//32 5//32
f 4//33 49//33 20//33
f 18//34 19//34 48//34 47//34
f 17//35 18//35 47//35 46//35
f 17//36 46//36 45//36 16//36
f 15//37 16//37 45//37 44//37
f 2//38 42//38 16//38 15//38
f 15//39 43//39 4//39
f 15//40 44//40 43//40
f 8//41 20//41 35//41
f 4//42 20//42 8//42
f 35//43 20//43 19//43
f 35//44 19//44 41//44
f 17//45 16//45 42//45
f 43//46 1//46 10//46 49//46
f 44//47 3//47 43//47
f 45//48 14//48 44//48
f 13//49 14//49 45//49
f 47//50 12//50 46//50
f 48//51 11//51 47//51
f 10//52 11//52 48//52
f 22//53 31//53 21//53
f 32//54 40//54 23//54
f 23//55 40//55 39//55
f 6//56 14//56 29//56
f 28//57 13//57 12//57
f 27//58 3//58 6//58
f 14//59 28//59 29//59
f 24//60 34//60 31//60
f 30//61 26//61 32//61
f 30//62 6//62 26//62
f 26//63 37//63 32//63
f 34//64 27//64 6//64
f 27//65 1//65 3//65
f 6//66 3//66 14//66
f 7//67 24//67 25//67
f 12//68 7//68 38//68
f 38//69 7//69 25//69
f 22//70 21//70 39//70
f 21//71 5//71 39//71
f 33//72 31//72 22//72
f 34//73 30//73 5//73
f 40//74 36//74 9//74
f 4//75 43//75 49//75
f 41//76 19//76 18//76
f 41//77 18//77 17//77
f 41//78 17//78 42//78
f 46//79 13//79 45//79
f 46//80 12//80 13//80
f 47//81 11//81 12//81
f 49//82 10//82 48//82
