# Blender v2.77 (sub 0) OBJ File: 'room1.blend'
# www.blender.org
v 0.119477 0.727453 0.033836
v -0.302233 0.790782 -0.294037
v -0.211469 0.785604 0.346195
v 0.144933 0.790877 0.375458
v 0.341139 0.793205 -0.239171
v -0.004361 0.700000 -0.411568
v -0.315956 0.700000 -0.258624
v -0.390657 0.700000 0.080349
v -0.172211 0.700000 0.350099
v 0.174886 0.700000 0.347497
v 0.389264 0.700000 0.074504
v 0.309491 0.700000 -0.263312
v -0.410779 0.794751 0.046506
v 0.031513 0.785297 -0.422588
v 0.391203 0.790782 0.115092
v 0.051749 0.721500 0.034166
v 0.062107 0.722375 -0.037043
v 0.125468 0.442268 -0.038220
v 0.287682 -0.004811 0.036689
v 0.345631 -0.003204 0.042740
v 0.001100 0.721773 -0.065771
v -0.095503 0.446406 -0.088004
v -0.112052 -0.004810 -0.267492
v -0.138057 -0.004206 -0.317726
v -0.057661 0.721934 0.032558
v -0.000150 0.722564 0.074562
v -0.026632 0.435940 0.123794
v -0.175615 -0.004811 0.230795
v -0.205612 -0.004388 0.278385
v 0.287682 -0.004811 -0.036690
v 0.196502 0.109316 0.033017
v -0.028498 0.726851 -0.119628
v -0.084486 0.725677 -0.067948
v -0.175626 -0.004808 -0.230793
v -0.069249 0.110181 -0.185851
v -0.112066 -0.004811 0.267484
v -0.126845 0.109317 0.153668
v 0.343894 -0.004388 -0.038873
v 0.184825 0.125303 -0.032394
v -0.055670 0.721403 -0.027536
v -0.089041 0.727452 0.086551
v -0.064360 0.125303 0.176262
v 0.120525 0.435941 0.038833
v 0.304423 0.009620 -0.000001
v 0.125321 0.255321 -0.027644
v -0.032070 0.394270 -0.108619
v -0.152223 0.009616 -0.263621
v -0.109889 0.146500 -0.130230
v -0.139887 0.169270 -0.167396
v -0.093892 0.435941 0.084961
v -0.152209 0.009606 0.263649
v -0.040224 0.252269 0.124319
v -0.147660 0.152737 0.183128
v -0.106826 0.161939 0.214430
v -0.080411 0.150844 0.214724
v -0.135802 -0.003204 0.320694
v -0.005858 0.443186 0.075496
v -0.115665 0.181499 -0.200098
v -0.053471 0.442572 -0.111055
v -0.062725 0.445576 -0.044177
v 0.232424 0.152737 0.036313
v 0.239113 0.161941 -0.014702
v 0.226160 0.150844 -0.037723
v 0.072015 0.433529 -0.031500
v 0.066494 0.475745 0.032136
v 0.137496 0.444107 0.013760
v 0.123207 0.264067 0.027293
v -0.007819 0.467292 -0.074206
v -0.037609 0.264371 -0.119751
v -0.061838 0.466276 0.044786
v -0.070425 0.443794 0.121978
v -0.084788 0.265467 0.091810
v -0.127539 -0.001699 0.298191
v -0.194471 -0.001699 0.259548
v -0.194533 -0.001695 -0.259562
v -0.208694 -0.003343 -0.278420
v -0.129667 -0.001457 -0.303911
v 0.322011 -0.001699 -0.038643
v 0.322010 -0.001699 0.038643
vn -0.121000 -0.023200 -0.992400
vn 0.004600 1.000000 0.004000
vn -0.832200 0.021200 0.554100
vn -0.358800 0.030400 -0.932900
vn 0.989400 0.041300 -0.139500
vn -0.081900 0.007900 0.996600
vn -0.952400 0.025400 -0.303900
vn 0.508100 0.050200 -0.859800
vn 0.726200 0.028000 0.686900
vn -0.000100 0.999100 -0.042900
vn 0.004400 1.000000 0.006200
vn -0.018300 0.998900 0.042600
vn -0.002700 0.999900 -0.012500
vn -0.738500 -0.311400 0.598000
vn -0.423900 -0.272800 -0.863600
vn 0.939400 -0.261500 -0.221800
vn 0.007200 -0.291900 0.956400
vn -0.939400 -0.273400 -0.207000
vn 0.409500 -0.284200 -0.866900
vn 0.754800 -0.281100 0.592700
vn -0.175600 -0.087100 0.980600
vn -0.861300 0.009700 -0.508000
vn 0.503400 -0.298000 -0.811000
vn -0.621100 0.315500 0.717400
vn 0.089500 0.145000 0.985400
vn 0.937900 -0.068400 0.340100
vn 0.908400 -0.053700 0.414700
vn -0.775100 -0.017500 -0.631600
vn -0.791400 -0.047800 0.609400
vn -0.796600 -0.069200 0.600600
vn 0.827600 -0.010400 -0.561200
vn 0.931200 0.317300 0.179300
vn 0.778700 0.268100 -0.567300
vn -0.156200 -0.055700 -0.986100
vn -0.095000 -0.053700 -0.994000
vn -0.997400 -0.035400 -0.063000
vn -0.134800 -0.016300 0.990700
vn 0.826200 0.012600 0.563300
vn -0.064500 -0.022400 0.997700
vn -0.055700 -0.012400 0.998400
vn -0.661100 -0.544800 -0.515900
vn 0.787500 0.580200 0.207900
vn -0.010600 -0.000600 -0.999900
vn -0.961600 -0.259700 0.088800
vn -0.151300 -0.068600 0.986100
vn -0.800900 -0.015600 0.598700
vn 0.557800 -0.064200 0.827500
vn -0.479700 0.015700 -0.877300
vn -0.677000 0.079300 -0.731700
vn 0.038100 -0.033500 -0.998700
vn 0.899100 -0.024300 -0.437100
vn -0.116100 -0.545900 0.829800
vn 0.806700 0.243800 -0.538400
vn -0.409600 0.522900 -0.747500
vn -0.794600 -0.071000 0.602900
vn -0.800400 -0.045800 0.597700
vn 0.490600 0.174300 -0.853800
vn -0.349100 0.482500 -0.803300
vn 0.919400 -0.017500 0.392900
vn 0.589800 -0.014800 -0.807400
vn 0.423700 -0.421400 -0.801800
vn -0.845600 0.011200 0.533700
vn -0.831700 -0.022400 -0.554700
vn -0.836800 -0.012400 -0.547400
vn 0.777300 -0.544800 -0.314700
vn -0.593500 0.506600 0.625400
vn 0.935800 -0.104900 0.336600
vn 0.383500 -0.251900 -0.888500
vn -0.781500 -0.066700 -0.620300
vn -0.905400 -0.422100 0.046600
vn 0.892500 -0.011200 0.450900
vn 0.886400 0.009800 -0.462900
vn 0.052300 0.299800 0.952600
vn -0.835800 -0.001800 0.549100
vn -0.761400 0.537100 -0.363100
vn -0.055800 -0.011100 -0.998400
vn -0.663700 -0.541700 0.515900
vn 0.638400 0.488600 -0.594700
vn 0.776800 -0.546000 0.313800
vn -0.115000 -0.541600 -0.832700
vn 0.202600 0.504500 0.839300
vn -0.429900 0.578700 0.693100
vn 0.390600 -0.725000 -0.567200
vn -0.818900 0.275400 -0.503600
vn 0.254300 -0.714200 0.652100
vn -0.814600 -0.009500 0.579900
vn -0.686500 -0.725100 -0.054700
vn 0.003400 0.017100 0.999800
vn -0.987800 -0.058100 -0.144400
vn 0.970700 0.077800 -0.227400
vn 0.759200 0.174400 -0.627000
vn -0.115500 -0.056000 -0.991700
vn -0.117300 -0.017400 -0.992900
vn 0.909800 0.350100 -0.222900
vn 0.746200 0.289500 0.599400
vn -0.958100 -0.286400 0.008700
vn -0.172400 -0.068700 0.982600
vn 0.875100 -0.025400 -0.483300
vn 0.493300 -0.046100 0.868600
vn -0.417700 0.380900 -0.824900
vn 0.380200 -0.310600 0.871200
vn 0.540300 -0.259000 0.800600
vn 0.799600 0.017300 -0.600300
vn -0.863700 0.017100 -0.503700
vn 0.464500 -0.049900 -0.884200
vn 0.920200 -0.067000 0.385700
vn 0.919400 -0.014000 0.393000
vn -0.830100 0.316700 0.459000
vn -0.754900 -0.066500 -0.652500
vn -0.820500 -0.005500 -0.571600
vn 0.903600 -0.001800 -0.428300
vn 0.581200 -0.418500 0.697900
vn -0.086500 -0.004100 0.996200
vn 0.844100 0.535500 -0.025700
s off
f 18//1 64//1 17//1
f 15//2 13//2 4//2
f 3//3 13//3 8//3
f 2//4 14//4 6//4
f 5//5 15//5 11//5
f 4//6 3//6 9//6
f 13//7 2//7 7//7
f 14//8 5//8 12//8
f 15//9 4//9 10//9
f 2//10 5//10 14//10
f 5//11 13//11 15//11
f 4//12 13//12 3//12
f 13//13 5//13 2//13
f 3//14 8//14 9//14
f 2//15 6//15 7//15
f 5//16 11//16 12//16
f 4//17 9//17 10//17
f 13//18 7//18 8//18
f 14//19 12//19 6//19
f 15//20 10//20 11//20
f 79//21 20//21 61//21
f 74//22 29//22 53//22
f 57//23 52//23 72//23
f 53//24 54//24 71//24
f 41//25 71//25 27//25 26//25
f 27//26 55//26 52//26
f 55//27 73//27 42//27
f 25//28 70//28 50//28
f 22//29 49//29 48//29
f 49//30 75//30 48//30
f 21//31 68//31 46//31
f 61//32 62//32 66//32
f 18//33 62//33 63//33
f 18//34 63//34 45//34
f 63//35 78//35 39//35
f 65//36 17//36 64//36
f 16//37 65//37 43//37
f 1//38 43//38 66//38
f 31//39 79//39 61//39
f 19//40 79//40 31//40
f 31//41 44//41 19//41
f 61//42 20//42 62//42
f 63//43 38//43 78//43
f 65//44 64//44 67//44
f 67//45 61//45 43//45
f 22//46 60//46 40//46
f 40//47 60//47 21//47
f 59//48 22//48 32//48
f 32//49 22//49 33//49
f 46//50 59//50 32//50
f 23//51 77//51 35//51
f 35//52 47//52 23//52
f 77//53 24//53 58//53
f 24//54 76//54 58//54
f 49//55 76//55 75//55
f 60//56 22//56 48//56
f 46//57 58//57 59//57
f 46//58 77//58 58//58
f 27//59 57//59 26//59
f 26//60 57//60 25//60
f 72//61 52//61 42//61 37//61
f 41//62 50//62 71//62
f 37//63 74//63 53//63
f 28//64 74//64 37//64
f 37//65 51//65 28//65
f 53//66 56//66 54//66
f 55//67 56//67 73//67
f 70//68 57//68 72//68
f 72//69 53//69 50//69
f 67//70 45//70 39//70 31//70
f 42//71 73//71 36//71
f 35//72 77//72 46//72
f 27//73 71//73 54//73 55//73
f 48//74 75//74 34//74
f 58//75 76//75 49//75
f 39//76 78//76 30//76
f 44//77 39//77 30//77
f 62//78 38//78 63//78
f 47//79 48//79 34//79
f 51//80 42//80 36//80
f 54//81 56//81 55//81
f 53//82 29//82 56//82
f 37//83 42//83 51//83
f 22//84 58//84 49//84
f 35//85 48//85 47//85
f 33//86 22//86 40//86
f 31//87 39//87 44//87
f 1//88 16//88 43//88
f 65//89 16//89 17//89
f 1//90 66//90 18//90
f 1//91 18//91 17//91
f 64//92 18//92 45//92
f 45//93 63//93 39//93
f 18//94 66//94 62//94
f 43//95 61//95 66//95
f 67//96 64//96 45//96
f 65//97 67//97 43//97
f 32//98 21//98 46//98
f 21//99 60//99 68//99
f 59//100 58//100 22//100
f 69//101 60//101 48//101
f 68//102 60//102 69//102
f 46//103 68//103 69//103
f 41//104 25//104 50//104
f 25//105 57//105 70//105
f 57//106 27//106 52//106
f 52//107 55//107 42//107
f 50//108 53//108 71//108
f 70//109 72//109 50//109
f 72//110 37//110 53//110
f 69//111 35//111 46//111
f 69//112 48//112 35//112
f 67//113 31//113 61//113
f 62//114 20//114 38//114
