# Blender v2.77 (sub 0) OBJ File: 'room1.blend'
# www.blender.org
v -1.748404 0.326869 -5.895939
v -1.817984 0.329180 -5.622768
v -1.832046 0.329180 -5.809844
v -1.800622 0.329180 -5.712708
v -1.855715 0.329180 -5.546794
v -1.863257 0.336825 -5.531590
v -1.852379 0.340099 -5.961747
v -1.755720 0.338243 -5.888087
v -1.821646 0.337657 -5.598108
v -1.715304 0.338090 -5.730578
v -1.749397 0.314367 -5.894619
v -1.841887 0.314263 -5.966212
v -1.720530 0.307036 -5.737347
v -1.738672 0.304729 -5.592294
v -1.801584 0.306320 -5.469145
v -2.088770 0.326827 -5.895621
v -1.918522 0.326021 -5.969301
v -1.918483 0.329180 -5.507197
v -2.018981 0.329180 -5.622768
v -2.004920 0.329180 -5.809844
v -2.036343 0.329180 -5.712708
v -1.981251 0.329180 -5.546794
v -1.985072 0.338625 -5.542598
v -1.918137 0.333512 -5.396290
v -1.947811 0.338860 -5.862876
v -2.081248 0.338336 -5.887939
v -2.015198 0.337697 -5.597652
v -2.121818 0.338004 -5.730906
v -1.916909 0.312564 -5.397243
v -2.087846 0.314129 -5.890710
v -2.091291 0.311091 -5.538690
v -1.990399 0.313915 -5.969198
v -2.113543 0.308021 -5.676464
v -1.916754 0.305191 -5.406392
v -2.077763 0.307832 -5.888461
v -2.120528 0.305757 -5.732078
v -2.097920 0.304502 -5.587489
v -2.039765 0.306146 -5.473828
v -1.706590 0.326543 -5.733372
v -1.729865 0.326250 -5.584027
v -1.789193 0.326797 -5.459544
v -1.851835 0.340359 -5.420993
v -1.806427 0.327256 -5.667183
v -1.857880 0.326129 -5.835568
v -1.812109 0.325963 -5.762643
v -1.834249 0.327204 -5.583489
v -1.884563 0.325102 -5.522976
v -1.888329 0.329167 -5.855472
v -1.948322 0.329246 -5.855422
v -1.795588 0.338472 -5.467540
v -1.859557 0.344619 -5.505607
v -1.918459 0.338675 -5.501322
v -1.918703 0.339498 -5.958615
v -1.877510 0.347583 -5.934854
v -1.835459 0.337504 -5.824369
v -1.789946 0.346201 -5.517764
v -1.795090 0.338248 -5.703941
v -1.791675 0.345489 -5.608166
v -1.808809 0.335912 -5.763753
v -1.807090 0.348210 -5.893639
v -1.886820 0.339229 -5.863527
v -1.709397 0.313466 -5.724274
v -1.788298 0.312457 -5.465519
v -1.897885 0.313764 -5.967994
v -1.720790 0.311874 -5.622091
v -1.790638 0.309934 -5.936063
v -1.766905 0.310485 -5.894229
v -1.915462 0.309000 -5.949903
v -1.755842 0.306968 -5.888519
v -1.847800 0.308573 -5.955754
v -1.852166 0.308897 -5.430513
v -1.726791 0.308672 -5.662871
v -1.733203 0.310594 -5.811349
v -1.764713 0.308206 -5.528009
v -2.130483 0.326300 -5.733706
v -2.122608 0.324935 -5.636147
v -2.048254 0.328350 -5.939644
v -2.047758 0.326560 -5.459349
v -2.120801 0.326946 -5.817946
v -2.085252 0.326190 -5.517527
v -1.990484 0.326982 -5.971206
v -2.030539 0.327256 -5.667183
v -1.979086 0.326129 -5.835568
v -2.024857 0.325963 -5.762643
v -2.002717 0.327204 -5.583489
v -1.952403 0.325102 -5.522976
v -2.041757 0.338307 -5.467572
v -2.048776 0.346224 -5.522510
v -1.918093 0.346385 -5.889265
v -1.972768 0.347946 -5.934918
v -2.001393 0.337530 -5.824541
v -2.012648 0.345202 -5.849286
v -2.079564 0.339657 -5.530948
v -2.055213 0.344380 -5.754961
v -2.118872 0.338053 -5.658682
v -2.107771 0.341618 -5.812894
v -2.095132 0.346425 -5.737113
v -2.041822 0.342302 -5.928468
v -2.044055 0.347203 -5.880463
v -1.984084 0.340108 -5.961931
v -1.984918 0.341471 -5.422018
v -2.128208 0.314192 -5.731600
v -2.046449 0.313004 -5.461519
v -1.988559 0.307150 -5.420786
v -2.120745 0.311846 -5.663516
v -2.043114 0.306466 -5.933916
v -2.115631 0.309991 -5.812169
v -2.038917 0.310841 -5.925599
v -2.104647 0.310185 -5.812234
v -1.985044 0.309176 -5.429756
v -1.983328 0.310189 -5.954561
v -2.070650 0.308085 -5.522570
v -1.947390 0.343999 -5.487108
v -1.944608 0.347022 -5.440866
v -2.045435 0.345461 -5.608839
v -2.041931 0.338314 -5.703751
v -2.028278 0.335978 -5.763751
v -1.952785 0.336009 -5.519670
v -1.989959 0.320269 -5.413678
v -1.796942 0.311133 -5.929691
v -1.758113 0.310086 -5.516825
v -1.723518 0.305347 -5.809471
v -1.787955 0.327059 -5.940384
v -1.848347 0.303144 -5.423813
v -1.847250 0.326689 -5.971519
v -1.864003 0.348161 -5.458292
v -1.823780 0.345238 -5.848851
v -1.795505 0.342305 -5.927728
v -1.762497 0.340567 -5.525106
v -1.781503 0.344437 -5.754257
v -1.741788 0.346389 -5.736898
v -1.729580 0.341499 -5.812100
v -1.723878 0.339069 -5.640998
v -1.847813 0.320514 -5.415012
v -1.711762 0.327344 -5.657826
v -1.717385 0.328928 -5.817492
v -1.752411 0.327718 -5.518216
vn 0.545100 0.341200 0.765800
vn -0.560300 0.594500 -0.576800
vn -0.520100 0.210200 0.827800
vn -0.861700 0.328900 0.386400
vn -0.814900 0.574100 -0.079600
vn -0.349000 0.920100 0.177600
vn -0.146100 0.961200 0.234000
vn -0.026900 0.997400 -0.066300
vn -0.029300 -0.154600 -0.987500
vn 0.341800 -0.939500 0.023500
vn 0.458600 -0.174200 -0.871400
vn 0.230600 -0.903500 -0.361200
vn -0.048600 -0.865600 -0.498500
vn 0.524000 0.513800 -0.679300
vn 0.862900 0.321700 0.389800
vn 0.546900 0.836100 -0.042800
vn 0.312100 0.938300 0.149000
vn 0.003800 0.999800 0.018600
vn 0.180200 0.873600 0.452100
vn 0.024100 -0.151700 -0.988100
vn -0.493300 -0.326900 -0.806100
vn -0.170100 -0.984800 0.034200
vn 0.188000 -0.905100 0.381300
vn 0.001600 -0.968900 -0.247400
vn -0.389200 -0.791500 -0.471200
vn -0.284000 -0.940100 0.188300
vn 0.017900 -0.999200 0.037100
vn -0.278000 -0.960000 -0.033500
vn -0.696100 -0.302500 -0.651100
vn -0.245600 -0.897400 0.366600
vn 0.016300 -0.976600 -0.214200
vn -0.184800 0.969100 0.163300
vn 0.003000 0.957500 0.288400
vn 0.023500 0.957400 -0.287700
vn 0.029300 0.567300 -0.823000
vn 0.008900 0.999400 0.034200
vn -0.101200 0.966000 -0.237900
vn -0.209800 0.971700 -0.109000
vn -0.353000 0.648600 -0.674300
vn -0.564900 0.658600 -0.497100
vn 0.024700 0.999700 -0.007900
vn 0.579800 0.673200 -0.458900
vn -0.249800 0.953400 0.169300
vn -0.784400 0.571500 0.241000
vn -0.655900 0.628100 0.418700
vn 0.043000 0.998900 0.020800
vn -0.208200 0.971200 -0.116100
vn -0.303000 0.952900 -0.009900
vn -0.700900 0.651700 -0.290000
vn -0.731700 0.677000 -0.078900
vn 0.046500 0.998900 -0.010500
vn -0.298500 0.954400 0.011500
vn -0.223000 0.973200 0.056400
vn 0.038400 0.999200 -0.007400
vn -0.807000 0.589700 0.032500
vn -0.761900 0.606700 0.226800
vn 0.932900 0.274100 -0.233500
vn 0.921000 0.336400 0.196500
vn 0.758700 0.495000 -0.423500
vn 0.489200 0.518000 0.701700
vn 0.382500 0.485500 -0.786100
vn -0.545300 -0.443600 0.711200
vn -0.240400 -0.482100 0.842500
vn -0.940800 -0.326100 0.091900
vn -0.831000 -0.521700 0.192900
vn -0.867300 -0.375700 -0.326600
vn -0.935500 -0.329100 -0.128900
vn -0.807300 -0.346600 0.477700
vn 0.447700 0.816600 -0.364300
vn 0.418100 0.900400 0.120700
vn -0.122200 -0.990300 0.065500
vn 0.212900 -0.971100 -0.108000
vn 0.365400 -0.909200 0.199800
vn 0.615300 -0.775300 -0.142700
vn -0.496500 -0.843900 0.203000
vn 0.740600 -0.128500 -0.659600
vn 0.135600 -0.770400 0.623000
vn -0.253100 -0.800600 -0.543100
vn -0.123400 0.820300 -0.558400
vn -0.090200 0.913200 -0.397500
vn 0.007600 0.958200 0.285900
vn 0.158700 0.975500 0.152300
vn -0.016000 0.999800 0.012100
vn -0.022200 0.957600 -0.287300
vn -0.030800 0.581000 -0.813300
vn -0.014000 0.998000 0.061000
vn 0.076100 0.986500 -0.145000
vn 0.548500 0.684400 -0.480300
vn 0.349100 0.694900 -0.628700
vn -0.349000 0.910100 -0.223300
vn -0.024000 0.999700 -0.007400
vn 0.242400 0.954400 0.174100
vn 0.215900 0.974600 0.059300
vn 0.647100 0.639100 0.415700
vn 0.703700 0.673600 0.226100
vn -0.308500 0.950600 0.033600
vn -0.065500 0.997100 0.037700
vn 0.131100 0.990400 -0.043100
vn 0.780200 0.615600 -0.110900
vn 0.638800 0.727300 -0.250900
vn -0.036500 0.999300 -0.007200
vn 0.813800 0.542800 0.207700
vn 0.738100 0.671800 0.063300
vn -0.933300 0.273700 -0.232600
vn -0.908200 0.375500 0.184700
vn -0.830300 0.208700 -0.516800
vn 0.004600 0.624500 0.781000
vn -0.409100 0.480900 -0.775500
vn 0.252100 -0.029200 0.967300
vn 0.565800 -0.386500 0.728400
vn 0.971100 -0.017000 0.238000
vn 0.942500 -0.318800 0.100100
vn 0.947100 -0.293600 -0.129900
vn 0.890700 -0.335800 -0.306300
vn 0.836800 -0.165300 0.522000
vn 0.909200 -0.269000 0.317800
vn -0.790900 0.533000 -0.300700
vn -0.863200 0.323100 0.388000
vn -0.544300 0.837800 -0.043900
vn -0.312300 0.938500 0.147500
vn -0.192000 0.860200 0.472400
vn -0.002900 0.962500 0.271200
vn 0.468100 -0.284500 -0.836600
vn 0.209900 -0.963500 -0.165900
vn 0.186700 -0.981200 0.049600
vn 0.369700 0.916700 -0.151500
vn -0.914500 0.396800 0.079400
vn -0.535400 0.416400 0.734900
vn 0.637700 0.243800 -0.730700
vn 0.516000 0.205100 0.831700
vn 0.790000 0.534500 -0.300200
vn 0.859200 0.336200 0.385800
vn 0.813800 0.575700 -0.079400
vn 0.345100 0.921900 0.176100
vn 0.143000 0.961900 0.233200
vn 0.045600 0.996600 -0.067900
vn 0.267500 0.924600 -0.271200
vn 0.012800 -0.084700 -0.996300
vn -0.477400 -0.136500 -0.868000
vn -0.359600 0.927800 0.099800
vn -0.284200 0.958800 -0.003300
vn 0.000500 -0.967200 -0.254200
vn 0.204900 -0.905000 0.372700
vn -0.021300 -0.971300 -0.236900
vn -0.331700 -0.938800 0.092800
vn -0.438800 -0.864900 0.243600
vn -0.482300 -0.849200 -0.215300
vn 0.018000 -0.998300 0.054900
vn -0.684300 -0.330800 -0.649800
vn -0.443900 -0.895900 0.017800
vn 0.044300 -0.978100 -0.203600
vn -0.145200 -0.771600 0.619300
vn 0.056800 0.967400 -0.246800
vn -0.088300 0.990800 0.103000
vn -0.495100 0.653600 0.572400
vn 0.003800 0.944700 -0.328100
vn 0.045500 0.621100 -0.782400
vn 0.010200 0.998500 0.053800
vn -0.090800 0.990300 -0.105300
vn -0.348800 0.678600 -0.646400
vn -0.557000 0.681200 -0.475100
vn 0.307800 0.933400 -0.184200
vn -0.637300 0.662100 0.394300
vn 0.068800 0.996800 0.039700
vn 0.307400 0.951000 0.032900
vn -0.130400 0.990600 -0.041100
vn -0.672700 0.689700 -0.267900
vn -0.786500 0.608100 -0.107900
vn 0.269800 0.960900 -0.062400
vn -0.199700 0.978900 0.044000
vn 0.956400 0.142000 -0.255000
vn 0.908600 0.374500 0.184900
vn 0.815100 0.303900 -0.493200
vn 0.577400 0.642600 0.503600
vn 0.376900 0.280700 -0.882700
vn -0.621800 -0.182000 0.761800
vn -0.224900 -0.057400 0.972700
vn -0.285200 0.408800 0.866900
vn -0.982200 -0.171200 0.076900
vn -0.904000 -0.209900 -0.372500
vn -0.972700 -0.202400 -0.113400
vn -0.952900 -0.040000 0.300500
vn -0.828500 -0.165600 0.535000
vn 0.016300 -0.970700 -0.239800
vn -0.111400 -0.990800 0.076300
vn 0.102400 -0.989100 0.105900
vn 0.193000 -0.979900 0.050900
vn -0.494200 -0.853900 0.163300
vn 0.695900 -0.276300 -0.662900
vn 0.448100 -0.892200 0.057300
vn -0.172300 -0.793800 -0.583300
vn 0.281200 -0.860200 0.425500
vn 0.032800 -0.380600 -0.924200
vn -0.116100 0.955800 -0.270200
vn -0.027800 0.997600 -0.063500
vn 0.028500 0.980200 0.195800
vn 0.160400 0.972700 0.167700
vn 0.492500 0.659100 0.568400
vn -0.042600 0.620400 -0.783100
vn 0.200000 0.974600 -0.100800
vn 0.080000 0.977100 -0.197100
vn 0.550900 0.677400 -0.487400
vn 0.355800 0.635500 -0.685200
vn -0.304500 0.935600 -0.178800
vn 0.617600 0.688600 0.380100
vn 0.703200 0.674300 0.225600
vn -0.069100 0.996800 0.040400
vn 0.301800 0.953300 -0.013000
vn 0.200800 0.973300 -0.110800
vn 0.700900 0.709900 -0.069800
vn 0.698900 0.652200 -0.293500
vn -0.272000 0.960200 -0.062900
vn -0.044600 0.999000 -0.010300
vn 0.182400 0.982400 0.040900
vn 0.295100 0.955300 0.017800
vn 0.802900 0.594100 0.048700
vn -0.957500 0.134700 -0.255000
vn -0.923300 0.328500 0.199000
vn -0.817800 0.294700 -0.494300
vn -0.577500 0.642300 0.503800
vn -0.476000 0.592000 0.650400
vn 0.001500 0.612600 0.790400
vn -0.412200 0.082500 -0.907400
vn 0.299300 0.330400 0.895100
vn 0.270800 -0.441700 0.855300
vn 0.600100 -0.275500 0.751000
vn 0.984200 -0.163200 0.069100
vn 0.948000 -0.290600 -0.129400
vn 0.925100 -0.111900 -0.362900
vn 0.834100 -0.230200 0.501300
vn 0.909900 -0.266800 0.317700
s off
f 134//1 41//1 42//1
f 6//2 5//2 47//2
f 55//3 48//3 44//3
f 59//4 3//4 45//4
f 57//5 4//5 43//5
f 130//6 55//6 59//6
f 127//7 61//7 55//7
f 126//8 56//8 113//8
f 64//9 17//9 125//9
f 62//10 65//10 72//10
f 123//11 12//11 125//11
f 120//12 70//12 12//12
f 70//13 68//13 12//13
f 118//14 22//14 23//14
f 117//15 20//15 91//15
f 115//16 116//16 94//16
f 94//17 91//17 92//17
f 99//18 54//18 90//18
f 92//19 25//19 89//19
f 17//20 32//20 81//20
f 77//21 32//21 106//21
f 112//22 31//22 105//22
f 106//23 111//23 108//23
f 64//24 111//24 32//24
f 30//25 108//25 35//25
f 103//26 31//26 112//26
f 107//27 35//27 109//27
f 102//28 109//28 33//28
f 77//29 30//29 16//29
f 110//30 103//30 38//30
f 34//31 104//31 110//31
f 101//32 88//32 87//32
f 114//33 101//33 24//33
f 90//34 53//34 100//34
f 100//35 17//35 81//35
f 99//36 89//36 54//36
f 98//37 90//37 100//37
f 26//38 99//38 98//38
f 77//39 100//39 81//39
f 16//40 98//40 77//40
f 113//41 115//41 88//41
f 23//42 115//42 113//42
f 88//43 93//43 87//43
f 93//44 76//44 80//44
f 87//45 80//45 78//45
f 97//46 92//46 99//46
f 96//47 99//47 26//47
f 28//48 97//48 96//48
f 79//49 26//49 16//49
f 75//50 96//50 79//50
f 115//51 94//51 97//51
f 95//52 97//52 28//52
f 88//53 95//53 93//53
f 115//54 97//54 88//54
f 95//55 28//55 75//55
f 93//56 95//56 76//56
f 19//57 116//57 27//57
f 116//58 84//58 117//58
f 22//59 27//59 23//59
f 91//60 49//60 25//60
f 18//61 118//61 52//61
f 119//62 103//62 104//62
f 29//63 119//63 104//63
f 76//64 102//64 105//64
f 31//65 76//65 105//65
f 79//66 30//66 107//66
f 102//67 79//67 107//67
f 103//68 80//68 31//68
f 69//69 120//69 67//69
f 14//70 72//70 74//70
f 120//71 12//71 66//71
f 67//72 66//72 11//72
f 74//73 63//73 15//73
f 73//74 62//74 13//74
f 67//75 122//75 73//75
f 11//76 123//76 1//76
f 34//77 124//77 29//77
f 71//78 63//78 124//78
f 51//79 52//79 113//79
f 56//80 51//80 113//80
f 42//81 114//81 24//81
f 50//82 126//82 42//82
f 54//83 89//83 60//83
f 53//84 54//84 7//84
f 17//85 7//85 125//85
f 60//86 89//86 127//86
f 128//87 54//87 60//87
f 1//88 128//88 8//88
f 123//89 7//89 128//89
f 58//90 6//90 51//90
f 58//91 51//91 56//91
f 129//92 56//92 50//92
f 133//93 56//93 129//93
f 137//94 50//94 41//94
f 40//95 129//95 137//95
f 130//96 59//96 57//96
f 131//97 127//97 130//97
f 132//98 60//98 131//98
f 39//99 132//99 10//99
f 136//100 8//100 132//100
f 131//101 58//101 56//101
f 135//102 133//102 40//102
f 135//103 10//103 133//103
f 57//104 2//104 9//104
f 57//105 45//105 4//105
f 9//106 5//106 6//106
f 25//107 48//107 61//107
f 6//108 18//108 52//108
f 29//109 134//109 24//109
f 63//110 134//110 124//110
f 65//111 135//111 40//111
f 62//112 135//112 65//112
f 62//113 136//113 39//113
f 11//114 136//114 122//114
f 63//115 137//115 41//115
f 65//116 137//116 121//116
f 9//117 2//117 46//117
f 59//118 55//118 3//118
f 58//119 130//119 57//119
f 130//120 127//120 55//120
f 127//121 89//121 61//121
f 89//122 25//122 61//122
f 123//123 66//123 12//123
f 67//124 11//124 122//124
f 121//125 72//125 65//125
f 73//126 69//126 67//126
f 76//127 95//127 75//127
f 119//128 101//128 78//128
f 118//129 86//129 22//129
f 91//130 83//130 49//130
f 85//131 19//131 27//131
f 117//132 84//132 20//132
f 116//133 82//133 21//133
f 94//134 117//134 91//134
f 92//135 91//135 25//135
f 114//136 113//136 88//136
f 118//137 23//137 113//137
f 17//138 64//138 32//138
f 77//139 81//139 32//139
f 112//140 33//140 37//140
f 36//141 33//141 109//141
f 64//142 68//142 111//142
f 30//143 106//143 108//143
f 32//144 111//144 106//144
f 112//145 105//145 33//145
f 38//146 103//146 112//146
f 107//147 30//147 35//147
f 102//148 107//148 109//148
f 77//149 106//149 30//149
f 105//150 102//150 33//150
f 110//151 104//151 103//151
f 34//152 29//152 104//152
f 52//153 118//153 113//153
f 101//154 114//154 88//154
f 101//155 87//155 78//155
f 90//156 54//156 53//156
f 100//157 53//157 17//157
f 99//158 92//158 89//158
f 98//159 99//159 90//159
f 77//160 98//160 100//160
f 16//161 26//161 98//161
f 23//162 27//162 115//162
f 87//163 93//163 80//163
f 97//164 94//164 92//164
f 94//165 116//165 117//165
f 96//166 97//166 99//166
f 79//167 96//167 26//167
f 75//168 28//168 96//168
f 27//169 116//169 115//169
f 88//170 97//170 95//170
f 19//171 82//171 116//171
f 116//172 21//172 84//172
f 22//173 85//173 27//173
f 20//174 83//174 91//174
f 18//175 86//175 118//175
f 119//176 78//176 103//176
f 29//177 24//177 119//177
f 24//178 101//178 119//178
f 76//179 75//179 102//179
f 79//180 16//180 30//180
f 102//181 75//181 79//181
f 80//182 76//182 31//182
f 103//183 78//183 80//183
f 12//184 68//184 64//184
f 67//185 120//185 66//185
f 74//186 121//186 63//186
f 74//187 72//187 121//187
f 73//188 122//188 62//188
f 11//189 66//189 123//189
f 13//190 62//190 72//190
f 34//191 71//191 124//191
f 71//192 15//192 63//192
f 12//193 64//193 125//193
f 51//194 6//194 52//194
f 126//195 113//195 114//195
f 42//196 126//196 114//196
f 50//197 56//197 126//197
f 41//198 50//198 42//198
f 17//199 53//199 7//199
f 8//200 128//200 60//200
f 128//201 7//201 54//201
f 1//202 123//202 128//202
f 123//203 125//203 7//203
f 58//204 9//204 6//204
f 137//205 129//205 50//205
f 40//206 133//206 129//206
f 131//207 60//207 127//207
f 10//208 132//208 131//208
f 132//209 8//209 60//209
f 39//210 136//210 132//210
f 136//211 1//211 8//211
f 58//212 57//212 9//212
f 58//213 131//213 130//213
f 133//214 131//214 56//214
f 133//215 10//215 131//215
f 135//216 39//216 10//216
f 57//217 43//217 2//217
f 57//218 59//218 45//218
f 9//219 46//219 5//219
f 55//220 44//220 3//220
f 55//221 61//221 48//221
f 25//222 49//222 48//222
f 6//223 47//223 18//223
f 134//224 42//224 24//224
f 29//225 124//225 134//225
f 63//226 41//226 134//226
f 62//227 39//227 135//227
f 62//228 122//228 136//228
f 11//229 1//229 136//229
f 63//230 121//230 137//230
f 65//231 40//231 137//231
