# Blender v2.77 (sub 0) OBJ File: 'room1.blend'
# www.blender.org
v -1.896031 0.404338 -6.059984
v -1.939934 0.401511 -5.999125
v -1.955735 0.402578 -6.023084
v -1.902096 0.288114 -5.996066
v -1.950632 0.309011 -6.031406
v -1.937044 0.266784 -6.048485
v -1.956203 0.240878 -5.947384
v -1.942272 0.213685 -5.949702
v -1.918483 0.327399 -6.065669
v -1.918483 0.404751 -6.066364
v -1.940860 0.404341 -6.060025
v -1.939955 0.401514 -5.999162
v -1.918483 0.333200 -6.000620
v -1.918483 0.401233 -5.992275
v -1.901557 0.318984 -6.005092
v -1.897010 0.401514 -5.999162
v -1.881234 0.402578 -6.023073
v -1.918483 0.264239 -6.052934
v -1.934422 0.288977 -5.996224
v -1.918483 0.297409 -5.996674
v -1.886330 0.308393 -6.031380
v -1.899867 0.266866 -6.048447
v -1.918483 0.216897 -6.001492
v -1.950576 0.254254 -5.987064
v -1.918483 0.276653 -5.975165
v -1.918483 0.206485 -5.950048
v -1.918483 0.279838 -5.943378
v -1.880768 0.240866 -5.947385
v -1.894655 0.213711 -5.949700
v -1.918483 0.366067 -6.066925
v -1.887185 0.278078 -6.037069
v -1.884093 0.403448 -6.043251
v -1.886334 0.309011 -6.031406
v -1.881231 0.402578 -6.023083
v -1.897031 0.401510 -5.999125
v -1.918483 0.367346 -5.997500
v -1.935641 0.318423 -6.005321
v -1.949780 0.278077 -6.037069
v -1.952872 0.403448 -6.043251
v -1.938225 0.307072 -6.059075
v -1.940936 0.404338 -6.059984
v -1.899922 0.266784 -6.048485
v -1.918483 0.315077 -6.000713
v -1.901324 0.318424 -6.005322
v -1.918483 0.295163 -6.062554
v -1.905190 0.217663 -5.996540
v -1.935886 0.272015 -5.974804
v -1.946584 0.228149 -5.991765
v -1.931775 0.217663 -5.996541
v -1.934870 0.288113 -5.996066
v -1.918483 0.284918 -5.987958
v -1.896152 0.242533 -6.025588
v -1.918483 0.236747 -6.030729
v -1.894693 0.213686 -5.949702
v -1.880763 0.240878 -5.947384
v -1.892124 0.270828 -5.944532
v -1.944841 0.270828 -5.944531
v -1.918483 0.276595 -5.959106
v -1.901079 0.272015 -5.974804
v -1.890382 0.228150 -5.991765
v -1.950557 0.254260 -5.987244
v -1.918483 0.209950 -5.976122
v -1.950636 0.308393 -6.031380
v -1.955732 0.402578 -6.023074
v -1.896105 0.404340 -6.060025
v -1.937099 0.266866 -6.048447
v -1.946658 0.307921 -6.018188
v -1.890307 0.307922 -6.018188
v -1.935409 0.318985 -6.005092
v -1.895785 0.242902 -6.025255
v -1.942309 0.213711 -5.949700
v -1.956197 0.240866 -5.947385
v -1.944806 0.270944 -5.944533
v -1.892159 0.270945 -5.944533
v -1.935692 0.272200 -5.975104
v -1.946511 0.228181 -5.992174
v -1.886390 0.254254 -5.987064
v -1.905295 0.217840 -5.996998
v -1.931671 0.217840 -5.996998
v -1.901274 0.272200 -5.975104
v -1.890455 0.228181 -5.992174
v -1.949596 0.277998 -6.037402
v -1.941180 0.242902 -6.025255
v -1.902543 0.288976 -5.996224
v -1.938307 0.308563 -6.059109
v -1.898659 0.308563 -6.059109
v -1.887370 0.277997 -6.037402
v -1.884044 0.403445 -6.043236
v -1.952922 0.403445 -6.043238
v -1.940814 0.242533 -6.025588
v -1.886409 0.254260 -5.987245
v -1.946633 0.308036 -6.018216
v -1.890333 0.308036 -6.018216
v -1.898740 0.307072 -6.059075
vn 0.834700 -0.052100 0.548200
vn -0.955700 -0.077400 0.284000
vn -0.813100 -0.028100 -0.581500
vn -0.322900 -0.017800 -0.946300
vn 0.127400 0.286700 0.949500
vn -0.901400 -0.321200 -0.290400
vn -0.312400 -0.250000 -0.916500
vn 0.229300 0.972900 -0.029700
vn 0.612300 -0.684600 -0.395600
vn -0.326000 -0.765800 -0.554200
vn 0.197400 0.786100 0.585800
vn 0.987400 -0.136300 -0.080500
vn 0.977000 -0.117800 -0.177900
vn -0.890400 -0.450700 -0.063700
vn 0.693800 0.697900 -0.177900
vn 0.608500 -0.767500 -0.201600
vn -0.313700 -0.937600 -0.149900
vn -0.934500 0.355700 -0.012900
vn -0.834600 -0.051700 0.548400
vn 0.322100 -0.017600 -0.946500
vn -0.196900 0.218500 0.955800
vn 0.904500 -0.316000 -0.286400
vn 0.323300 -0.243200 -0.914500
vn -0.807200 0.142800 0.572800
vn -0.224000 0.974200 -0.026800
vn -0.823000 0.467900 0.322200
vn 0.339900 -0.757500 -0.557400
vn -0.067400 0.838000 0.541400
vn -0.977000 -0.117400 -0.178000
vn -0.695500 0.696000 -0.178800
vn -0.603400 -0.771200 -0.203000
vn 0.317500 -0.935800 -0.153100
vn 0.695500 0.696000 -0.178800
vn 0.157000 -0.952500 -0.260800
vn 0.603400 -0.771200 -0.203000
vn -0.157000 -0.952500 -0.260800
vn -0.317500 -0.935800 -0.153100
vn 0.224000 0.974200 -0.026800
vn 0.977000 -0.117400 -0.178100
vn -0.777500 -0.364000 -0.512900
vn -0.904500 -0.316000 -0.286400
vn 0.928300 0.235000 0.288300
vn 0.561900 0.445300 0.697100
vn 0.823000 0.467900 0.322200
vn 0.266200 -0.605700 -0.749900
vn -0.266200 -0.605700 -0.749900
vn -0.339800 -0.757500 -0.557500
vn -0.562000 0.445300 0.697100
vn -0.928300 0.235000 0.288300
vn 0.067400 0.838000 0.541400
vn 0.807200 0.142700 0.572800
vn -0.231500 -0.093600 -0.968300
vn -0.323400 -0.243200 -0.914500
vn 0.231500 -0.093600 -0.968300
vn 0.251500 -0.005000 0.967800
vn 0.196900 0.218500 0.955800
vn 0.777500 -0.364000 -0.512900
vn -0.251500 -0.005000 0.967800
vn 0.989300 -0.041200 -0.139700
vn 0.857900 -0.046500 -0.511700
vn 0.717000 -0.089200 0.691300
vn 0.303900 -0.145200 0.941600
vn 0.216600 -0.088800 0.972200
vn -0.190600 -0.080800 0.978300
vn -0.955400 -0.076900 0.285300
vn -0.811100 -0.027200 -0.584200
vn -0.999100 -0.027900 -0.031500
vn -0.272800 0.013900 -0.962000
vn -0.287200 -0.031100 -0.957400
vn 0.289100 -0.949000 -0.126100
vn 0.152200 -0.953300 -0.261000
vn -0.309900 0.931200 -0.192000
vn -0.257400 0.966300 0.003500
vn 0.779300 -0.361900 -0.511600
vn -0.828200 0.465200 0.312600
vn -0.325100 -0.622000 -0.712300
vn 0.248800 -0.801300 -0.544000
vn 0.263000 -0.606200 -0.750600
vn 0.924200 0.239000 0.297900
vn 0.563400 0.442800 0.697500
vn -0.104200 0.835400 0.539700
vn -0.282200 0.549000 0.786700
vn -0.809400 0.152600 0.567100
vn 0.260300 -0.286800 -0.921900
vn 0.227300 -0.093700 -0.969300
vn -0.213300 0.217700 0.952400
vn -0.260200 -0.005000 0.965500
vn 0.743500 -0.190300 -0.641100
vn -0.999400 -0.022700 -0.026400
vn -0.287700 -0.031100 -0.957200
vn -0.999600 -0.025300 -0.012300
vn -0.834700 -0.052100 0.548200
vn -0.196200 -0.083000 0.977000
vn 0.196200 -0.083000 0.977000
vn 0.955700 -0.077400 0.284000
vn 0.999600 -0.025300 -0.012300
vn 0.813100 -0.028100 -0.581500
vn 0.287700 -0.031100 -0.957200
vn 0.322900 -0.017800 -0.946300
vn 0.989000 -0.041300 -0.142200
vn 0.302700 -0.145200 0.942000
vn -0.273600 0.013900 -0.961700
vn 0.213300 0.217700 0.952400
vn -0.743400 -0.190300 -0.641100
vn -0.260300 -0.286800 -0.921900
vn 0.809400 0.152500 0.567100
vn 0.309900 0.931200 -0.192000
vn 0.828100 0.465200 0.312600
vn -0.248900 -0.801300 -0.544000
vn 0.104200 0.835400 0.539700
vn -0.289000 -0.949000 -0.126100
vn -0.989300 -0.041200 -0.139700
vn -0.303900 -0.145200 0.941600
vn 0.955300 -0.076900 0.285300
vn 0.811100 -0.027200 -0.584200
vn 0.272800 0.013900 -0.962000
vn -0.120000 0.277700 0.953100
vn 0.738700 -0.187000 -0.647500
vn 0.262500 -0.286600 -0.921400
vn -0.306600 0.932200 -0.192200
vn -0.607800 -0.684500 -0.402500
vn 0.243000 -0.802500 -0.544900
vn -0.198000 0.773300 0.602400
vn -0.986900 -0.137400 -0.084000
vn 0.890700 -0.449900 -0.065200
vn 0.289600 -0.948800 -0.126100
vn 0.934700 0.355200 -0.012600
vn -0.289600 -0.948800 -0.126100
vn -0.934700 0.355200 -0.012600
vn 0.250600 0.968100 0.003500
vn 0.306500 0.932200 -0.192200
vn -0.890700 -0.449900 -0.065200
vn -0.999100 -0.027700 -0.032500
vn -0.269200 0.551100 0.789800
vn 0.339000 -0.623800 -0.704200
vn 0.607800 -0.684500 -0.402500
vn -0.339000 -0.623800 -0.704200
vn -0.243000 -0.802500 -0.544900
vn 0.269200 0.551100 0.789800
vn 0.198000 0.773300 0.602400
vn -0.250600 0.968100 0.003500
vn -0.262500 -0.286600 -0.921400
vn 0.120000 0.277700 0.953100
vn -0.738800 -0.187000 -0.647500
vn 0.999100 -0.027700 -0.032500
vn 0.986900 -0.137400 -0.084000
vn 0.287200 -0.031100 -0.957400
vn 0.999100 -0.028000 -0.031500
vn 0.834700 -0.051700 0.548300
vn 0.190600 -0.080800 0.978300
vn -0.216700 -0.088800 0.972200
vn -0.717000 -0.089200 0.691300
vn -0.857900 -0.046500 -0.511700
vn -0.322000 -0.017600 -0.946600
vn -0.693800 0.697900 -0.177900
vn -0.608500 -0.767500 -0.201600
vn -0.152200 -0.953300 -0.261000
vn 0.313700 -0.937600 -0.149900
vn 0.934500 0.355700 -0.012900
vn -0.229300 0.972900 -0.029700
vn -0.977000 -0.117800 -0.177900
vn 0.890400 -0.450700 -0.063700
vn 0.901400 -0.321200 -0.290300
vn 0.999400 -0.022700 -0.026400
vn 0.282200 0.549000 0.786700
vn -0.563400 0.442800 0.697500
vn -0.924200 0.239000 0.297800
vn -0.612300 -0.684500 -0.395600
vn -0.263000 -0.606200 -0.750600
vn 0.326100 -0.765800 -0.554200
vn 0.325200 -0.622000 -0.712300
vn -0.197300 0.786100 0.585800
vn 0.257500 0.966300 0.003500
vn 0.312400 -0.250100 -0.916500
vn -0.227300 -0.093700 -0.969300
vn -0.127300 0.286700 0.949500
vn -0.987400 -0.136300 -0.080500
vn -0.779400 -0.361800 -0.511500
vn 0.260300 -0.005000 0.965500
vn -0.858000 -0.046400 -0.511600
vn -0.989000 -0.041300 -0.142200
vn -0.721700 -0.088500 0.686500
vn -0.215200 -0.088900 0.972500
vn -0.302700 -0.145200 0.942000
vn 0.215200 -0.088900 0.972500
vn 0.721800 -0.088500 0.686500
vn 0.857900 -0.046400 -0.511700
vn 0.273600 0.013900 -0.961700
s off
f 34//1 35//1 93//1
f 92//2 3//2 5//2
f 39//3 41//3 40//3
f 41//4 30//4 40//4
f 44//5 20//5 4//5
f 90//6 48//6 38//6
f 45//7 6//7 40//7
f 58//8 56//8 59//8
f 52//9 60//9 46//9
f 53//10 49//10 90//10
f 4//11 25//11 59//11
f 31//12 91//12 60//12
f 91//13 55//13 60//13
f 48//14 8//14 7//14
f 59//15 56//15 91//15
f 60//16 54//16 46//16
f 62//17 8//17 49//17
f 61//18 7//18 57//18
f 12//19 64//19 67//19
f 30//20 65//20 86//20
f 69//21 20//21 43//21
f 81//22 70//22 87//22
f 22//23 45//23 86//23
f 67//24 19//24 69//24
f 73//25 58//25 75//25
f 24//26 75//26 19//26
f 78//27 53//27 70//27
f 19//28 25//28 51//28
f 72//29 24//29 76//29
f 73//30 75//30 24//30
f 71//31 76//31 79//31
f 29//32 62//32 78//32
f 80//33 74//33 77//33
f 78//34 62//34 23//34
f 81//35 29//35 78//35
f 62//36 79//36 23//36
f 62//37 71//37 79//37
f 58//38 74//38 80//38
f 77//39 28//39 81//39
f 83//40 82//40 66//40
f 83//41 76//41 82//41
f 68//42 77//42 21//42
f 84//43 77//43 68//43
f 80//44 77//44 84//44
f 22//45 53//45 18//45
f 53//46 66//46 18//46
f 53//47 79//47 83//47
f 24//48 19//48 67//48
f 24//49 67//49 63//49
f 25//50 84//50 51//50
f 84//51 68//51 15//51
f 45//52 85//52 9//52
f 45//53 66//53 85//53
f 86//54 45//54 9//54
f 43//55 15//55 13//55
f 20//56 15//56 43//56
f 87//57 70//57 22//57
f 69//58 43//58 13//58
f 21//59 88//59 17//59
f 87//60 86//60 88//60
f 15//61 68//61 16//61
f 36//62 16//62 14//62
f 13//63 16//63 36//63
f 13//64 12//64 69//64
f 67//65 64//65 63//65
f 89//66 11//66 85//66
f 63//67 89//67 82//67
f 30//68 11//68 10//68
f 85//69 30//69 9//69
f 62//70 54//70 26//70
f 46//71 62//71 23//71
f 58//72 57//72 27//72
f 25//73 47//73 58//73
f 31//74 52//74 42//74
f 61//75 47//75 50//75
f 6//76 53//76 90//76
f 53//77 46//77 23//77
f 42//78 53//78 18//78
f 93//79 91//79 33//79
f 4//80 91//80 93//80
f 50//81 25//81 51//81
f 20//82 50//82 51//82
f 92//83 50//83 37//83
f 45//84 42//84 18//84
f 94//85 45//85 9//85
f 37//86 20//86 43//86
f 37//87 43//87 13//87
f 94//88 31//88 42//88
f 5//89 38//89 61//89
f 40//90 30//90 9//90
f 5//91 39//91 38//91
f 2//92 3//92 92//92
f 13//93 2//93 37//93
f 35//94 13//94 44//94
f 34//95 93//95 33//95
f 32//96 33//96 31//96
f 1//97 32//97 94//97
f 30//98 94//98 9//98
f 30//99 1//99 94//99
f 32//100 34//100 33//100
f 35//101 14//101 36//101
f 41//102 10//102 30//102
f 44//103 43//103 20//103
f 40//104 6//104 38//104
f 45//105 18//105 6//105
f 93//106 44//106 4//106
f 58//107 27//107 56//107
f 91//108 4//108 59//108
f 53//109 23//109 49//109
f 4//110 51//110 25//110
f 62//111 26//111 8//111
f 63//112 64//112 89//112
f 36//113 14//113 12//113
f 68//114 21//114 17//114
f 88//115 86//115 65//115
f 30//116 10//116 65//116
f 69//117 19//117 20//117
f 87//118 22//118 86//118
f 22//119 18//119 45//119
f 73//120 27//120 58//120
f 83//121 79//121 76//121
f 78//122 23//122 53//122
f 19//123 75//123 25//123
f 82//124 76//124 24//124
f 81//125 28//125 29//125
f 29//126 26//126 62//126
f 77//127 74//127 28//127
f 62//128 26//128 71//128
f 72//129 73//129 24//129
f 25//130 58//130 80//130
f 58//131 27//131 74//131
f 71//132 72//132 76//132
f 82//133 24//133 63//133
f 19//134 51//134 20//134
f 22//135 70//135 53//135
f 81//136 78//136 70//136
f 53//137 83//137 66//137
f 53//138 23//138 79//138
f 20//139 51//139 84//139
f 25//140 80//140 84//140
f 75//141 58//141 25//141
f 45//142 18//142 66//142
f 20//143 84//143 15//143
f 85//144 66//144 82//144
f 21//145 77//145 87//145
f 77//146 81//146 87//146
f 86//147 9//147 30//147
f 21//148 87//148 88//148
f 16//149 68//149 17//149
f 13//150 15//150 16//150
f 13//151 36//151 12//151
f 69//152 12//152 67//152
f 82//153 89//153 85//153
f 30//154 85//154 11//154
f 47//155 61//155 57//155
f 48//156 49//156 8//156
f 49//157 23//157 62//157
f 62//158 46//158 54//158
f 91//159 56//159 55//159
f 58//160 47//160 57//160
f 61//161 48//161 7//161
f 60//162 55//162 54//162
f 52//163 31//163 60//163
f 33//164 91//164 31//164
f 20//165 51//165 4//165
f 50//166 92//166 61//166
f 92//167 5//167 61//167
f 90//168 49//168 48//168
f 6//169 18//169 53//169
f 53//170 52//170 46//170
f 42//171 52//171 53//171
f 50//172 47//172 25//172
f 25//173 58//173 59//173
f 45//174 94//174 42//174
f 40//175 9//175 45//175
f 37//176 50//176 20//176
f 38//177 48//177 61//177
f 38//178 6//178 90//178
f 44//179 13//179 43//179
f 38//180 39//180 40//180
f 5//181 3//181 39//181
f 37//182 2//182 92//182
f 13//183 36//183 2//183
f 36//184 14//184 2//184
f 35//185 36//185 13//185
f 93//186 35//186 44//186
f 94//187 32//187 31//187
f 30//188 10//188 1//188
