# Blender v2.77 (sub 0) OBJ File: 'room1.blend'
# www.blender.org
v -0.468119 -0.011138 -3.477881
v -0.468119 1.250026 -3.477881
v -0.468119 -0.011138 -3.998024
v -0.468119 1.250026 -3.998024
v 1.531881 -0.011138 -3.477881
v 1.531881 1.250026 -3.477881
v 1.531881 -0.011138 -3.998024
v 1.531881 1.250026 -3.998024
v -0.468119 1.199481 -3.477881
v -0.468119 1.199481 -3.998024
v 1.531881 1.199481 -3.998024
v 1.531881 1.199481 -3.477881
v -0.486556 1.204258 -3.460427
v -0.486556 1.245249 -3.460427
v -0.486556 1.245249 -4.015479
v 1.550318 1.245249 -4.015479
v 1.550318 1.245249 -3.460427
v -0.486556 1.204258 -4.015479
v 1.550318 1.204258 -4.015479
v 1.550318 1.204258 -3.460427
v -0.445390 0.076910 -3.477881
v 1.496164 0.076910 -3.477881
v -0.445390 0.376910 -3.477881
v 1.496164 0.376910 -3.477881
v -0.445390 0.376910 -3.503836
v -0.445390 0.076910 -3.503836
v 1.496164 0.376910 -3.503836
v 1.496164 0.076910 -3.503836
v 1.484377 0.367828 -3.508087
v -0.433603 0.367828 -3.508087
v 1.484377 0.085992 -3.508087
v -0.433603 0.085992 -3.508087
v -0.415102 0.102686 -3.460615
v 1.465876 0.102686 -3.460615
v -0.415102 0.351134 -3.460615
v 1.465876 0.351134 -3.460615
v -0.445390 0.476910 -3.477881
v 1.496164 0.476910 -3.477881
v -0.445390 0.776910 -3.477881
v 1.496164 0.776910 -3.477881
v -0.445390 0.776910 -3.503836
v -0.445390 0.476910 -3.503836
v 1.496164 0.776910 -3.503836
v 1.496164 0.476910 -3.503836
v 1.484377 0.767828 -3.508087
v -0.433603 0.767828 -3.508087
v 1.484377 0.485992 -3.508087
v -0.433603 0.485992 -3.508087
v -0.415102 0.502686 -3.460615
v 1.465876 0.502686 -3.460615
v -0.415102 0.751134 -3.460615
v 1.465876 0.751134 -3.460615
v -0.445390 0.876910 -3.477881
v 1.496164 0.876910 -3.477881
v -0.445390 1.176910 -3.477881
v 1.496164 1.176910 -3.477881
v -0.445390 1.176910 -3.503836
v -0.445390 0.876910 -3.503836
v 1.496164 1.176910 -3.503836
v 1.496164 0.876910 -3.503836
v 1.484377 1.167828 -3.508087
v -0.433603 1.167828 -3.508087
v 1.484377 0.885992 -3.508087
v -0.433603 0.885992 -3.508087
v -0.415102 0.902686 -3.460615
v 1.465876 0.902686 -3.460615
v -0.415102 1.151134 -3.460615
v 1.465876 1.151134 -3.460615
vn 0.339300 0.000000 -0.940700
vn 1.000000 0.000000 0.000000
vn -1.000000 0.000000 0.000000
vn 0.000000 0.000000 1.000000
vn 0.250800 0.968000 0.000000
vn 0.000000 -0.964500 -0.264000
vn 0.000000 0.964500 -0.264000
vn 0.250800 -0.968000 0.000000
vn 0.000000 1.000000 0.000000
vn 0.000000 0.000000 -1.000000
vn 0.000000 -0.964500 0.264000
vn -0.250800 0.968000 0.000000
vn 0.000000 0.964500 0.264000
vn -0.250800 -0.968000 0.000000
vn 0.495200 0.000000 0.868800
vn 0.000000 0.424000 -0.905700
vn 0.000000 0.556500 0.830800
vn 0.000000 -0.556500 0.830800
vn 0.000000 -0.424000 -0.905700
vn 0.000000 -1.000000 0.000000
vn -0.339300 0.000000 -0.940700
vn -0.495200 0.000000 0.868800
s off
f 59//1 60//1 63//1 61//1
f 54//2 60//2 59//2 56//2
f 10//3 3//3 1//3 9//3
f 12//2 5//2 7//2 11//2
f 9//4 1//4 5//4 12//4
f 6//5 16//5 8//5
f 10//6 19//6 11//6
f 8//7 15//7 4//7
f 11//8 20//8 12//8
f 8//9 4//9 2//9 6//9
f 14//4 13//4 20//4 17//4
f 17//2 20//2 19//2 16//2
f 16//10 19//10 18//10 15//10
f 12//11 13//11 9//11
f 4//12 14//12 2//12
f 2//13 17//13 6//13
f 9//14 18//14 10//14
f 38//15 40//15 52//15 50//15
f 27//16 30//16 25//16
f 28//1 31//1 29//1 27//1
f 15//3 18//3 13//3 14//3
f 22//15 24//15 36//15 34//15
f 23//17 36//17 24//17
f 54//15 56//15 68//15 66//15
f 22//18 33//18 21//18
f 26//19 31//19 28//19
f 34//4 36//4 35//4 33//4
f 21//20 26//20 28//20 22//20
f 23//3 25//3 26//3 21//3
f 24//9 27//9 25//9 23//9
f 41//21 46//21 48//21 42//21
f 43//16 46//16 41//16
f 57//21 62//21 64//21 58//21
f 22//2 28//2 27//2 24//2
f 21//22 33//22 35//22 23//22
f 40//17 51//17 52//17
f 37//22 49//22 51//22 39//22
f 38//18 49//18 37//18
f 42//19 47//19 44//19
f 50//4 52//4 51//4 49//4
f 37//20 42//20 44//20 38//20
f 39//3 41//3 42//3 37//3
f 40//9 43//9 41//9 39//9
f 43//1 44//1 47//1 45//1
f 59//16 62//16 57//16
f 26//21 25//21 30//21 32//21
f 38//2 44//2 43//2 40//2
f 56//17 67//17 68//17
f 53//22 65//22 67//22 55//22
f 54//18 65//18 53//18
f 58//19 63//19 60//19
f 66//4 68//4 67//4 65//4
f 53//20 58//20 60//20 54//20
f 55//3 57//3 58//3 53//3
f 56//9 59//9 57//9 55//9
f 6//5 17//5 16//5
f 10//6 18//6 19//6
f 8//7 16//7 15//7
f 11//8 19//8 20//8
f 12//11 20//11 13//11
f 4//12 15//12 14//12
f 2//13 14//13 17//13
f 9//14 13//14 18//14
f 27//16 29//16 30//16
f 23//17 35//17 36//17
f 22//18 34//18 33//18
f 26//19 32//19 31//19
f 43//16 45//16 46//16
f 40//17 39//17 51//17
f 38//18 50//18 49//18
f 42//19 48//19 47//19
f 59//16 61//16 62//16
f 56//17 55//17 67//17
f 54//18 66//18 65//18
f 58//19 64//19 63//19
f 11//10 7//10 3//10 10//10
